<svg width="148" height="14" viewBox="0 0 148 14" fill="none" xmlns="http://www.w3.org/2000/svg">
<path d="M4.97573 10.4385C3.95338 10.4385 3.06925 10.2213 2.32333 9.78693C1.58179 9.34815 1.00919 8.73825 0.605513 7.95723C0.201838 7.17181 0 6.26135 0 5.22584C0 4.18155 0.201838 3.26889 0.605513 2.48787C1.00919 1.70246 1.58179 1.09256 2.32333 0.658165C3.06925 0.219388 3.95338 0 4.97573 0C5.99809 0 6.88003 0.219388 7.62156 0.658165C8.36748 1.09256 8.94228 1.70246 9.34596 2.48787C9.74963 3.26889 9.95147 4.18155 9.95147 5.22584C9.95147 6.26135 9.74963 7.17181 9.34596 7.95723C8.94228 8.73825 8.36748 9.34815 7.62156 9.78693C6.88003 10.2213 5.99809 10.4385 4.97573 10.4385ZM4.9889 8.26656C5.454 8.26656 5.84232 8.13493 6.15385 7.87167C6.46538 7.60401 6.70013 7.23983 6.85809 6.77911C7.02044 6.31839 7.10161 5.79405 7.10161 5.20609C7.10161 4.61813 7.02044 4.09379 6.85809 3.63308C6.70013 3.17236 6.46538 2.80817 6.15385 2.54052C5.84232 2.27287 5.454 2.13904 4.9889 2.13904C4.51941 2.13904 4.12451 2.27287 3.8042 2.54052C3.48828 2.80817 3.24915 3.17236 3.0868 3.63308C2.92884 4.09379 2.84986 4.61813 2.84986 5.20609C2.84986 5.79405 2.92884 6.31839 3.0868 6.77911C3.24915 7.23983 3.48828 7.60401 3.8042 7.87167C4.12451 8.13493 4.51941 8.26656 4.9889 8.26656Z" fill="white"/>
<path d="M16.3423 10.4385C15.3067 10.4385 14.416 10.2191 13.6701 9.78035C12.9286 9.33718 12.3582 8.72289 11.9589 7.93748C11.564 7.15207 11.3665 6.24819 11.3665 5.22584C11.3665 4.19032 11.5662 3.28205 11.9655 2.50103C12.3691 1.71562 12.9417 1.10352 13.6833 0.664747C14.4248 0.221582 15.3067 0 16.3291 0C17.211 0 17.9833 0.160153 18.6458 0.48046C19.3084 0.800768 19.8327 1.25051 20.2189 1.8297C20.605 2.40889 20.8178 3.08899 20.8573 3.87002H18.2115C18.1369 3.36542 17.9394 2.95955 17.6191 2.65241C17.3032 2.34088 16.8885 2.18511 16.3752 2.18511C15.9408 2.18511 15.5612 2.30358 15.2365 2.54052C14.9162 2.77307 14.6661 3.11312 14.4862 3.56068C14.3063 4.00823 14.2164 4.55012 14.2164 5.18635C14.2164 5.83135 14.3041 6.37982 14.4797 6.83176C14.6596 7.2837 14.9118 7.62814 15.2365 7.86508C15.5612 8.10202 15.9408 8.22049 16.3752 8.22049C16.6955 8.22049 16.9829 8.15468 17.2374 8.02304C17.4962 7.89141 17.7091 7.70054 17.8758 7.45044C18.0469 7.19595 18.1588 6.891 18.2115 6.53559H20.8573C20.8134 7.30784 20.6028 7.98794 20.2254 8.5759C19.8525 9.15948 19.3369 9.6158 18.6788 9.94489C18.0206 10.274 17.2418 10.4385 16.3423 10.4385Z" fill="white"/>
<path d="M27.2596 10.4385C26.2197 10.4385 25.3246 10.2279 24.5743 9.80667C23.8283 9.38106 23.2536 8.77993 22.8499 8.0033C22.4462 7.22227 22.2444 6.29865 22.2444 5.23242C22.2444 4.19252 22.4462 3.27986 22.8499 2.49445C23.2536 1.70904 23.8218 1.09694 24.5545 0.658165C25.2917 0.219388 26.1561 0 27.1477 0C27.8146 0 28.4355 0.1075 29.0103 0.322501C29.5895 0.533114 30.0941 0.851228 30.5241 1.27684C30.9585 1.70246 31.2963 2.23776 31.5377 2.88277C31.779 3.52338 31.8997 4.27369 31.8997 5.13369V5.90375H23.3632V4.16619H29.2604C29.2604 3.76252 29.1727 3.40491 28.9971 3.09338C28.8216 2.78185 28.5781 2.53833 28.2666 2.36282C27.9594 2.18292 27.6018 2.09297 27.1938 2.09297C26.7682 2.09297 26.3908 2.19169 26.0617 2.38914C25.737 2.5822 25.4825 2.84328 25.2983 3.17236C25.114 3.49705 25.0196 3.85905 25.0152 4.25833V5.91033C25.0152 6.41054 25.1074 6.84273 25.2917 7.20692C25.4803 7.5711 25.7458 7.85192 26.0881 8.04937C26.4303 8.24682 26.8362 8.34554 27.3057 8.34554C27.6172 8.34554 27.9024 8.30167 28.1613 8.21391C28.4202 8.12616 28.6417 7.99452 28.826 7.81901C29.0103 7.6435 29.1507 7.4285 29.2472 7.17401L31.8404 7.34513C31.7088 7.9682 31.4389 8.51228 31.0309 8.97738C30.6272 9.4381 30.1051 9.7979 29.4644 10.0568C28.8282 10.3113 28.0933 10.4385 27.2596 10.4385Z" fill="white"/>
<path d="M40.7652 4.06747V6.27232H35.4867V4.06747H40.7652ZM36.4081 0.131633V10.2411H33.7294V0.131633H36.4081ZM42.5225 0.131633V10.2411H39.8635V0.131633H42.5225Z" fill="white"/>
<path d="M51.7335 4.06747V6.27232H46.455V4.06747H51.7335ZM47.3764 0.131633V10.2411H44.6977V0.131633H47.3764ZM53.4908 0.131633V10.2411H50.8318V0.131633H53.4908Z" fill="white"/>
<path d="M58.3448 6.54217L61.9844 0.131633H64.7487V10.2411H62.0766V3.81078L58.4501 10.2411H55.666V0.131633H58.3448V6.54217Z" fill="white"/>
<path d="M71.6035 10.4385C70.5636 10.4385 69.6685 10.2279 68.9182 9.80667C68.1723 9.38106 67.5975 8.77993 67.1938 8.0033C66.7901 7.22227 66.5883 6.29865 66.5883 5.23242C66.5883 4.19252 66.7901 3.27986 67.1938 2.49445C67.5975 1.70904 68.1657 1.09694 68.8985 0.658165C69.6356 0.219388 70.5 0 71.4916 0C72.1586 0 72.7794 0.1075 73.3542 0.322501C73.9334 0.533114 74.438 0.851228 74.868 1.27684C75.3024 1.70246 75.6403 2.23776 75.8816 2.88277C76.1229 3.52338 76.2436 4.27369 76.2436 5.13369V5.90375H67.7072V4.16619H73.6043C73.6043 3.76252 73.5166 3.40491 73.3411 3.09338C73.1656 2.78185 72.9221 2.53833 72.6105 2.36282C72.3034 2.18292 71.9458 2.09297 71.5377 2.09297C71.1121 2.09297 70.7347 2.19169 70.4057 2.38914C70.081 2.5822 69.8265 2.84328 69.6422 3.17236C69.4579 3.49705 69.3636 3.85905 69.3592 4.25833V5.91033C69.3592 6.41054 69.4513 6.84273 69.6356 7.20692C69.8243 7.5711 70.0897 7.85192 70.432 8.04937C70.7742 8.24682 71.1801 8.34554 71.6496 8.34554C71.9611 8.34554 72.2463 8.30167 72.5052 8.21391C72.7641 8.12616 72.9857 7.99452 73.17 7.81901C73.3542 7.6435 73.4947 7.4285 73.5912 7.17401L76.1844 7.34513C76.0527 7.9682 75.7829 8.51228 75.3748 8.97738C74.9711 9.4381 74.449 9.7979 73.8084 10.0568C73.1721 10.3113 72.4372 10.4385 71.6035 10.4385Z" fill="white"/>
<path d="M86.9306 10.4385C85.8951 10.4385 85.0043 10.2191 84.2584 9.78035C83.5169 9.33718 82.9465 8.72289 82.5472 7.93748C82.1523 7.15207 81.9548 6.24819 81.9548 5.22584C81.9548 4.19032 82.1545 3.28205 82.5538 2.50103C82.9574 1.71562 83.53 1.10352 84.2716 0.664747C85.0131 0.221582 85.8951 0 86.9174 0C87.7993 0 88.5716 0.160153 89.2341 0.48046C89.8967 0.800768 90.421 1.25051 90.8072 1.8297C91.1933 2.40889 91.4061 3.08899 91.4456 3.87002H88.7998C88.7252 3.36542 88.5277 2.95955 88.2074 2.65241C87.8915 2.34088 87.4768 2.18511 86.9635 2.18511C86.5291 2.18511 86.1495 2.30358 85.8248 2.54052C85.5045 2.77307 85.2544 3.11312 85.0745 3.56068C84.8946 4.00823 84.8047 4.55012 84.8047 5.18635C84.8047 5.83135 84.8924 6.37982 85.068 6.83176C85.2479 7.2837 85.5001 7.62814 85.8248 7.86508C86.1495 8.10202 86.5291 8.22049 86.9635 8.22049C87.2838 8.22049 87.5712 8.15468 87.8257 8.02304C88.0845 7.89141 88.2974 7.70054 88.4641 7.45044C88.6352 7.19595 88.7471 6.891 88.7998 6.53559H91.4456C91.4017 7.30784 91.1911 7.98794 90.8137 8.5759C90.4408 9.15948 89.9252 9.6158 89.2671 9.94489C88.6089 10.274 87.8301 10.4385 86.9306 10.4385Z" fill="white"/>
<path d="M93.2407 10.2411V0.131633H96.0445V4.0543H96.8343L99.5854 0.131633H102.876L99.3024 5.14686L102.916 10.2411H99.5854L97.091 6.65406H96.0445V10.2411H93.2407Z" fill="white"/>
<path d="M106.779 6.54217L110.419 0.131633H113.183V10.2411H110.511V3.81078L106.885 10.2411H104.1V0.131633H106.779V6.54217Z" fill="white"/>
<path d="M114.641 13.2028V8.01646H115.418C115.641 7.87605 115.821 7.65228 115.957 7.34513C116.098 7.03799 116.212 6.676 116.3 6.25916C116.392 5.84232 116.462 5.39257 116.51 4.90992C116.563 4.42288 116.609 3.93144 116.648 3.43563L116.912 0.131633H124.665V8.01646H126.231V13.2028H123.559V10.2411H117.379V13.2028H114.641ZM118.208 8.01646H122.019V2.29042H119.294L119.189 3.43563C119.114 4.51502 119.007 5.43206 118.866 6.18676C118.726 6.93707 118.507 7.54697 118.208 8.01646Z" fill="white"/>
<path d="M127.865 10.2411V0.131633H130.669V4.0543H131.459L134.21 0.131633H137.501L133.927 5.14686L137.54 10.2411H134.21L131.715 6.65406H130.669V10.2411H127.865Z" fill="white"/>
<path d="M141.404 6.54217L145.043 0.131633H147.808V10.2411H145.135V3.81078L141.509 10.2411H138.725V0.131633H141.404V6.54217Z" fill="white"/>
</svg>
