<svg width="20" height="14" viewBox="0 0 20 14" fill="none" xmlns="http://www.w3.org/2000/svg">
<g opacity="0.3">
<path d="M7.79688 6.7998C7.79688 7.33024 8.00759 7.83895 8.38266 8.21402C8.75773 8.58909 9.26644 8.7998 9.79688 8.7998C10.3273 8.7998 10.836 8.58909 11.2111 8.21402C11.5862 7.83895 11.7969 7.33024 11.7969 6.7998C11.7969 6.26937 11.5862 5.76066 11.2111 5.38559C10.836 5.01052 10.3273 4.7998 9.79688 4.7998C9.26644 4.7998 8.75773 5.01052 8.38266 5.38559C8.00759 5.76066 7.79688 6.26937 7.79688 6.7998Z" stroke="black" stroke-width="1.6" stroke-linecap="round" stroke-linejoin="round"/>
<path d="M18.7969 6.7998C16.3969 10.7998 13.3969 12.7998 9.79688 12.7998C6.19688 12.7998 3.19688 10.7998 0.796875 6.7998C3.19688 2.7998 6.19688 0.799805 9.79688 0.799805C13.3969 0.799805 16.3969 2.7998 18.7969 6.7998Z" stroke="black" stroke-width="1.6" stroke-linecap="round" stroke-linejoin="round"/>
</g>
</svg>
