<svg width="40" height="47" viewBox="0 0 40 47" fill="none" xmlns="http://www.w3.org/2000/svg">
<path d="M24.75 38.8947H39M31.875 31.7895V46M1 43.6316V38.8947C1 36.3822 2.00089 33.9725 3.78249 32.1958C5.56408 30.4192 7.98044 29.4211 10.5 29.4211H20M5.75 10.4737C5.75 12.9863 6.75089 15.3959 8.53249 17.1726C10.3141 18.9493 12.7304 19.9474 15.25 19.9474C17.7696 19.9474 20.1859 18.9493 21.9675 17.1726C23.7491 15.3959 24.75 12.9863 24.75 10.4737C24.75 7.96111 23.7491 5.55144 21.9675 3.77478C20.1859 1.99812 17.7696 1 15.25 1C12.7304 1 10.3141 1.99812 8.53249 3.77478C6.75089 5.55144 5.75 7.96111 5.75 10.4737Z" stroke="url(#paint0_linear_2056_24729)" stroke-width="2" stroke-linecap="round" stroke-linejoin="round"/>
<defs>
<linearGradient id="paint0_linear_2056_24729" x1="-5.98311" y1="91" x2="47.6134" y2="84.597" gradientUnits="userSpaceOnUse">
<stop stop-color="#108AEE"/>
<stop offset="0.610352" stop-color="#DC8CE1"/>
<stop offset="1" stop-color="#FF408E"/>
</linearGradient>
</defs>
</svg>
