<svg width="24" height="24" viewBox="0 0 24 24" fill="none" xmlns="http://www.w3.org/2000/svg">
<g clip-path="url(#clip0_2124_12935)">
<path d="M17 14.5C18.933 14.5 20.5 12.933 20.5 11C20.5 9.067 18.933 7.5 17 7.5C15.067 7.5 13.5 9.067 13.5 11C13.5 12.933 15.067 14.5 17 14.5Z" stroke="url(#paint0_linear_2124_12935)" stroke-width="2" stroke-linecap="round" stroke-linejoin="round"/>
<path d="M19.5 13.5L22.5 16.5" stroke="url(#paint1_linear_2124_12935)" stroke-width="2" stroke-linecap="round" stroke-linejoin="round"/>
<path d="M3 17L10 17" stroke="url(#paint2_linear_2124_12935)" stroke-width="2" stroke-linecap="round" stroke-linejoin="round"/>
<path d="M3 13L10 13" stroke="url(#paint3_linear_2124_12935)" stroke-width="2" stroke-linecap="round" stroke-linejoin="round"/>
<path d="M3 9H10" stroke="url(#paint4_linear_2124_12935)" stroke-width="2" stroke-linecap="round" stroke-linejoin="round"/>
</g>
<defs>
<linearGradient id="paint0_linear_2124_12935" x1="12.2136" y1="21.5" x2="22.0311" y2="20.1111" gradientUnits="userSpaceOnUse">
<stop stop-color="#108AEE"/>
<stop offset="0.610352" stop-color="#DC8CE1"/>
<stop offset="1" stop-color="#FF408E"/>
</linearGradient>
<linearGradient id="paint1_linear_2124_12935" x1="18.9487" y1="19.5" x2="23.1562" y2="18.9047" gradientUnits="userSpaceOnUse">
<stop stop-color="#108AEE"/>
<stop offset="0.610352" stop-color="#DC8CE1"/>
<stop offset="1" stop-color="#FF408E"/>
</linearGradient>
<linearGradient id="paint2_linear_2124_12935" x1="1.71364" y1="19" x2="6.76932" y2="13.9933" gradientUnits="userSpaceOnUse">
<stop stop-color="#108AEE"/>
<stop offset="0.610352" stop-color="#DC8CE1"/>
<stop offset="1" stop-color="#FF408E"/>
</linearGradient>
<linearGradient id="paint3_linear_2124_12935" x1="1.71364" y1="15" x2="6.76932" y2="9.99326" gradientUnits="userSpaceOnUse">
<stop stop-color="#108AEE"/>
<stop offset="0.610352" stop-color="#DC8CE1"/>
<stop offset="1" stop-color="#FF408E"/>
</linearGradient>
<linearGradient id="paint4_linear_2124_12935" x1="1.71364" y1="11" x2="6.76932" y2="5.99326" gradientUnits="userSpaceOnUse">
<stop stop-color="#108AEE"/>
<stop offset="0.610352" stop-color="#DC8CE1"/>
<stop offset="1" stop-color="#FF408E"/>
</linearGradient>
<clipPath id="clip0_2124_12935">
<rect width="24" height="24" fill="white"/>
</clipPath>
</defs>
</svg>
