<svg width="24" height="24" viewBox="0 0 24 24" fill="none" xmlns="http://www.w3.org/2000/svg">
<path d="M14.817 4.16714C15.1967 4.53487 15.4994 4.97449 15.7075 5.46037C15.9156 5.94625 16.0249 6.46869 16.0291 6.99725C16.0333 7.5258 15.9323 8.04991 15.7319 8.53903C15.5316 9.02816 15.2359 9.47253 14.8621 9.84625C14.4883 10.22 14.0439 10.5156 13.5547 10.7159C13.0656 10.9161 12.5414 11.017 12.0129 11.0128C11.4843 11.0085 10.9619 10.899 10.4761 10.6909C9.99023 10.4827 9.55067 10.1799 9.183 9.80014C8.44693 9.05073 8.03661 8.04096 8.04132 6.99054C8.04603 5.94012 8.4654 4.93407 9.20817 4.1913C9.95093 3.44853 10.957 3.02917 12.0074 3.02445C13.0578 3.01974 14.0676 3.43106 14.817 4.16714ZM12 14.0081C16.554 14.0081 21 15.9751 21 19.0001V20.0001C21 20.2654 20.8946 20.5197 20.7071 20.7072C20.5196 20.8948 20.2652 21.0001 20 21.0001H4C3.73478 21.0001 3.48043 20.8948 3.29289 20.7072C3.10536 20.5197 3 20.2654 3 20.0001V19.0001C3 15.9741 7.446 14.0081 12 14.0081Z" stroke="url(#paint0_linear_2124_52571)" stroke-width="1.875" stroke-linecap="round" stroke-linejoin="round"/>
<defs>
<linearGradient id="paint0_linear_2124_52571" x1="-0.307789" y1="38.9759" x2="24.9358" y2="35.3997" gradientUnits="userSpaceOnUse">
<stop stop-color="#108AEE"/>
<stop offset="0.610352" stop-color="#DC8CE1"/>
<stop offset="1" stop-color="#FF408E"/>
</linearGradient>
</defs>
</svg>
