<svg width="78" height="89" viewBox="0 0 78 89" fill="none" xmlns="http://www.w3.org/2000/svg">
<path d="M24.1811 39.5718V15.6829C24.1811 11.8815 25.7265 8.23577 28.4773 5.54775C31.228 2.85972 34.9589 1.34961 38.8491 1.34961C42.7393 1.34961 46.4702 2.85972 49.221 5.54775C51.9718 8.23577 53.5172 11.8815 53.5172 15.6829V39.5718M11.1314 25.2385H66.5717C67.9816 25.2383 69.3749 25.5361 70.6561 26.1114C71.9372 26.6867 73.0759 27.5259 73.994 28.5715C74.9121 29.6171 75.588 30.8443 75.9754 32.1691C76.3627 33.4938 76.4522 34.8848 76.2379 36.2465L70.1018 75.1949C69.5691 78.5797 67.8138 81.6663 65.1538 83.8958C62.4937 86.1254 59.1046 87.3506 55.6 87.3496H22.0982C18.5945 87.3494 15.2066 86.1237 12.5475 83.8943C9.88844 81.6648 8.13388 78.5789 7.60132 75.1949L1.46519 36.2465C1.25088 34.8848 1.34045 33.4938 1.72777 32.1691C2.11509 30.8443 2.79099 29.6171 3.70913 28.5715C4.62727 27.5259 5.76594 26.6867 7.04707 26.1114C8.3282 25.5361 9.72149 25.2383 11.1314 25.2385Z" stroke="url(#paint0_linear_2056_16147)" stroke-width="2.7" stroke-linecap="round" stroke-linejoin="round"/>
<path d="M33.0788 63.2486L33.0797 63.2477C34.5291 61.6378 36.495 60.7334 38.5448 60.7334C40.5945 60.7334 42.5604 61.6378 44.0098 63.2477L44.0107 63.2486M26.3516 52.3496C27.3551 53.4228 28.7166 54.0264 30.1356 54.0264C31.5547 54.0264 32.9157 53.4234 33.9193 52.3502M43.1697 52.3496C44.1732 53.4228 45.5347 54.0264 46.9539 54.0264C48.3729 54.0264 49.7339 53.4234 50.7375 52.3502" stroke="url(#paint1_linear_2056_16147)" stroke-width="2.7" stroke-linecap="round" stroke-linejoin="round"/>
<defs>
<linearGradient id="paint0_linear_2056_16147" x1="-12.4309" y1="173.35" x2="93.2528" y2="160.31" gradientUnits="userSpaceOnUse">
<stop stop-color="#108AEE"/>
<stop offset="0.610352" stop-color="#DC8CE1"/>
<stop offset="1" stop-color="#FF408E"/>
</linearGradient>
<linearGradient id="paint1_linear_2056_16147" x1="21.8703" y1="74.1476" x2="53.5788" y2="64.1106" gradientUnits="userSpaceOnUse">
<stop stop-color="#108AEE"/>
<stop offset="0.610352" stop-color="#DC8CE1"/>
<stop offset="1" stop-color="#FF408E"/>
</linearGradient>
</defs>
</svg>
