<svg width="20" height="20" viewBox="0 0 20 20" fill="none" xmlns="http://www.w3.org/2000/svg">
<path d="M14.6476 3.69326L12.9809 2.81863C11.5179 2.05088 10.7864 1.66699 9.99952 1.66699C9.21261 1.66699 8.48111 2.05088 7.0181 2.81863L6.75 2.95933L14.1859 7.20838L17.5331 5.53476C16.9946 4.9249 16.1258 4.46894 14.6476 3.69326Z" fill="#C9C9C9"/>
<path d="M18.1237 6.63696L14.7917 8.30295V10.8333C14.7917 11.1785 14.5118 11.4583 14.1667 11.4583C13.8215 11.4583 13.5417 11.1785 13.5417 10.8333V8.92793L10.625 10.3863V18.2533C11.2232 18.1043 11.904 17.7471 12.9814 17.1817L14.6481 16.3071C16.4412 15.3661 17.3377 14.8957 17.8355 14.0503C18.3333 13.2048 18.3333 12.1528 18.3333 10.0488V9.95126C18.3333 8.3741 18.3333 7.38799 18.1237 6.63696Z" fill="#C9C9C9"/>
<path d="M9.3763 18.2531V10.386L1.87767 6.63672C1.66797 7.38774 1.66797 8.37385 1.66797 9.95102V10.0485C1.66797 12.1525 1.66797 13.2046 2.1658 14.05C2.66363 14.8954 3.56015 15.3659 5.3532 16.3069L7.01988 17.1814C8.09733 17.7469 8.77805 18.1041 9.3763 18.2531Z" fill="#C9C9C9"/>
<path d="M2.46484 5.53466L9.99844 9.30148L12.8411 7.88015L5.43557 3.64844L5.35034 3.69316C3.87223 4.46885 3.00335 4.9248 2.46484 5.53466Z" fill="#C9C9C9"/>
</svg>
