<svg width="190" height="59" viewBox="0 0 190 59" fill="none" xmlns="http://www.w3.org/2000/svg">
<g clip-path="url(#clip0_651_8768)">
<path d="M190.004 19.3104L189.706 20.0683C189.417 20.8242 189.21 21.2697 188.931 21.8814C188.756 22.2594 188.552 22.7048 188.271 23.3478L182.312 38.0251C181.271 40.6376 179.193 42.1338 176.626 42.1338C175.738 42.1338 174.692 41.8668 174.101 41.625L173.566 41.4016L173.807 40.8691C174.635 39.1099 175.171 38.5442 176.9 38.403C177.556 38.3515 178.269 37.5852 178.772 36.3992L179.024 35.7899L173.628 23.3428C173.342 22.6766 173.125 22.1623 172.908 21.6422C172.699 21.1587 172.495 20.6802 172.237 20.0892L171.898 19.3104H174.555C176.092 19.3104 176.774 19.7805 177.363 21.2697C177.363 21.2697 180.331 28.5884 180.554 29.1216C180.768 29.6609 181.031 30.9495 181.031 30.9495L181.167 30.9416C181.167 30.9416 181.358 29.7928 181.588 29.1216C181.824 28.4547 184.467 21.2904 184.467 21.2904C185.02 19.8221 185.776 19.3104 187.341 19.3104H190.004Z" fill="#E51A4B"/>
<path d="M156.782 19.1173C154.978 19.1173 152.75 20.6609 152.259 22.6335C152.259 22.6097 152.259 21.6739 152.259 21.453C152.259 20.4082 151.629 19.3109 149.646 19.3109H148.164V36.415H152.366V29.3172C152.366 28.2626 152.476 27.3754 152.719 26.599C153.349 24.5596 154.905 23.2423 156.681 23.2423C157.113 23.2423 157.475 23.3196 157.475 23.3196L158.169 23.4816V19.2593L157.692 19.189C157.673 19.189 157.231 19.1173 156.782 19.1173Z" fill="#E51A4B"/>
<path d="M168.965 19.1173C167.166 19.1173 164.945 20.6609 164.449 22.6335C164.449 22.6097 164.449 21.6739 164.449 21.453C164.449 20.4082 163.827 19.3109 161.836 19.3109H160.352V36.415H164.552V29.3172C164.552 28.2626 164.669 27.3754 164.906 26.599C165.536 24.5596 167.094 23.2423 168.873 23.2423C169.309 23.2423 169.665 23.3196 169.665 23.3196L170.355 23.4816V19.2593L169.882 19.189C169.861 19.189 169.421 19.1173 168.965 19.1173Z" fill="#E51A4B"/>
<path d="M80.643 19.5081C75.4041 19.5081 71.457 23.3343 71.457 28.409C71.457 33.5189 75.4041 37.376 80.643 37.376C85.8148 37.376 89.8654 33.4337 89.8654 28.409C89.8654 23.3343 85.9053 19.5081 80.643 19.5081ZM80.643 33.5981C77.8359 33.5981 75.7166 31.366 75.7166 28.409C75.7166 25.4847 77.8359 23.2803 80.643 23.2803C83.47 23.2803 85.6004 25.4847 85.6004 28.409C85.6004 31.366 83.47 33.5981 80.643 33.5981Z" fill="#E51A4B"/>
<path d="M61.5979 19.5081C59.2249 19.5081 57.5957 20.4644 56.6486 21.2774H56.5273C56.5273 21.2774 56.6486 20.3407 56.6486 19.3877C56.6486 18.4326 56.6486 16.1521 56.6486 16.1521C56.6486 14.4109 55.7941 13.5673 54.0514 13.5673H52.4453V28.5527C52.6542 33.9949 56.0628 37.376 61.353 37.376C66.2254 37.376 69.902 33.5348 69.902 28.4417C69.902 23.3476 66.333 19.5081 61.5979 19.5081ZM60.9038 33.6273C58.203 33.6273 56.48 31.0211 56.48 28.4986C56.48 24.6723 58.9464 23.309 60.9656 23.309C63.2785 23.309 65.6651 25.2425 65.6651 28.4679C65.6651 31.7009 63.2428 33.6273 60.9038 33.6273Z" fill="#E51A4B"/>
<path d="M118.388 19.5081C116.012 19.5081 114.386 20.4644 113.431 21.2774H113.311C113.311 21.2774 113.431 20.3407 113.431 19.3877C113.431 18.4326 113.431 16.1521 113.431 16.1521C113.431 14.4109 112.583 13.5673 110.84 13.5673H109.234V28.5527C109.441 33.9949 112.854 37.376 118.132 37.376C123.009 37.376 126.686 33.5348 126.686 28.4417C126.686 23.3476 123.118 19.5081 118.388 19.5081ZM117.688 33.6273C114.99 33.6273 113.265 31.0211 113.265 28.4986C113.265 24.6723 115.731 23.309 117.75 23.309C120.066 23.309 122.455 25.2425 122.455 28.4679C122.455 31.7009 120.033 33.6273 117.688 33.6273Z" fill="#E51A4B"/>
<path d="M104.643 33.2472L101.227 27.8589L104.135 23.5358C104.664 22.7466 105.076 22.1833 105.516 21.5869C105.835 21.1569 106.158 20.7199 106.52 20.1978L107.131 19.3259H103.964C102.182 19.3259 101.519 19.7094 100.565 21.2782C100.565 21.2782 99.2848 23.3791 99.1066 23.6753C98.9392 23.9657 98.4973 24.9432 98.4871 24.9678H98.3717C98.3717 24.9678 97.9762 24.0628 97.7359 23.6753C97.5035 23.2836 96.2622 21.2703 96.2622 21.2703C95.2568 19.7094 94.5862 19.3259 92.8717 19.3259H89.7109L90.3519 20.2058C91.1162 21.2782 91.5552 21.9084 92.2136 22.8546L95.5986 27.8589L92.724 32.576C92.1927 33.3552 91.7798 33.9284 91.3382 34.5223C91.0175 34.9568 90.6975 35.3868 90.3313 35.9031L89.7243 36.7832H92.8923C94.6715 36.7832 95.3395 36.4053 96.2927 34.8359C96.2927 34.8359 97.5676 32.738 97.7455 32.4392C97.9141 32.1485 98.3574 31.1692 98.3717 31.1459H98.4871C98.4871 31.1459 98.8797 32.0459 99.1171 32.4392C99.3547 32.8256 100.594 34.8444 100.594 34.8444C101.601 36.4053 102.267 36.7832 103.984 36.7832H107.141L106.496 35.9031C105.738 34.8359 105.296 34.2038 104.643 33.2472Z" fill="#E51A4B"/>
<path d="M142.699 32.12C142.22 32.12 141.783 32.3206 141.352 32.5133L141.289 32.5391C140.399 32.9453 139.315 33.4417 138.029 33.4417C135.839 33.4417 133.009 32.1047 132.76 29.167C132.76 29.167 144.711 29.167 144.856 29.167C144.93 28.6067 144.974 27.7864 144.974 27.349C144.974 22.5372 141.765 19.3043 137.019 19.3043C131.948 19.3043 128.398 22.9827 128.398 28.2387C128.398 33.414 132.604 37.1709 137.874 37.1709C142.15 37.1709 144.543 34.5782 144.644 34.478L144.93 34.1932L144.759 33.8295C144.368 33.038 143.799 32.12 142.699 32.12ZM137.314 22.5705C139.105 22.5705 140.988 23.6637 140.988 25.9812H132.798C133.076 24.2038 134.9 22.5705 137.314 22.5705Z" fill="#E51A4B"/>
<path d="M19.748 38.8726C21.5782 37.0546 24.5396 37.0546 26.3679 38.8726C28.2036 40.6937 28.2036 43.6487 26.3679 45.4697C24.5396 47.2952 21.5782 47.2952 19.748 45.4697C17.9277 43.6487 17.9277 40.6937 19.748 38.8726Z" fill="#E51A4B"/>
<path d="M27.6111 31.0399C25.7859 32.8579 25.7859 35.811 27.6111 37.6364C29.4419 39.4519 32.4082 39.4519 34.2359 37.6364C36.0613 35.811 36.0613 32.8579 34.2359 31.0399C32.4082 29.2217 29.4419 29.2217 27.6111 31.0399Z" fill="#E51A4B"/>
<path d="M35.4845 23.2042C33.6562 25.0218 33.6562 27.9772 35.4845 29.7928C37.3125 31.6237 40.2765 31.6237 42.1074 29.7928C43.9305 27.9772 43.9305 25.0218 42.1074 23.2042C40.2765 21.3807 37.3125 21.3807 35.4845 23.2042Z" fill="#E51A4B"/>
<path d="M11.8827 31.0399C10.0495 32.8579 10.0495 35.8129 11.8827 37.6364C13.711 39.4519 16.6749 39.4519 18.5056 37.6364C20.3314 35.8129 20.3314 32.8579 18.5056 31.0399C16.6749 29.2217 13.711 29.2217 11.8827 31.0399Z" fill="#E51A4B"/>
<path d="M4.01368 23.2042C2.18294 25.0267 2.18294 27.9772 4.01368 29.7928C5.84146 31.6237 8.80531 31.6237 10.6335 29.7928C12.4638 27.9772 12.4638 25.0267 10.6335 23.2042C8.80531 21.3807 5.84146 21.3807 4.01368 23.2042Z" fill="#E51A4B"/>
<path d="M19.748 23.2042C17.9277 25.0218 17.9277 27.9772 19.748 29.7928C21.5782 31.6237 24.5396 31.6237 26.376 29.7928C28.2036 27.9772 28.2036 25.0218 26.376 23.2042C24.5396 21.3807 21.5782 21.3807 19.748 23.2042Z" fill="#E51A4B"/>
<path d="M11.8827 15.3666C10.0495 17.1893 10.0495 20.1398 11.8827 21.9633C13.711 23.7844 16.6749 23.7844 18.5056 21.9633C20.3314 20.1398 20.3314 17.1893 18.5056 15.3666C16.6749 13.5428 13.711 13.5428 11.8827 15.3666Z" fill="#E51A4B"/>
<path d="M27.6111 15.3666C25.7859 17.1893 25.7859 20.1398 27.6111 21.9633C29.4419 23.7844 32.4082 23.7844 34.2359 21.9633C36.0613 20.1398 36.0613 17.1893 34.2359 15.3666C32.4082 13.5428 29.4419 13.5428 27.6111 15.3666Z" fill="#E51A4B"/>
<path fill-rule="evenodd" clip-rule="evenodd" d="M19.748 7.53092C21.5782 5.70792 24.5396 5.70792 26.376 7.53092C28.2036 9.35448 28.2036 12.3038 26.376 14.1245C24.5396 15.9455 21.5782 15.9455 19.748 14.1245C17.9277 12.3038 17.9277 9.35448 19.748 7.53092Z" fill="#B0CB1F"/>
<path d="M56.8879 43.9586V48.1406H56.1544V44.6243H54.2361V48.1406H53.5V43.9586H56.8879Z" fill="#E51A4B"/>
<path d="M58.988 43.9579V46.7196L61.8641 43.6363V48.1399H61.1363V45.3488L58.2617 48.4326V43.9579H58.988Z" fill="#E51A4B"/>
<path d="M66.529 45.1299C66.1472 44.644 65.5892 44.5058 65.2128 44.5058C64.4349 44.5058 63.7281 45.0452 63.7281 46.0612C63.7281 47.0852 64.4555 47.6177 65.2041 47.6177C65.6385 47.6177 66.175 47.427 66.558 46.9618V47.8308C66.101 48.1602 65.6202 48.2627 65.2253 48.2627C63.9164 48.2627 62.9766 47.3339 62.9766 46.0766C62.9766 44.7966 63.9295 43.8597 65.2253 43.8597C65.8918 43.8597 66.3259 44.1169 66.529 44.2605V45.1299Z" fill="#E51A4B"/>
<path d="M67.6758 43.9586H68.4038V45.5606H69.1527C69.529 45.5606 70.0528 45.5943 70.4256 45.9723C70.5925 46.1343 70.7503 46.427 70.7503 46.8546C70.7503 47.3068 70.5588 47.6184 70.3734 47.7903C70.0142 48.1322 69.5575 48.1406 69.1417 48.1406H67.6758V43.9586ZM69.0799 47.4971C69.3224 47.4971 69.5575 47.4871 69.7304 47.3861C69.8177 47.3252 70.004 47.1761 70.004 46.8546C70.004 46.6694 69.9501 46.4558 69.738 46.327C69.5575 46.2061 69.3224 46.2061 69.09 46.2061H68.4038V47.4971H69.0799Z" fill="#E51A4B"/>
<path d="M72.2481 43.6363L73.9879 47.0411L75.685 43.6363L76.6997 48.1399H75.9424L75.3928 45.552L73.9652 48.4326L72.5217 45.552L71.9843 48.1399H71.2305L72.2481 43.6363Z" fill="#E51A4B"/>
<path d="M80.8057 43.9579H81.5363V48.1399H80.8057V47.5557C80.5657 47.8714 80.1087 48.2627 79.37 48.2627C78.3089 48.2627 77.3281 47.5197 77.3281 46.0458C77.3281 44.6028 78.2958 43.8597 79.37 43.8597C80.1781 43.8597 80.6171 44.2996 80.8057 44.5543V43.9579ZM78.0767 46.0458C78.0767 46.944 78.5831 47.6177 79.4507 47.6177C80.3441 47.6177 80.8472 46.8816 80.8472 46.0568C80.8472 44.9763 80.1009 44.5058 79.4507 44.5058C78.7325 44.5058 78.0767 45.0274 78.0767 46.0458Z" fill="#E51A4B"/>
<path d="M85.9962 43.9579V46.7196L88.8726 43.6363V48.1399H88.1443V45.3488L85.2656 48.4326V43.9579H85.9962Z" fill="#E51A4B"/>
<path d="M95.9816 43.9586V48.1406H95.2513V44.6243H93.3299V48.1406H92.6016V43.9586H95.9816Z" fill="#E51A4B"/>
<path d="M97.0938 46.0612C97.0938 44.7966 98.0365 43.8597 99.3225 43.8597C100.605 43.8597 101.548 44.7966 101.548 46.0612C101.548 47.3339 100.592 48.2627 99.3225 48.2627C98.044 48.2627 97.0938 47.3339 97.0938 46.0612ZM97.8456 46.0612C97.8456 47.0931 98.5733 47.6177 99.3225 47.6177C100.078 47.6177 100.796 47.0852 100.796 46.0612C100.796 45.0373 100.089 44.5058 99.3225 44.5058C98.555 44.5058 97.8456 45.0452 97.8456 46.0612Z" fill="#E51A4B"/>
<path d="M105.944 45.1299C105.559 44.644 105.005 44.5058 104.63 44.5058C103.85 44.5058 103.143 45.0452 103.143 46.0612C103.143 47.0852 103.874 47.6177 104.62 47.6177C105.056 47.6177 105.59 47.427 105.972 46.9618V47.8308C105.518 48.1602 105.035 48.2627 104.64 48.2627C103.334 48.2627 102.395 47.3339 102.395 46.0766C102.395 44.7966 103.347 43.8597 104.64 43.8597C105.306 43.8597 105.742 44.1169 105.944 44.2605V45.1299Z" fill="#E51A4B"/>
<path d="M107.086 43.9586H107.819V45.5606H108.563C108.943 45.5606 109.467 45.5943 109.841 45.9723C110.001 46.1343 110.166 46.427 110.166 46.8546C110.166 47.3068 109.973 47.6184 109.792 47.7903C109.428 48.1322 108.971 48.1406 108.555 48.1406H107.086V43.9586ZM108.496 47.4971C108.736 47.4971 108.971 47.4871 109.141 47.3861C109.237 47.3252 109.413 47.1761 109.413 46.8546C109.413 46.6694 109.368 46.4558 109.152 46.327C108.971 46.2061 108.736 46.2061 108.507 46.2061H107.819V47.4971H108.496ZM110.67 43.9586H111.401V48.1406H110.67V43.9586Z" fill="#E51A4B"/>
<path d="M115.952 48.1398H115.224V44.6235H113.729V46.5065C113.729 46.8606 113.729 47.3243 113.403 47.7147C113.274 47.8767 112.957 48.16 112.391 48.16C112.324 48.16 112.242 48.1496 112.172 48.1398V47.478C112.219 47.4862 112.283 47.4962 112.331 47.4962C112.605 47.4962 112.779 47.3575 112.858 47.2233C112.992 47.0231 112.998 46.7611 112.998 46.5065V43.9577H115.952V48.1398Z" fill="#E51A4B"/>
<path d="M118.055 43.9586V45.674L119.757 43.9586H120.647L118.828 45.8227L120.872 48.1406H119.92L118.283 46.3092L118.055 46.5172V48.1406H117.332V43.9586H118.055Z" fill="#E51A4B"/>
<path d="M122.329 43.9579V46.7196L125.203 43.6363V48.1399H124.475V45.3488L121.602 48.4326V43.9579H122.329Z" fill="#E51A4B"/>
</g>
<defs>
<clipPath id="clip0_651_8768">
<rect width="190" height="59" fill="white"/>
</clipPath>
</defs>
</svg>
