<svg width="102" height="33" viewBox="0 0 102 33" fill="none" xmlns="http://www.w3.org/2000/svg">
<path d="M26.1159 24.7873C26.1159 27.1079 24.2565 28.9879 21.9742 28.9879H5.14171C2.8495 28.9977 1 27.1177 1 24.7873V8.20055C1 5.87996 2.8495 4 5.14171 4H21.9742C24.2565 4 26.1159 5.87996 26.1159 8.20055V24.7873Z" fill="#F6EB2F"/>
<path d="M19.603 9.33719C20.2326 9.33719 20.7441 9.84635 20.7441 10.473V13.3027H23.1347V10.4828C23.1347 8.54408 21.5508 6.96765 19.603 6.96765H16.75V9.34698H19.603V9.33719Z" fill="black"/>
<path d="M20.7441 22.5162C20.7441 23.1428 20.2326 23.6618 19.603 23.6618H16.75V26.0313H19.603C21.5508 26.0313 23.1347 24.4549 23.1347 22.5162V19.657H20.7441V22.5162Z" fill="black"/>
<path d="M6.36121 10.4828C6.36121 9.85614 6.87278 9.34698 7.5024 9.34698H10.3652V6.96765H7.51223C5.56435 6.96765 3.98047 8.54408 3.98047 10.4828V13.3125H6.37105V10.4828H6.36121Z" fill="black"/>
<path d="M7.51223 23.6523C6.88262 23.6523 6.37105 23.1431 6.37105 22.5067V19.6476H3.98047V22.5067C3.98047 24.4454 5.56435 26.0218 7.51223 26.0218H10.375V23.6425H7.51223V23.6523Z" fill="black"/>
<path d="M12.1761 22.1639L7.07031 17.0821L8.76241 15.398L12.1761 18.7956L18.3444 12.6564L20.0365 14.3405L12.1761 22.1639Z" fill="black"/>
<path d="M51.1951 16.161C51.7362 16.4449 52.1494 16.8464 52.4445 17.3849C52.7396 17.9235 52.8872 18.5697 52.8872 19.3139V23.3382H50.7721V21.6932H47.8503V23.3382H45.7646V19.3139C45.7646 18.5599 45.9122 17.9137 46.2073 17.3849C46.5025 16.8464 46.9255 16.4449 47.4567 16.161C47.9978 15.877 48.6176 15.74 49.3259 15.74C50.0342 15.74 50.654 15.8868 51.1951 16.161ZM50.7721 20.0678V19.1376C50.7721 18.5893 50.6442 18.178 50.3786 17.9039C50.1129 17.6297 49.7588 17.4926 49.3161 17.4926C48.8636 17.4926 48.5094 17.6297 48.2438 17.9039C47.9782 18.178 47.8503 18.5893 47.8503 19.1376V20.0678H50.7721Z" fill="black"/>
<path d="M56.3587 19.8035V23.3382H54.2534V15.8967H56.3587V19.4216H56.4177L59.0444 15.8967H61.5727L58.6903 19.4901L61.6514 23.3382H58.9067L56.3587 19.8035Z" fill="black"/>
<path d="M29.957 11.8629C29.957 10.59 30.9408 9.68921 32.2787 9.68921C33.0953 9.68921 33.7446 9.98295 34.1479 10.5215L33.2625 11.3146C33.0166 11.0013 32.7215 10.825 32.3476 10.825C31.7672 10.825 31.3737 11.2265 31.3737 11.8629C31.3737 12.4994 31.7672 12.9008 32.3476 12.9008C32.7215 12.9008 33.0166 12.7246 33.2625 12.4112L34.1479 13.2044C33.7347 13.7429 33.0953 14.0366 32.2787 14.0366C30.9408 14.0366 29.957 13.1358 29.957 11.8629Z" fill="black"/>
<path d="M38.9672 9.78687V13.9385H37.5604V12.411H36.2618V13.9385H34.855V9.78687H36.2618V11.2556H37.5604V9.78687H38.9672Z" fill="black"/>
<path d="M43.4151 12.881V13.9385H39.9424V9.78687H43.3364V10.8443H41.3295V11.3339H43.0905V12.3424H41.3295V12.8908H43.4151V12.881Z" fill="black"/>
<path d="M43.9961 13.6058L44.4486 12.5875C44.8421 12.8225 45.3635 12.9694 45.8259 12.9694C46.2293 12.9694 46.367 12.8812 46.367 12.7442C46.367 12.2252 44.0551 12.6462 44.0551 11.0894C44.0551 10.3159 44.7044 9.68921 46.003 9.68921C46.5638 9.68921 47.1442 9.80671 47.577 10.0515L47.154 11.0698C46.7408 10.8642 46.3572 10.7565 45.9932 10.7565C45.58 10.7565 45.4521 10.874 45.4521 11.0209C45.4521 11.5202 47.764 11.109 47.764 12.6364C47.764 13.4002 47.1147 14.0366 45.8161 14.0366C45.1176 14.0366 44.4093 13.8604 43.9961 13.6058Z" fill="black"/>
<path d="M49.3171 10.8737H48.0972V9.78687H51.9536V10.8737H50.7337V13.9385H49.3269V10.8737H49.3171Z" fill="black"/>
<path d="M56.7172 9.78687V13.9385H55.5563L53.9724 12.0487V13.9385H52.605V9.78687H53.7658L55.3497 11.6766V9.78687H56.7172Z" fill="black"/>
<path d="M60.1781 12.4306V13.9385H58.7713V12.4208L57.1973 9.78687H58.6828L59.5387 11.2262L60.3945 9.78687H61.7522L60.1781 12.4306Z" fill="black"/>
<path d="M36.4677 21.6832V23.3477H29.9551V22.0357L33.6246 17.5903H30.0535V15.9258H36.3201V17.2378L32.6506 21.6832H36.4677Z" fill="black"/>
<path d="M44.2983 15.9164V23.3481H42.6062L39.3991 19.3923V23.3481H37.3823V15.9164H39.0744L42.2815 19.8721V15.9164H44.2983Z" fill="black"/>
<path d="M65.3479 11.07H65.3282L65.3577 11.4323V12.8716H64.7871V9.82645H65.3085L66.371 11.6868H66.3907L66.3513 11.3245V9.82645H66.9219V12.8716H66.4005L65.3479 11.07Z" fill="black"/>
<path d="M68.9086 12.196H67.9937L67.7871 12.8716H67.187L68.1806 9.82645H68.7807L69.7645 12.8716H69.1349L68.9086 12.196ZM68.1314 11.7162H68.7906L68.4758 10.6979H68.4364L68.1314 11.7162Z" fill="black"/>
<path d="M70.2964 12.3918H70.7981V10.3062H70.3751V10.835H69.8931V9.82645H72.2935V10.835H71.8114V10.3062H71.3982V12.4016H71.8901V12.8814H70.2964V12.3918Z" fill="black"/>
<path d="M72.646 12.3429H73.4232V10.3552H72.646V9.82645H74.8005V10.3552H74.0233V12.3429H74.8005V12.8716H72.646V12.3429Z" fill="black"/>
<path d="M75.1943 11.3536C75.1943 11.1088 75.214 10.8836 75.2632 10.6878C75.3124 10.492 75.3813 10.3255 75.4796 10.1884C75.578 10.0513 75.6961 9.95343 75.8436 9.8751C75.9912 9.80656 76.1584 9.7674 76.3552 9.7674C76.5618 9.7674 76.7389 9.80656 76.8864 9.88489C77.034 9.96322 77.1521 10.0709 77.2406 10.208C77.3291 10.3451 77.398 10.5115 77.4374 10.7074C77.4767 10.9032 77.4964 11.1186 77.4964 11.3438C77.4964 11.8432 77.398 12.2251 77.2111 12.509C77.0242 12.793 76.729 12.93 76.3454 12.93C76.1388 12.93 75.9518 12.8909 75.8043 12.8125C75.6567 12.7342 75.5387 12.6265 75.4501 12.4894C75.3616 12.3523 75.2927 12.1859 75.2534 11.9901C75.214 11.7942 75.1943 11.5788 75.1943 11.3536ZM75.824 11.3536C75.824 11.5005 75.8338 11.6376 75.8436 11.7649C75.8535 11.8921 75.883 11.9999 75.9223 12.0978C75.9617 12.1957 76.0109 12.2642 76.0797 12.323C76.1486 12.3817 76.2371 12.4013 76.3552 12.4013C76.4536 12.4013 76.5421 12.3817 76.611 12.3426C76.6798 12.3034 76.729 12.2348 76.7684 12.1467C76.8077 12.0586 76.8372 11.9509 76.8569 11.8138C76.8766 11.6865 76.8766 11.5299 76.8766 11.3438C76.8766 11.197 76.8668 11.0697 76.8569 10.9424C76.8471 10.8151 76.8274 10.7074 76.7881 10.6095C76.7487 10.5115 76.6995 10.4332 76.6307 10.3843C76.5618 10.3255 76.4634 10.2961 76.3552 10.2961C76.1486 10.2961 76.0109 10.3843 75.942 10.5605C75.8633 10.7368 75.824 11.0011 75.824 11.3536Z" fill="black"/>
<path d="M78.4704 11.07H78.4507L78.4803 11.4323V12.8716H77.9097V9.82645H78.4311L79.4936 11.6868H79.5132L79.4739 11.3245V9.82645H80.0445V12.8716H79.5231L78.4704 11.07Z" fill="black"/>
<path d="M82.0312 12.196H81.1163L80.9097 12.8716H80.3096L81.3032 9.82645H81.9033L82.8871 12.8716H82.2575L82.0312 12.196ZM81.2638 11.7162H81.923L81.6082 10.6979H81.5688L81.2638 11.7162Z" fill="black"/>
<path d="M84.7271 11.6379H85.2682V12.8814H83.2515V9.82645H83.8516V12.3429H84.7271V11.6379Z" fill="black"/>
<path d="M65.0518 17.6202H65.5535V15.5248H65.1305V16.0536H64.6484V15.045H67.0489V16.0536H66.5668V15.5248H66.1536V17.6202H66.6455V18.1H65.0518V17.6202Z" fill="black"/>
<path d="M67.4331 15.0841C67.502 15.0743 67.5708 15.0645 67.6495 15.0547C67.7282 15.0449 67.8069 15.0352 67.8856 15.0352C67.9643 15.0254 68.0332 15.0254 68.1119 15.0254C68.1808 15.0254 68.2496 15.0254 68.3087 15.0254C68.4562 15.0254 68.594 15.0352 68.7317 15.0645C68.8694 15.0939 68.9973 15.1429 69.1055 15.2016C69.2137 15.2701 69.3023 15.3583 69.3712 15.4758C69.44 15.5933 69.4695 15.7303 69.4695 15.8968C69.4695 16.0241 69.4597 16.1318 69.4302 16.2199C69.4007 16.308 69.3711 16.3962 69.3318 16.4647C69.2924 16.5332 69.2334 16.592 69.1744 16.641C69.1154 16.6899 69.0465 16.7389 68.9678 16.778L69.7056 18.1097H69.017L68.3972 16.9151H68.043V18.0999H67.4429V15.0841H67.4331ZM68.348 15.5443C68.289 15.5443 68.23 15.5443 68.1709 15.5443C68.1119 15.5443 68.0627 15.5541 68.0332 15.5639V16.4451H68.2693C68.4366 16.4451 68.5743 16.406 68.6727 16.3276C68.7809 16.2493 68.8301 16.1318 68.8301 15.9556C68.8301 15.8283 68.7907 15.7206 68.712 15.652C68.6235 15.5737 68.5054 15.5443 68.348 15.5443Z" fill="black"/>
<path d="M71.5356 17.424H70.6207L70.4141 18.0997H69.814L70.8076 15.0545H71.4077L72.3915 18.0997H71.7618L71.5356 17.424ZM70.7584 16.9443H71.4175L71.1027 15.9259H71.0634L70.7584 16.9443Z" fill="black"/>
<path d="M74.3498 17.0818H74.8318V17.9533C74.7433 18.0218 74.6154 18.0708 74.4777 18.1099C74.3301 18.1491 74.1825 18.1687 74.035 18.1687C73.8382 18.1687 73.6611 18.1393 73.484 18.0806C73.307 18.0218 73.1594 17.9337 73.0315 17.8064C72.9036 17.6791 72.7954 17.5127 72.7167 17.3168C72.638 17.121 72.5986 16.8664 72.5986 16.5825C72.5986 16.2789 72.6478 16.0341 72.7364 15.8285C72.8249 15.6229 72.943 15.4662 73.0807 15.3389C73.2184 15.2117 73.3758 15.1235 73.5529 15.0746C73.73 15.0256 73.8972 14.9962 74.0645 14.9962C74.2415 14.9962 74.3891 15.006 74.5072 15.0354C74.6252 15.0648 74.7236 15.0942 74.8023 15.1333V16.0439H74.3202V15.5446C74.2317 15.5348 74.1333 15.525 74.0448 15.525C73.9267 15.525 73.8284 15.5446 73.73 15.5837C73.6316 15.6229 73.5431 15.6914 73.4742 15.7796C73.4053 15.8677 73.3463 15.9754 73.307 16.1125C73.2676 16.2398 73.2479 16.3964 73.2479 16.5825C73.2479 16.7391 73.2676 16.886 73.307 17.0133C73.3463 17.1406 73.3955 17.2581 73.4742 17.3462C73.5431 17.4343 73.6316 17.5127 73.7398 17.5616C73.848 17.6106 73.9661 17.6399 74.094 17.6399C74.1924 17.6399 74.2809 17.6302 74.3694 17.6106V17.0818H74.3498Z" fill="black"/>
<path d="M76.1595 16.8268H75.8447V18.0997H75.2446V15.0545H75.8447V16.298H76.1595L76.858 15.0545H77.5368L76.6711 16.5232L77.645 18.0997H76.9072L76.1595 16.8268Z" fill="black"/>
<path d="M78.3125 17.2581C78.3125 17.1504 78.3322 17.0427 78.3617 16.9448C78.3912 16.8468 78.4404 16.7587 78.4994 16.6706C78.5584 16.5825 78.6175 16.5041 78.6863 16.4356C78.7552 16.3671 78.8339 16.2985 78.9028 16.2398C78.8142 16.1418 78.7454 16.0439 78.6962 15.9362C78.647 15.8285 78.6175 15.7208 78.6175 15.6131C78.6175 15.5446 78.6273 15.4662 78.6568 15.3977C78.6863 15.3194 78.7257 15.2606 78.7847 15.2019C78.8437 15.1431 78.9224 15.0942 79.0208 15.055C79.1192 15.0158 79.2373 14.9962 79.375 14.9962C79.5127 14.9962 79.6209 15.0158 79.7193 15.0452C79.8177 15.0746 79.8865 15.1235 79.9456 15.1725C80.0046 15.2215 80.0439 15.2802 80.0735 15.3487C80.103 15.4173 80.1128 15.4858 80.1128 15.5544C80.1128 15.6719 80.0636 15.7991 79.9751 15.9362C79.8865 16.0733 79.739 16.2006 79.5324 16.3181C79.6308 16.4748 79.739 16.6118 79.8472 16.7391C79.9554 16.8664 80.0735 16.9937 80.2014 17.121C80.2309 17.0818 80.2604 17.0427 80.2899 16.9839C80.3194 16.9252 80.3391 16.8664 80.3489 16.8077C80.3686 16.7489 80.3784 16.6804 80.3883 16.6216C80.3981 16.5629 80.3981 16.5041 80.3981 16.4454H80.8408C80.8408 16.6706 80.8015 16.8664 80.7424 17.0329C80.6834 17.1993 80.6145 17.3266 80.5457 17.405C80.585 17.4441 80.6244 17.4735 80.6736 17.5029C80.7228 17.5322 80.7818 17.5616 80.831 17.591V18.1491C80.7031 18.1197 80.585 18.0708 80.4768 18.0022C80.3686 17.9337 80.2801 17.8652 80.1915 17.7868C80.1423 17.8358 80.0833 17.8847 80.0243 17.9239C79.9652 17.9631 79.8964 18.0022 79.8177 18.0414C79.739 18.0708 79.6603 18.1001 79.5717 18.1197C79.4832 18.1393 79.375 18.1491 79.2668 18.1491C79.129 18.1491 79.0011 18.1295 78.8831 18.0904C78.765 18.0512 78.6667 17.9924 78.5781 17.9141C78.4896 17.8358 78.4305 17.7379 78.3814 17.6302C78.3322 17.5224 78.3125 17.3952 78.3125 17.2581ZM79.857 17.4539C79.7095 17.2972 79.5816 17.1504 79.4635 17.0035C79.3455 16.8566 79.2471 16.7195 79.1585 16.5825C79.07 16.6706 79.0011 16.7685 78.952 16.8664C78.9028 16.9643 78.8831 17.0818 78.8831 17.2091C78.8831 17.2875 78.8929 17.356 78.9224 17.405C78.952 17.4637 78.9815 17.5127 79.0208 17.5518C79.0602 17.591 79.1094 17.6204 79.1684 17.6497C79.2274 17.6693 79.2864 17.6791 79.3455 17.6791C79.4635 17.6791 79.5619 17.6595 79.6504 17.6106C79.739 17.5616 79.8078 17.5127 79.857 17.4539ZM79.1881 15.6327C79.1881 15.7502 79.2373 15.8873 79.3455 16.0244C79.4635 15.9558 79.5422 15.8873 79.5914 15.8187C79.6406 15.7502 79.6701 15.6914 79.6701 15.6327C79.6701 15.5642 79.6504 15.5054 79.6111 15.4662C79.5717 15.4271 79.5127 15.4075 79.4242 15.4075C79.3455 15.4075 79.2864 15.4271 79.2471 15.4662C79.2077 15.5152 79.1881 15.5739 79.1881 15.6327Z" fill="black"/>
<path d="M82.2881 17.6202H82.7898V15.5248H82.3668V16.0536H81.8848V15.045H84.2852V16.0536H83.8031V15.5248H83.3899V17.6202H83.8818V18.1H82.2881V17.6202Z" fill="black"/>
<path d="M84.6689 15.0841C84.7378 15.0743 84.8067 15.0645 84.8854 15.0547C84.9641 15.0449 85.0428 15.0352 85.1215 15.0352C85.2002 15.0254 85.2691 15.0254 85.3478 15.0254C85.4166 15.0254 85.4855 15.0254 85.5445 15.0254C85.6921 15.0254 85.8298 15.0352 85.9675 15.0645C86.1053 15.0939 86.2332 15.1429 86.3414 15.2016C86.4496 15.2701 86.5381 15.3583 86.607 15.4758C86.6759 15.5933 86.7054 15.7303 86.7054 15.8968C86.7054 16.0241 86.6955 16.1318 86.666 16.2199C86.6365 16.308 86.607 16.3962 86.5676 16.4647C86.5283 16.5332 86.4693 16.592 86.4102 16.641C86.3512 16.6899 86.2823 16.7389 86.2036 16.778L86.9415 18.1097H86.2528L85.633 16.9151H85.2789V18.0999H84.6788V15.0841H84.6689ZM85.5839 15.5443C85.5248 15.5443 85.4658 15.5443 85.4068 15.5443C85.3478 15.5443 85.2986 15.5541 85.269 15.5639V16.4451H85.5052C85.6724 16.4451 85.8101 16.406 85.9085 16.3276C86.0167 16.2493 86.0659 16.1318 86.0659 15.9556C86.0659 15.8283 86.0266 15.7206 85.9479 15.652C85.8593 15.5737 85.7413 15.5443 85.5839 15.5443Z" fill="black"/>
<path d="M88.7719 17.424H87.857L87.6504 18.0997H87.0503L88.0439 15.0545H88.644L89.6278 18.0997H88.9982L88.7719 17.424ZM87.9947 16.9443H88.6539L88.339 15.9259H88.2997L87.9947 16.9443Z" fill="black"/>
<path d="M91.5832 17.0818H92.0652V17.9533C91.9767 18.0218 91.8488 18.0708 91.711 18.1099C91.5635 18.1491 91.4159 18.1687 91.2683 18.1687C91.0716 18.1687 90.8945 18.1393 90.7174 18.0806C90.5404 18.0218 90.3928 17.9337 90.2649 17.8064C90.137 17.6791 90.0288 17.5127 89.9501 17.3168C89.8714 17.121 89.832 16.8664 89.832 16.5825C89.832 16.2789 89.8812 16.0341 89.9698 15.8285C90.0583 15.6229 90.1764 15.4662 90.3141 15.3389C90.4518 15.2117 90.6092 15.1235 90.7863 15.0746C90.9634 15.0256 91.1306 14.9962 91.2979 14.9962C91.4749 14.9962 91.6225 15.006 91.7406 15.0354C91.8586 15.0648 91.957 15.0942 92.0357 15.1333V16.0439H91.5536V15.5446C91.4651 15.5348 91.3667 15.525 91.2782 15.525C91.1601 15.525 91.0618 15.5446 90.9634 15.5837C90.865 15.6229 90.7765 15.6914 90.7076 15.7796C90.6387 15.8677 90.5797 15.9754 90.5404 16.1125C90.501 16.2398 90.4813 16.3964 90.4813 16.5825C90.4813 16.7391 90.501 16.886 90.5404 17.0133C90.5797 17.1406 90.6289 17.2581 90.7076 17.3462C90.7765 17.4343 90.865 17.5127 90.9732 17.5616C91.0814 17.6106 91.1995 17.6399 91.3274 17.6399C91.4258 17.6399 91.5143 17.6302 91.6028 17.6106V17.0818H91.5832Z" fill="black"/>
<path d="M92.5786 15.0545H94.5855V15.5832H93.1787V16.298H94.4773V16.8268H93.1787V17.5709H94.6052V18.0997H92.5786V15.0545Z" fill="black"/>
<path d="M64.7461 20.2832C64.7756 20.2832 64.815 20.2734 64.8838 20.2734C64.9527 20.2636 65.0216 20.2636 65.1101 20.2538C65.1888 20.2538 65.2773 20.244 65.3659 20.244C65.4544 20.244 65.5331 20.244 65.602 20.244C65.8774 20.244 66.0939 20.2832 66.2808 20.3615C66.4579 20.4398 66.5956 20.5475 66.7038 20.6846C66.812 20.8217 66.8809 20.9881 66.9202 21.1742C66.9596 21.3602 66.9793 21.5658 66.9793 21.7813C66.9793 21.9771 66.9596 22.1729 66.9202 22.3687C66.8809 22.5646 66.8022 22.731 66.7038 22.8779C66.5956 23.0248 66.448 23.1521 66.2611 23.2402C66.0742 23.3283 65.8283 23.3773 65.5331 23.3773C65.4839 23.3773 65.4249 23.3773 65.356 23.3773C65.2872 23.3773 65.2085 23.3675 65.1298 23.3675C65.0511 23.3675 64.9822 23.3577 64.9133 23.3577C64.8445 23.3577 64.7854 23.3479 64.7559 23.3381V20.2832H64.7461ZM65.6315 20.7629C65.5725 20.7629 65.5233 20.7629 65.4741 20.7727C65.4249 20.7727 65.3856 20.7825 65.356 20.7825V22.8289C65.3659 22.8289 65.3856 22.8387 65.4052 22.8387C65.4249 22.8387 65.4544 22.8387 65.4741 22.8387C65.5036 22.8387 65.5233 22.8387 65.543 22.8387C65.5626 22.8387 65.5823 22.8387 65.602 22.8387C65.7692 22.8387 65.907 22.8094 66.0053 22.7408C66.1037 22.6821 66.1824 22.5939 66.2316 22.496C66.2808 22.3981 66.3103 22.2806 66.33 22.1533C66.3398 22.026 66.3497 21.8987 66.3497 21.7715C66.3497 21.6638 66.3398 21.5463 66.33 21.4288C66.3201 21.3113 66.2906 21.2036 66.2414 21.1056C66.1922 21.0077 66.1234 20.9294 66.025 20.8609C65.9266 20.8021 65.7987 20.7629 65.6315 20.7629Z" fill="black"/>
<path d="M67.3921 22.7998H68.1693V20.8121H67.3921V20.2834H69.5466V20.8121H68.7694V22.7998H69.5466V23.3285H67.3921V22.7998Z" fill="black"/>
<path d="M71.2014 21.7424H72.2442V23.123C72.1458 23.2111 72.0179 23.2797 71.8605 23.3286C71.7031 23.3776 71.5359 23.3972 71.3686 23.3972C71.1719 23.3972 70.9948 23.3678 70.8177 23.2993C70.6505 23.2307 70.5029 23.1328 70.375 22.9957C70.2471 22.8586 70.1488 22.6922 70.0799 22.4964C70.011 22.3005 69.9717 22.0655 69.9717 21.8012C69.9717 21.5172 70.011 21.2822 70.0996 21.0864C70.1881 20.8906 70.2963 20.7241 70.4341 20.5968C70.5718 20.4695 70.7292 20.3814 70.8964 20.3227C71.0637 20.2639 71.2408 20.2345 71.408 20.2345C71.5851 20.2345 71.7326 20.2443 71.8409 20.2737C71.9589 20.3031 72.0671 20.3324 72.1557 20.3814V21.2822H71.6736V20.8024C71.6539 20.7926 71.6244 20.7926 71.6048 20.7828C71.5457 20.7731 71.4867 20.7633 71.408 20.7633C71.2899 20.7633 71.1817 20.7829 71.0735 20.822C70.9751 20.8612 70.8866 20.9297 70.8079 21.0081C70.7292 21.0962 70.68 21.2039 70.6308 21.341C70.5915 21.478 70.5718 21.6347 70.5718 21.8207C70.5718 21.9872 70.5915 22.1341 70.6308 22.2614C70.6702 22.3887 70.7292 22.5062 70.7981 22.5943C70.8669 22.6824 70.9555 22.7509 71.0538 22.7999C71.1522 22.8489 71.2604 22.8684 71.3785 22.8684C71.4572 22.8684 71.5261 22.8586 71.5851 22.8391C71.6441 22.8195 71.6933 22.7999 71.713 22.7901V22.183H71.1522V21.7424H71.2014Z" fill="black"/>
<path d="M72.646 22.7998H73.4232V20.8121H72.646V20.2834H74.8005V20.8121H74.0233V22.7998H74.8005V23.3285H72.646V22.7998Z" fill="black"/>
<path d="M75.5474 22.8491H76.0491V20.7537H75.6261V21.2824H75.144V20.2739H77.5445V21.2824H77.0624V20.7537H76.6492V22.8491H77.1411V23.3288H75.5474V22.8491Z" fill="black"/>
<path d="M79.4135 22.6529H78.4986L78.292 23.3285H77.6919L78.6855 20.2834H79.2856L80.2694 23.3285H79.6398L79.4135 22.6529ZM78.6363 22.1731H79.2955L78.9806 21.1548H78.9413L78.6363 22.1731Z" fill="black"/>
<path d="M82.1002 22.085H82.6413V23.3285H80.6245V20.2834H81.2246V22.7998H82.1002V22.085Z" fill="black"/>
<path d="M84.0771 22.3298H84.5592V22.7606C84.569 22.7606 84.5789 22.7704 84.5887 22.7704C84.6576 22.7998 84.7264 22.8194 84.8051 22.839C84.8838 22.8585 84.9724 22.8683 85.0609 22.8683C85.2282 22.8683 85.3561 22.839 85.4446 22.7704C85.5331 22.7019 85.5823 22.6138 85.5823 22.5061C85.5823 22.4081 85.543 22.3298 85.4741 22.2711C85.3954 22.2123 85.3069 22.1536 85.1987 22.1144C85.0904 22.0654 84.9724 22.0263 84.8445 21.9773C84.7166 21.9284 84.5986 21.8696 84.4903 21.8011C84.3821 21.7325 84.2936 21.6444 84.2149 21.5367C84.1362 21.429 84.1067 21.2919 84.1067 21.1157C84.1067 20.9884 84.1362 20.8611 84.1854 20.7534C84.2346 20.6457 84.3034 20.5478 84.4018 20.4694C84.4903 20.3911 84.6084 20.3323 84.7363 20.2834C84.8642 20.2442 85.0117 20.2148 85.1691 20.2148C85.3462 20.2148 85.5233 20.2344 85.6905 20.2638C85.8676 20.2932 85.9955 20.3421 86.1037 20.3911V21.2723H85.6217V20.7925C85.6118 20.7925 85.602 20.7925 85.5922 20.7925C85.5233 20.773 85.4544 20.7632 85.3856 20.7534C85.3069 20.7436 85.238 20.7338 85.1691 20.7338C85.0314 20.7338 84.9232 20.7632 84.8347 20.8121C84.756 20.8709 84.7166 20.9394 84.7166 21.0373C84.7166 21.1352 84.756 21.2136 84.8248 21.2723C84.9035 21.3311 84.9921 21.3898 85.1003 21.4388C85.2085 21.4877 85.3265 21.5367 85.4544 21.5857C85.5823 21.6346 85.7004 21.6934 85.8086 21.7619C85.9168 21.8304 86.0054 21.9186 86.0841 22.0263C86.1628 22.134 86.1923 22.2711 86.1923 22.4277C86.1923 22.5844 86.1628 22.7215 86.1037 22.839C86.0447 22.9565 85.966 23.0544 85.8578 23.1327C85.7496 23.211 85.6315 23.2698 85.484 23.309C85.3364 23.3481 85.1888 23.3677 85.0216 23.3677C84.9134 23.3677 84.8051 23.3579 84.7166 23.3383C84.6281 23.3187 84.5297 23.2992 84.451 23.2698C84.3723 23.2404 84.3034 23.2208 84.2346 23.1915C84.1755 23.1621 84.1263 23.1425 84.087 23.1131V22.3298H84.0771Z" fill="black"/>
<path d="M87.4424 22.2028L86.4487 20.2739H87.1669L87.7572 21.537H87.7768L88.3769 20.2739H89.0164L88.0326 22.193V23.319H87.4325V22.2028H87.4424Z" fill="black"/>
<path d="M89.3311 22.3298H89.8131V22.7606C89.8229 22.7606 89.8328 22.7704 89.8426 22.7704C89.9115 22.7998 89.9803 22.8194 90.059 22.839C90.1377 22.8585 90.2263 22.8683 90.3148 22.8683C90.4821 22.8683 90.61 22.839 90.6985 22.7704C90.787 22.7019 90.8362 22.6138 90.8362 22.5061C90.8362 22.4081 90.7969 22.3298 90.728 22.2711C90.6493 22.2123 90.5608 22.1536 90.4526 22.1144C90.3443 22.0654 90.2263 22.0263 90.0984 21.9773C89.9705 21.9284 89.8525 21.8696 89.7442 21.8011C89.636 21.7325 89.5475 21.6444 89.4688 21.5367C89.3901 21.429 89.3606 21.2919 89.3606 21.1157C89.3606 20.9884 89.3901 20.8611 89.4393 20.7534C89.4885 20.6457 89.5573 20.5478 89.6557 20.4694C89.7442 20.3911 89.8623 20.3323 89.9902 20.2834C90.1181 20.2442 90.2656 20.2148 90.423 20.2148C90.6001 20.2148 90.7772 20.2344 90.9444 20.2638C91.1215 20.2932 91.2494 20.3421 91.3576 20.3911V21.2723H90.8756V20.7925C90.8657 20.7925 90.8559 20.7925 90.8461 20.7925C90.7772 20.773 90.7083 20.7632 90.6395 20.7534C90.5608 20.7436 90.4919 20.7338 90.423 20.7338C90.2853 20.7338 90.1771 20.7632 90.0886 20.8121C90.0099 20.8709 89.9705 20.9394 89.9705 21.0373C89.9705 21.1352 90.0099 21.2136 90.0787 21.2723C90.1574 21.3311 90.246 21.3898 90.3542 21.4388C90.4624 21.4877 90.5805 21.5367 90.7083 21.5857C90.8362 21.6346 90.9543 21.6934 91.0625 21.7619C91.1707 21.8304 91.2593 21.9186 91.338 22.0263C91.4167 22.134 91.4462 22.2711 91.4462 22.4277C91.4462 22.5844 91.4167 22.7215 91.3576 22.839C91.2986 22.9565 91.2199 23.0544 91.1117 23.1327C91.0035 23.211 90.8854 23.2698 90.7379 23.309C90.5903 23.3481 90.4427 23.3677 90.2755 23.3677C90.1673 23.3677 90.0591 23.3579 89.9705 23.3383C89.8721 23.3187 89.7836 23.2992 89.7049 23.2698C89.6262 23.2404 89.5573 23.2208 89.4885 23.1915C89.4294 23.1621 89.3802 23.1425 89.3409 23.1131V22.3298H89.3311Z" fill="black"/>
<path d="M92.1944 22.8491H92.6961V20.7537H92.2731V21.2824H91.791V20.2739H94.1914V21.2824H93.7094V20.7537H93.2962V22.8491H93.7881V23.3288H92.1944V22.8491Z" fill="black"/>
<path d="M94.604 20.2834H96.6109V20.8121H95.2041V21.5269H96.5027V22.0556H95.2041V22.7998H96.6306V23.3285H94.604V20.2834Z" fill="black"/>
<path d="M98.7746 21.7036L98.7942 21.2336H98.7647L98.2728 22.0267H98.1646L97.653 21.2336H97.6334L97.6629 21.6644V23.3387H97.0923V20.2936H97.7022L98.2236 21.1356H98.2433L98.7647 20.2936H99.3648V23.3387H98.7647V21.7036H98.7746Z" fill="black"/>
</svg>
