<svg width="95" height="59" viewBox="0 0 95 59" fill="none" xmlns="http://www.w3.org/2000/svg">
<g clip-path="url(#clip0_651_8842)">
<path d="M19 57.6265V50.1104H25.0438V57.6265H23.569V51.5504H20.4748V57.6265H19Z" fill="#EB2316"/>
<path d="M30.7306 52.1523V57.6269H29.3641V55.7251C29.0993 55.7737 28.8163 55.8405 28.4792 55.8466L27.3475 57.6269H25.8125L27.1609 55.6583C26.4506 55.3545 26.0774 54.838 26.0774 54.0238C26.0774 52.9058 26.884 52.1523 28.4792 52.1523H30.7306ZM29.3641 53.3007H28.5274C27.8291 53.3007 27.48 53.5499 27.48 54.042C27.48 54.522 27.8171 54.7651 28.4973 54.7651C28.7983 54.7651 29.0872 54.7468 29.3641 54.6922V53.3007Z" fill="#EB2316"/>
<path d="M39.9734 52.6138C40.3948 53.0269 40.5995 53.5859 40.5995 54.3212V57.6326H39.1909V54.5885C39.1909 53.7561 38.7514 53.3125 38.1013 53.3125C37.391 53.3125 36.9034 53.8229 36.9034 54.631V57.6326H35.4948V54.5946C35.4948 53.7804 35.0674 53.3064 34.3992 53.3064C33.7129 53.3064 33.2133 53.8168 33.2133 54.631V57.6326H31.8047V52.152H33.1832V52.9358C33.4902 52.3646 34.1283 51.994 34.8386 52.0001C35.5189 52.0001 36.1449 52.3343 36.4339 52.9662C36.8312 52.3646 37.5716 52.0001 38.3782 52.0001C39.0344 52.0001 39.5641 52.2006 39.9734 52.6138Z" fill="#EB2316"/>
<path d="M52.6969 52.8441C53.2085 53.3971 53.4554 54.0837 53.4554 54.8857C53.4554 55.6878 53.1965 56.3744 52.6848 56.9273C52.1732 57.4802 51.5351 57.7597 50.7706 57.7597C50.1024 57.7597 49.4884 57.4681 49.067 56.9455V59.8803H47.6523V52.1515H49.0489V52.8685C49.4944 52.3094 50.0843 52.0117 50.7766 52.0117C51.5471 52.0117 52.1852 52.2912 52.6969 52.8441ZM51.6193 56.0098C51.8962 55.706 52.0407 55.3354 52.0407 54.8918C52.0407 54.4482 51.9023 54.0776 51.6193 53.7738C51.3364 53.47 50.9812 53.3242 50.5298 53.3242C50.0903 53.3242 49.7291 53.4761 49.4522 53.7738C49.1693 54.0776 49.0309 54.4482 49.0309 54.8918C49.0309 55.3354 49.1693 55.706 49.4522 56.0098C49.7291 56.3136 50.0903 56.4594 50.5298 56.4594C50.9812 56.4655 51.3364 56.3136 51.6193 56.0098Z" fill="#EB2316"/>
<path d="M54.7796 52.8446C55.3274 52.2795 56.0257 52 56.8745 52C57.7233 52 58.4216 52.2795 58.9693 52.8446C59.5171 53.3975 59.788 54.0841 59.788 54.8862C59.788 55.7004 59.5171 56.3809 58.9693 56.9338C58.4216 57.4867 57.7233 57.7662 56.8745 57.7662C56.0257 57.7662 55.3274 57.4867 54.7796 56.9338C54.2318 56.3809 53.9609 55.6943 53.9609 54.8862C53.9609 54.0841 54.2318 53.3975 54.7796 52.8446ZM56.8745 56.4538C57.3019 56.4538 57.651 56.3019 57.94 56.0042C58.2289 55.6943 58.3794 55.3236 58.3794 54.8862C58.3794 54.4548 58.2289 54.0841 57.94 53.7803C57.651 53.4765 57.3019 53.3307 56.8745 53.3307C56.4471 53.3307 56.0859 53.4826 55.797 53.7803C55.508 54.0841 55.3696 54.4548 55.3696 54.8862C55.3696 55.3176 55.508 55.6882 55.797 56.0042C56.0859 56.3019 56.4471 56.4538 56.8745 56.4538Z" fill="#EB2316"/>
<path d="M63.7498 52.1523H65.1584V57.6269H63.7498V55.7859C63.3404 56.0228 62.8889 56.1444 62.5398 56.1444C61.8897 56.1444 61.4141 56.0228 60.9807 55.7312C60.5533 55.4213 60.3125 54.838 60.3125 53.9934V52.1523H61.7091V53.8901C61.7091 54.5342 62.0402 54.8562 62.6963 54.8562C63.0635 54.8562 63.3826 54.8015 63.7437 54.6557V52.1523H63.7498Z" fill="#EB2316"/>
<path d="M69.808 57.6271L67.6469 55.0995V57.6271H66.2383V52.1465H67.6469V54.3157L69.6214 52.1526H71.3972L68.9712 54.6924L71.5356 57.6271H69.808Z" fill="#EB2316"/>
<path d="M75.6571 52.1517H76.9935V57.6323H75.6571V56.9032C75.1875 57.4744 74.6096 57.7599 73.9174 57.7599C73.1408 57.7599 72.4907 57.4865 71.985 56.9336C71.4734 56.3807 71.2266 55.688 71.2266 54.8616C71.2266 54.0353 71.4854 53.3548 71.9971 52.8201C72.5088 52.2793 73.1529 52.0059 73.9234 52.0059C74.6036 52.0059 75.1996 52.3157 75.6631 52.8626V52.1517H75.6571ZM75.2417 53.7679C74.9528 53.4581 74.5916 53.3061 74.1521 53.3061C73.7007 53.3061 73.3455 53.4581 73.0566 53.7679C72.7797 54.0778 72.6352 54.4485 72.6352 54.8859C72.6352 55.3295 72.7736 55.7001 73.0626 56.01C73.3515 56.3199 73.7127 56.4718 74.1521 56.4718C74.5916 56.4718 74.9528 56.3199 75.2417 56.01C75.5307 55.7001 75.6812 55.3295 75.6812 54.8859C75.6812 54.4545 75.5307 54.0839 75.2417 53.7679Z" fill="#EB2316"/>
<path d="M46.8401 55.3905H42.7587C42.9574 56.1622 43.4871 56.5571 44.3479 56.5571C44.9378 56.5571 45.594 56.3384 46.0876 55.9373L46.6535 56.8366C45.9672 57.4868 45.1847 57.7541 44.2877 57.7541C43.3306 57.7541 42.6022 57.4746 42.0905 56.9217C41.5788 56.3687 41.332 55.6882 41.332 54.8923C41.332 54.0598 41.5909 53.3732 42.1206 52.8324C42.6504 52.2917 43.3306 52.0182 44.1673 52.0182C44.9559 52.0182 45.6121 52.2674 46.1237 52.7595C46.6354 53.2517 46.8943 53.914 46.8943 54.7707C46.8882 54.9591 46.8642 55.1657 46.8401 55.3905ZM43.168 49.9524C43.6376 49.9524 44.0048 50.323 44.0048 50.7787C44.0048 51.2709 43.6436 51.6354 43.168 51.6354C42.6865 51.6354 42.3313 51.277 42.3313 50.7787C42.3253 50.323 42.6985 49.9524 43.168 49.9524ZM42.7587 54.3332H45.5218C45.3953 53.6223 44.8837 53.1849 44.1673 53.1849C43.457 53.1849 42.9273 53.6223 42.7587 54.3332ZM44.4924 50.7726C44.4924 50.2987 44.8596 49.9463 45.3412 49.9463C45.8107 49.9463 46.1719 50.3169 46.1719 50.7726C46.1719 51.2648 45.8107 51.6294 45.3412 51.6294C44.8596 51.6294 44.4924 51.2709 44.4924 50.7726Z" fill="#EB2316"/>
<path d="M47.9894 -0.880859C35.4684 -0.880859 25.2891 9.39994 25.2891 22.0322C25.2891 34.6644 35.4744 44.9452 47.9894 44.9452C60.5044 44.9452 70.6898 34.6644 70.6898 22.0322C70.6898 9.39994 60.5044 -0.880859 47.9894 -0.880859Z" fill="white"/>
<path d="M60.4366 6.33131C57.6615 13.6105 50.2933 12.6687 45.0983 12.851L43.8342 17.8152C50.2452 12.5411 58.7149 17.7726 57.812 25.7263C57.204 31.0854 53.4176 34.5913 49.4144 35.6C45.0501 36.6998 40.2163 35.0531 38.0492 30.5689C37.8205 30.095 37.4171 29.1471 37.2667 28.6367L41.8657 27.4458C41.944 27.7132 42.0824 27.9744 42.2269 28.2053C45.309 33.2181 51.5454 30.7087 52.2558 25.5075C52.9721 20.2152 45.616 17.3959 42.263 23.5814L38.1816 21.8254L38.1094 21.795L39.6264 15.6399C39.8672 14.5462 40.5895 11.6844 40.6738 11.4109C40.8062 10.9856 40.8303 10.8398 40.9808 10.4509C43.6054 3.51806 48.7764 2.81931 53.3694 2.81931C53.556 2.81931 53.7366 2.81931 53.9172 2.82539C52.0451 2.236 50.0525 1.92004 47.9878 1.92004C36.9837 1.92004 28.0625 10.9249 28.0625 22.032C28.0625 33.1391 36.9837 42.144 47.9878 42.144C58.9918 42.144 67.913 33.1391 67.913 22.032C67.913 15.6825 64.9935 10.0195 60.4366 6.33131Z" fill="#EB2316"/>
<path d="M58.6263 4.97656C57.8558 7.40093 56.5073 8.91996 54.4245 9.74024C52.2574 10.5909 49.6208 10.6152 47.0684 10.6334C45.6959 10.6456 44.3836 10.6577 43.1797 10.8036C45.3468 5.52341 49.2295 5.00694 53.3771 5.00694C53.955 5.00694 54.5329 5.0191 55.0927 5.03125C55.6525 5.0434 56.1823 5.05555 56.706 5.05555C57.4524 5.04948 58.0725 5.02517 58.6263 4.97656Z" fill="#008F32"/>
</g>
<defs>
<clipPath id="clip0_651_8842">
<rect width="95" height="59" fill="white"/>
</clipPath>
</defs>
</svg>
