<svg width="33" height="33" viewBox="0 0 33 33" fill="none" xmlns="http://www.w3.org/2000/svg">
<path d="M28.5758 14.1659H22.1465V16.1898H23.6922V18.9601H27.0301V16.1898H28.5758V14.1659Z" fill="black"/>
<path d="M19.176 11.6759C21.0719 11.6759 23.562 12.4125 25.3106 13.5597V9.59395C22.5597 7.98541 19.1059 7 16.0193 7C8.01526 7 4.42383 11.2508 4.42383 16.4942C4.42383 21.7401 7.98628 25.9909 16.0217 25.9909C19.1059 25.9909 22.5597 25.0055 25.3131 23.3969V19.6364C23.6973 20.6991 21.3835 21.3754 19.1784 21.3754C16.5313 21.3754 14.3866 19.2041 14.3866 16.5256C14.3866 13.8471 16.5313 11.6759 19.176 11.6759ZM10.1576 17.8516C9.89913 17.8516 9.65036 17.8202 9.40884 17.767V15.8083C9.62863 15.9363 9.88464 16.0136 10.1576 16.0136C10.9763 16.0136 11.6381 15.3494 11.6381 14.5331C11.6381 13.7167 10.9739 13.0525 10.1576 13.0525C9.34121 13.0525 8.6722 13.7167 8.6722 14.5331C8.6722 14.5331 8.6722 20.2716 8.6722 21.827C7.23756 21.827 6.83422 20.4431 6.83422 20.4431V14.5282C6.83422 12.6927 8.32199 11.2073 10.1551 11.2073C11.9907 11.2073 13.4761 12.6951 13.4761 14.5282C13.4809 16.3638 11.9931 17.8516 10.1576 17.8516Z" fill="black"/>
</svg>
