<svg width="87" height="59" viewBox="0 0 87 59" fill="none" xmlns="http://www.w3.org/2000/svg">
<path fill-rule="evenodd" clip-rule="evenodd" d="M59.6992 27.1855H47.293C45.2416 27.1855 44.3181 27.7585 43.934 28.9373L42.7734 32.7191H55.1796C57.231 32.7191 58.1545 32.1461 58.5386 30.9674L59.6992 27.1855Z" fill="#00A952"/>
<path fill-rule="evenodd" clip-rule="evenodd" d="M17.1367 24.0339H14.7993C10.1 24.0339 6.09535 35.8623 11.6283 35.846H15.1916C17.243 35.846 18.7631 36.5909 18.0929 38.6046L17.1694 41.3713H13.3936L10.3207 41.3468C6.39774 41.314 3.8642 39.3822 2.94885 36.4435C1.95178 33.2756 3.35749 26.6697 7.40299 22.4295C9.74856 19.9738 13.0013 18.4922 17.1694 18.4922H24.8763L23.6667 21.9629C22.8903 24.2058 21.2885 24.0339 20.3895 24.0339H17.1367Z" fill="#00A952"/>
<path fill-rule="evenodd" clip-rule="evenodd" d="M56.6761 35.8623H44.2699C42.2185 35.8623 41.2868 36.4353 40.9109 37.6141L39.7422 41.3877H52.1484C54.1997 41.3877 55.1314 40.8147 55.5074 39.6359L56.6761 35.8623ZM62.5768 18.5167H50.1706C48.1192 18.5167 47.1875 19.0897 46.8116 20.2685L45.6511 24.0421H58.0573C60.1086 24.0421 61.0403 23.4691 61.4163 22.2904L62.5768 18.5167Z" fill="#00A952"/>
<path fill-rule="evenodd" clip-rule="evenodd" d="M31.3813 24.026H34.4788C37.1185 24.026 36.5138 27.3248 35.1734 30.5418C33.9966 33.3659 31.9207 35.8789 29.4444 35.8789H24.2955C22.2442 35.8789 21.2961 36.4519 20.8957 37.6307L19.6289 41.3961H23.3965L27.0824 41.3634C30.3597 41.3388 33.0322 41.1014 36.1705 38.2692C39.4805 35.2732 43.338 27.5213 42.676 23.0519C42.1611 19.5402 40.2814 18.5088 35.7128 18.5088H27.4093L22.5711 32.7029H25.644C27.4666 32.7029 28.3982 32.7274 29.3626 30.108L31.3813 24.026Z" fill="#00A952"/>
<path fill-rule="evenodd" clip-rule="evenodd" d="M57.625 41.3877H63.4767L65.9857 34.1843L68.601 31.9741L70.6687 38.49C71.3061 40.5037 71.96 41.3877 73.3984 41.3877H77.8852L73.2594 28.6016L84.3662 18.4922H77.1905L70.448 25.6956C69.6634 26.5306 68.8625 27.3573 68.0779 28.3478H68.0125L71.3552 18.4922H65.5035L57.625 41.3877Z" fill="#00A952"/>
</svg>
