<svg width="20" height="20" viewBox="0 0 20 20" fill="none" xmlns="http://www.w3.org/2000/svg">
<path d="M10.8331 2.06809C10.3878 1.84736 9.87303 1.81248 9.40199 1.97112C8.93095 2.12975 8.54218 2.46892 8.32111 2.91409L6.6891 6.17109L3.0731 6.68709C2.72394 6.73578 2.39559 6.88191 2.12571 7.10872C1.85582 7.33553 1.65535 7.63383 1.54729 7.96939C1.43923 8.30495 1.42796 8.66418 1.51477 9.00586C1.60158 9.34754 1.78296 9.65782 2.0381 9.9011L4.6351 12.3901L4.0191 15.9241C3.95808 16.2688 3.99478 16.6237 4.12505 16.9486C4.25531 17.2736 4.47393 17.5555 4.75616 17.7626C5.03839 17.9697 5.37296 18.0937 5.72199 18.1204C6.07103 18.1472 6.42059 18.0757 6.7311 17.9141L10.0001 16.2261L13.2671 17.9141C13.5777 18.0763 13.9275 18.1482 14.2769 18.1217C14.6262 18.0952 14.9612 17.9713 15.2437 17.7642C15.5263 17.557 15.7451 17.2748 15.8755 16.9495C16.0058 16.6243 16.0424 16.2691 15.9811 15.9241L15.3641 12.3891L17.9601 9.9001H17.9611C18.2159 9.6569 18.3971 9.34686 18.4838 9.00548C18.5705 8.6641 18.5594 8.30519 18.4515 7.96986C18.3437 7.63454 18.1437 7.33637 17.8742 7.1095C17.6048 6.88263 17.2769 6.73623 16.9281 6.68709L13.3111 6.17009L11.6801 2.91509C11.4978 2.54811 11.2003 2.24996 10.8331 2.06809Z" fill="url(#paint0_linear_2061_7187)"/>
<defs>
<linearGradient id="paint0_linear_2061_7187" x1="-1.68252" y1="34.3811" x2="22.2292" y2="30.8254" gradientUnits="userSpaceOnUse">
<stop stop-color="#108AEE"/>
<stop offset="0.610352" stop-color="#DC8CE1"/>
<stop offset="1" stop-color="#FF408E"/>
</linearGradient>
</defs>
</svg>
