<svg width="278" height="59" viewBox="0 0 278 59" fill="none" xmlns="http://www.w3.org/2000/svg">
<path d="M53.3964 45.4276H49.9802V41.2369H40.5176V45.4276H37.1015V38.0303H38.2288C38.5932 37.2528 38.8892 36.3297 39.117 35.2609C39.3447 34.1677 39.5269 33.0137 39.6635 31.7991C39.8001 30.5843 39.8913 29.3454 39.9369 28.0822C39.9824 26.8189 40.0052 25.6163 40.0052 24.4745V22.9076H51.5858V38.0303H53.3964V45.4276ZM14.2818 19.3365H12.4371C10.729 19.3365 9.44228 19.7495 8.57687 20.5755C7.71144 21.4014 7.27873 22.4946 7.27873 23.8551C7.27873 24.6324 7.35844 25.3127 7.51787 25.8958C7.67728 26.4545 7.90502 26.9768 8.20109 27.4626C8.51992 27.9485 8.90709 28.4101 9.36257 28.8474C9.84083 29.2603 10.3988 29.6977 11.0365 30.1592L13.1203 31.6532L7.10793 41.2369H2.63281L8.03028 32.6735C7.25596 32.0905 6.56135 31.4954 5.94644 30.888C5.35432 30.2807 4.85329 29.6369 4.44336 28.9567C4.03342 28.2764 3.71458 27.5477 3.48684 26.7702C3.28188 25.9686 3.17939 25.0819 3.17939 24.1101C3.17939 22.8955 3.37297 21.7901 3.76013 20.7941C4.17007 19.7738 4.7622 18.9114 5.53651 18.2069C6.31084 17.4781 7.26735 16.9193 8.40606 16.5306C9.56754 16.1176 10.8998 15.9111 12.4029 15.9111H18.4152V41.2369H14.2818V19.3365ZM58.5889 33.5117C58.6572 35.1636 59.0216 36.3904 59.682 37.1921C60.3425 37.9938 61.4584 38.3947 63.0299 38.3947C63.9864 38.3947 64.9314 38.2246 65.8652 37.8845C66.8217 37.5201 67.6074 37.1193 68.2223 36.682V39.998C67.6302 40.4353 66.8786 40.8119 65.9677 41.1276C65.0567 41.4435 63.9636 41.6014 62.6882 41.6014C60.1375 41.6014 58.1675 40.8241 56.7783 39.2692C55.4119 37.7144 54.7287 35.3336 54.7287 32.127C54.7287 30.7423 54.8653 29.4669 55.1385 28.3008C55.4346 27.1347 55.8788 26.1266 56.4709 25.2762C57.063 24.4016 57.8031 23.7336 58.6913 23.272C59.6023 22.7862 60.6613 22.5432 61.8683 22.5432C62.8476 22.5432 63.7358 22.7011 64.5329 23.017C65.3528 23.3328 66.0474 23.8429 66.6167 24.5475C67.1862 25.252 67.6188 26.163 67.9149 27.2805C68.2337 28.3737 68.3931 29.7219 68.3931 31.3253V33.5117H58.5889ZM35.0518 22.9076V41.2369H31.3282V33.4753H25.555V41.2369H21.8314V22.9076H25.555V30.2685H31.3282V22.9076H35.0518ZM75.1912 32.0177V41.2369H71.4676V22.9076H75.1912V31.7626L81.2035 22.9076H85.0979L79.2564 31.5075L85.8495 41.2369H81.4769L75.1912 32.0177ZM93.809 41.6014C91.1217 41.6014 89.1289 40.7875 87.8308 39.1599C86.5554 37.5322 85.9178 35.1758 85.9178 32.0905C85.9178 30.7058 86.0772 29.4304 86.3961 28.2644C86.7377 27.0739 87.2274 26.0658 87.865 25.2398C88.5254 24.3896 89.334 23.7336 90.2905 23.272C91.247 22.7862 92.363 22.5432 93.6382 22.5432C94.6176 22.5432 95.4602 22.6283 96.1662 22.7983C96.8722 22.9441 97.4301 23.1506 97.84 23.4178V26.9161C97.4529 26.6488 96.9178 26.3937 96.2345 26.1508C95.5513 25.9078 94.8339 25.7864 94.0824 25.7864C92.6932 25.7864 91.6227 26.3087 90.8712 27.3533C90.1424 28.3737 89.778 29.9163 89.778 31.9812C89.778 33.9489 90.1083 35.5037 90.7687 36.6456C91.4291 37.7873 92.5223 38.3582 94.0481 38.3582C94.868 38.3582 95.5741 38.2489 96.1662 38.0303C96.7812 37.7873 97.339 37.4836 97.84 37.1193V40.4718C97.3618 40.8361 96.7925 41.1156 96.1321 41.3099C95.4943 41.5042 94.72 41.6014 93.809 41.6014ZM47.8623 26.1144H43.2846V26.8797C43.2846 27.6813 43.2618 28.5801 43.2163 29.5762C43.1708 30.5722 43.091 31.5803 42.9772 32.6007C42.8633 33.621 42.704 34.6049 42.4989 35.5524C42.3168 36.4998 42.0777 37.3258 41.7816 38.0303H47.8623V26.1144ZM61.8 25.75C60.7525 25.75 59.9667 26.163 59.4429 26.989C58.9191 27.7906 58.6344 28.9688 58.5889 30.5237H64.6012V30.0499C64.6012 29.4425 64.5557 28.8838 64.4646 28.3737C64.3735 27.8392 64.214 27.3776 63.9864 26.989C63.7813 26.6002 63.4967 26.2966 63.1323 26.0779C62.7907 25.8593 62.3466 25.75 61.8 25.75Z" fill="black"/>
<path d="M143.918 46.4523V37.7628H145.522C146.068 36.7934 146.454 35.3997 146.682 33.5817C146.931 31.7396 147.113 29.3159 147.227 26.3103L147.569 15.9121H161.487V37.7628H163.705V46.4523H159.85V41.1805H147.773V46.4523H143.918ZM151.117 26.892C151.071 28.3948 151.002 29.7279 150.912 30.8913C150.821 32.0547 150.707 33.0727 150.571 33.9454C150.457 34.8179 150.32 35.5693 150.162 36.1995C150.002 36.8054 149.831 37.3266 149.65 37.7628H157.359V19.3297H151.356L151.117 26.892Z" fill="black"/>
<path d="M173.003 22.5283C174.117 22.5283 175.141 22.7343 176.073 23.1464C177.005 23.5585 177.802 24.1766 178.461 25.0007C179.12 25.8005 179.632 26.7943 179.996 27.9819C180.383 29.1454 180.576 30.4906 180.576 32.0176C180.576 33.5446 180.383 34.9019 179.996 36.0896C179.632 37.2772 179.12 38.2832 178.461 39.1072C177.802 39.9071 177.005 40.5131 176.073 40.9251C175.141 41.3372 174.117 41.5432 173.003 41.5432C171.889 41.5432 170.865 41.3372 169.932 40.9251C169 40.5131 168.204 39.9071 167.545 39.1072C166.885 38.2832 166.362 37.2894 165.976 36.1259C165.611 34.9383 165.43 33.5809 165.43 32.0539C165.43 30.5269 165.611 29.1696 165.976 27.9819C166.362 26.7943 166.885 25.8005 167.545 25.0007C168.204 24.1766 169 23.5585 169.932 23.1464C170.865 22.7343 171.889 22.5283 173.003 22.5283ZM173.003 38.1256C174.139 38.1256 174.981 37.6409 175.527 36.6713C176.096 35.7018 176.38 34.1505 176.38 32.0176C176.38 29.8846 176.096 28.3455 175.527 27.4002C174.981 26.4306 174.139 25.9459 173.003 25.9459C171.866 25.9459 171.013 26.4306 170.444 27.4002C169.898 28.3697 169.625 29.921 169.625 32.0539C169.625 34.1869 169.898 35.7382 170.444 36.7077C171.013 37.6529 171.866 38.1256 173.003 38.1256Z" fill="black"/>
<path d="M190.672 41.5432C187.943 41.5432 185.919 40.7313 184.599 39.1072C183.28 37.4833 182.621 35.1323 182.621 32.0539C182.621 30.6724 182.78 29.3999 183.098 28.2364C183.439 27.0487 183.94 26.0429 184.599 25.2188C185.282 24.3704 186.112 23.716 187.09 23.2555C188.067 22.7707 189.205 22.5283 190.502 22.5283C191.525 22.5283 192.4 22.6132 193.129 22.7828C193.856 22.9283 194.436 23.1343 194.867 23.4009V27.0729C194.458 26.8063 193.901 26.5519 193.196 26.3095C192.491 26.0671 191.741 25.9459 190.945 25.9459C189.602 25.9459 188.579 26.4549 187.875 27.4729C187.169 28.4666 186.817 29.9574 186.817 31.9449C186.817 33.8355 187.135 35.3382 187.772 36.4532C188.408 37.5682 189.455 38.1256 190.911 38.1256C191.775 38.1256 192.513 38.0166 193.129 37.7984C193.765 37.5802 194.345 37.2772 194.867 36.8895V40.4161C193.89 41.1675 192.491 41.5432 190.672 41.5432Z" fill="black"/>
<path d="M205.406 26.3092V41.1794H201.346V26.3092H196.57V22.8916H210.181V26.3092H205.406Z" fill="black"/>
<path d="M221.355 32.8544H220.775C219.024 32.8544 217.773 33.0724 217.022 33.5087C216.272 33.9208 215.896 34.648 215.896 35.6902C215.896 36.4659 216.101 37.096 216.51 37.5808C216.943 38.0413 217.591 38.2715 218.455 38.2715C219.183 38.2715 219.786 38.1382 220.263 37.8716C220.741 37.5808 221.105 37.2293 221.355 36.8173V32.8544ZM225.415 36.7082C225.415 38.211 225.483 39.7016 225.619 41.1802H221.662C221.594 40.9862 221.526 40.756 221.457 40.4894C221.411 40.2228 221.378 39.9682 221.355 39.7259H221.184C220.798 40.1622 220.297 40.5621 219.683 40.9256C219.069 41.265 218.171 41.4346 216.988 41.4346C215.419 41.4346 214.145 40.9378 213.167 39.944C212.212 38.9502 211.734 37.5201 211.734 35.6538C211.734 33.7875 212.451 32.3454 213.883 31.3274C215.316 30.2851 217.591 29.764 220.707 29.764H221.355V28.746C221.355 27.7522 221.127 27.0614 220.673 26.6735C220.218 26.2616 219.502 26.0555 218.523 26.0555C218 26.0555 217.466 26.1161 216.92 26.2373C216.374 26.3343 215.851 26.4676 215.35 26.6373C214.873 26.8069 214.418 27.0008 213.986 27.219C213.576 27.4371 213.235 27.6553 212.962 27.8734V24.274C213.576 23.8861 214.395 23.5105 215.419 23.1469C216.442 22.7833 217.636 22.6016 219.001 22.6016C221.161 22.6016 222.765 23.0621 223.811 23.9832C224.88 24.9042 225.415 26.4797 225.415 28.7096V36.7082Z" fill="black"/>
<path d="M235.84 22.8916C239.639 22.8916 241.537 24.4429 241.537 27.5454C241.537 28.6361 241.264 29.5329 240.718 30.2357C240.196 30.9145 239.468 31.3992 238.535 31.6901C239.695 31.884 240.594 32.3324 241.23 33.0353C241.867 33.7139 242.185 34.6592 242.185 35.8712C242.185 37.6163 241.617 38.9374 240.48 39.8341C239.366 40.731 237.796 41.1794 235.773 41.1794H228.676V22.8916H235.84ZM232.634 33.3988V37.9799H235.43C236.249 37.9799 236.897 37.7981 237.375 37.4346C237.853 37.0467 238.092 36.4286 238.092 35.5803C238.092 34.8047 237.865 34.2473 237.409 33.9078C236.955 33.5685 236.295 33.3988 235.43 33.3988H232.634ZM232.634 26.091V30.2357H235.227C235.999 30.2357 236.59 30.054 237 29.6905C237.432 29.3268 237.648 28.83 237.648 28.1997C237.648 26.794 236.886 26.091 235.362 26.091H232.634Z" fill="black"/>
<path d="M248.962 32.3445V41.1794H244.902V22.8916H248.962V31.4719L254.694 22.8916H258.788L253.056 31.4719L259.571 41.1794H254.967L248.962 32.3445Z" fill="black"/>
<path d="M270.229 32.8544H269.649C267.898 32.8544 266.647 33.0724 265.897 33.5087C265.146 33.9208 264.771 34.648 264.771 35.6902C264.771 36.4659 264.975 37.096 265.385 37.5808C265.817 38.0413 266.466 38.2715 267.33 38.2715C268.057 38.2715 268.66 38.1382 269.138 37.8716C269.615 37.5808 269.98 37.2293 270.229 36.8173V32.8544ZM274.289 36.7082C274.289 38.211 274.358 39.7016 274.494 41.1802H270.536C270.468 40.9862 270.4 40.756 270.332 40.4894C270.286 40.2228 270.253 39.9682 270.229 39.7259H270.059C269.673 40.1622 269.172 40.5621 268.558 40.9256C267.944 41.265 267.046 41.4346 265.862 41.4346C264.293 41.4346 263.02 40.9378 262.041 39.944C261.086 38.9502 260.609 37.5201 260.609 35.6538C260.609 33.7875 261.325 32.3454 262.758 31.3274C264.191 30.2851 266.466 29.764 269.581 29.764H270.229V28.746C270.229 27.7522 270.002 27.0614 269.547 26.6735C269.093 26.2616 268.376 26.0555 267.398 26.0555C266.875 26.0555 266.34 26.1161 265.794 26.2373C265.248 26.3343 264.726 26.4676 264.225 26.6373C263.747 26.8069 263.293 27.0008 262.86 27.219C262.451 27.4371 262.11 27.6553 261.837 27.8734V24.274C262.451 23.8861 263.27 23.5105 264.293 23.1469C265.317 22.7833 266.511 22.6016 267.875 22.6016C270.036 22.6016 271.639 23.0621 272.686 23.9832C273.754 24.9042 274.289 26.4797 274.289 28.7096V36.7082Z" fill="black"/>
<mask id="mask0_651_8809" style="mask-type:luminance" maskUnits="userSpaceOnUse" x="105" y="12" width="33" height="35">
<path d="M121.357 12.3281C130.194 12.3281 137.358 19.5218 137.358 28.3955V30.3838C137.358 39.2576 130.194 46.4512 121.357 46.4512C112.519 46.4512 105.355 39.2576 105.355 30.3838V28.3955C105.355 19.5218 112.519 12.3281 121.357 12.3281Z" fill="white"/>
</mask>
<g mask="url(#mask0_651_8809)">
<path d="M121.357 12.3281C130.194 12.3281 137.358 19.5218 137.358 28.3955V30.3838C137.358 39.2576 130.194 46.4512 121.357 46.4512C112.519 46.4512 105.355 39.2576 105.355 30.3838V28.3955C105.355 19.5218 112.519 12.3281 121.357 12.3281Z" fill="#E6E6E6"/>
<mask id="mask1_651_8809" style="mask-type:luminance" maskUnits="userSpaceOnUse" x="104" y="14" width="29" height="31">
<path d="M132.24 14.5459H104.238V44.4036H132.24V14.5459Z" fill="white"/>
</mask>
<g mask="url(#mask1_651_8809)">
<path d="M104.238 19.9203L118.239 14.5459L132.24 19.9203V39.0293L118.239 44.4035L104.238 39.0293V19.9203Z" fill="#FF7751"/>
<path d="M104.238 19.9209L118.239 25.2952V44.4042L104.238 39.0298V19.9209Z" fill="#E13100"/>
<path d="M132.239 19.9209L118.238 25.2952V44.4042L132.239 39.0298V19.9209Z" fill="#FC4714"/>
<path d="M130.701 35.6059C127.696 38.7108 122.874 40.4868 119.781 39.8447V38.1641C122.811 38.8233 127.673 37.2138 130.701 33.9265V35.6059ZM124.497 30.7019L123.505 31.0885V35.5938L121.022 36.5568V32.0526L120.028 32.4358L122.263 25.9356L124.497 30.7019ZM130.454 28.3904L129.461 28.7769V33.2811L126.979 34.2442V29.7388L125.986 30.1243L128.22 23.624L130.454 28.3904Z" fill="white"/>
</g>
</g>
</svg>
