<svg width="35" height="35" viewBox="0 0 35 35" fill="none" xmlns="http://www.w3.org/2000/svg">
<path d="M14.1521 12.5044L14.8595 15.0648C15.5263 17.4786 15.8598 18.6856 16.8402 19.2347C17.8204 19.7836 19.0649 19.4602 21.5537 18.8134L24.1935 18.1274C26.6824 17.4806 27.9268 17.1572 28.4929 16.2062C29.0588 15.2554 28.7254 14.0485 28.0585 11.6346L27.3512 9.07423C26.6843 6.66032 26.3509 5.45336 25.3705 4.90439C24.3901 4.35542 23.1456 4.67883 20.6569 5.32563L18.017 6.01168C15.5281 6.65848 14.2838 6.98188 13.7177 7.93273C13.1517 8.88357 13.4852 10.0905 14.1521 12.5044Z" fill="url(#paint0_linear_2115_4240)"/>
<path d="M4.13155 7.71478C4.28382 7.16598 4.85216 6.84452 5.40096 6.99678L7.74355 7.64672C9.00427 7.99651 10.002 8.9684 10.35 10.2282L13.3077 20.934L13.5254 21.6856C14.3959 22.0105 15.1437 22.6193 15.6182 23.428L16.0444 23.2964L28.2408 20.1269C28.7921 19.9836 29.3551 20.3143 29.4984 20.8655C29.6417 21.4167 29.3108 21.9797 28.7596 22.1229L16.6083 25.2809L16.1564 25.4205C16.1471 27.168 14.9414 28.764 13.117 29.2381C10.9301 29.8064 8.68225 28.5478 8.09627 26.4267C7.5103 24.3056 8.80809 22.1254 10.995 21.5571C11.1034 21.5289 11.2119 21.5053 11.3203 21.4859L8.36201 10.7774C8.21314 10.2386 7.77733 9.7965 7.19215 9.63414L4.84956 8.98421C4.30074 8.83194 3.97928 8.2636 4.13155 7.71478Z" fill="url(#paint1_linear_2115_4240)"/>
<defs>
<linearGradient id="paint0_linear_2115_4240" x1="10.6087" y1="34.403" x2="32.112" y2="31.2664" gradientUnits="userSpaceOnUse">
<stop stop-color="#108AEE"/>
<stop offset="0.610352" stop-color="#DC8CE1"/>
<stop offset="1" stop-color="#FF408E"/>
</linearGradient>
<linearGradient id="paint1_linear_2115_4240" x1="-0.5809" y1="51.7902" x2="34.8954" y2="46.0945" gradientUnits="userSpaceOnUse">
<stop stop-color="#108AEE"/>
<stop offset="0.610352" stop-color="#DC8CE1"/>
<stop offset="1" stop-color="#FF408E"/>
</linearGradient>
</defs>
</svg>
