<svg width="35" height="35" viewBox="0 0 35 35" fill="none" xmlns="http://www.w3.org/2000/svg">
<path d="M30.9844 4.10378C28.7104 3.7559 26.5701 5.09278 25.8227 7.18053H23.0703V9.54921H25.6267C25.9524 11.51 27.4826 13.1339 29.5551 13.4515C32.135 13.8462 34.5477 12.0738 34.944 9.49265C35.3381 6.9114 33.5657 4.49853 30.9844 4.10378Z" fill="white"/>
<path d="M13.1631 23.1396C13.1631 22.7096 12.8145 22.3604 12.3838 22.3604H9.00966C8.57897 22.3604 8.23047 22.7096 8.23047 23.1396C8.23047 23.5689 8.57897 23.9188 9.00966 23.9188H12.3839C12.8145 23.9188 13.1631 23.5689 13.1631 23.1396Z" fill="white"/>
<path d="M27.5624 16.8736L20.7671 23.279L18.3942 23.8664V18.4527H3V31.9524H18.3942V28.2366L20.6159 27.8783C21.6753 27.7272 22.4531 27.4601 23.3869 26.9397L26.2808 25.4254V31.9524H34.5579V18.9275C34.5579 14.6644 29.751 14.6526 27.5624 16.8736ZM16.4998 30.0578H4.89456V20.3472H16.4998V24.335L14.2236 24.8981C13.2256 25.1728 12.6168 26.1805 12.8377 27.1916L12.8563 27.2696C13.0737 28.2641 14.022 28.9218 15.0304 28.7783L16.4998 28.5416V30.0578Z" fill="white"/>
</svg>
