<svg width="18" height="20" viewBox="0 0 18 20" fill="none" xmlns="http://www.w3.org/2000/svg">
<path d="M0.851562 4.84961H16.8516M1.85156 4.84961L2.85156 16.8496C2.85156 17.38 3.06228 17.8887 3.43735 18.2638C3.81242 18.6389 4.32113 18.8496 4.85156 18.8496H12.8516C13.382 18.8496 13.8907 18.6389 14.2658 18.2638C14.6408 17.8887 14.8516 17.38 14.8516 16.8496L15.8516 4.84961M5.85156 4.84961V1.84961C5.85156 1.58439 5.95692 1.33004 6.14446 1.1425C6.33199 0.954966 6.58635 0.849609 6.85156 0.849609H10.8516C11.1168 0.849609 11.3711 0.954966 11.5587 1.1425C11.7462 1.33004 11.8516 1.58439 11.8516 1.84961V4.84961M6.85156 9.84961L10.8516 13.8496M10.8516 9.84961L6.85156 13.8496" stroke="#ADADAD" stroke-width="1.7" stroke-linecap="round" stroke-linejoin="round"/>
</svg>
