<svg width="666" height="244" viewBox="0 0 666 244" fill="none" xmlns="http://www.w3.org/2000/svg">
<g opacity="0.1">
<path d="M66.7648 106.893C68.217 105.654 68.9068 105.873 68.8342 107.548C68.7616 108.058 68.6527 108.677 68.5075 109.406C68.217 110.498 67.7451 111.773 67.0916 113.23C66.5107 114.687 65.4215 116.471 63.8241 118.583C62.2267 120.696 60.3388 122.626 58.1605 124.374C56.0549 126.049 53.2231 127.506 49.6652 128.744C46.1073 130.056 42.2227 130.748 38.0113 130.82C27.4102 131.039 18.4066 126.996 11.0004 118.693C3.6668 110.389 0 100.519 0 89.0835C0 77.8662 3.55789 68.2514 10.6737 60.2391C17.862 52.1539 27.0109 48.0749 38.1202 48.0021C46.6156 47.9292 53.5861 49.7866 59.0319 53.5743C64.4776 57.2891 67.2005 62.0965 67.2005 67.9965C67.2005 71.2014 66.1113 74.0786 63.933 76.6279C61.7547 79.1773 58.814 80.452 55.1109 80.452C52.7148 80.452 50.6817 80.0878 49.0117 79.3594C47.4143 78.5582 46.6519 77.6113 46.7245 76.5187C47.3054 72.5125 46.9423 69.0526 45.6353 66.1391C44.401 63.2255 42.0774 61.7687 38.6648 61.7687C35.5426 61.7687 32.8197 63.3712 30.4962 66.5761C28.1726 69.781 26.5389 73.5323 25.595 77.8298C24.7237 82.1273 24.5422 86.1699 25.0504 89.9575C25.8491 96.6588 27.8459 102.049 31.0407 106.128C34.3082 110.207 38.0113 112.72 42.1501 113.667C46.2888 114.541 50.5728 114.395 55.002 113.23C59.4312 112.064 63.3521 109.952 66.7648 106.893Z" fill="white"/>
<path d="M127.291 73.5687C127.291 73.7872 127.4 73.9329 127.618 74.0057V127.87C127.618 128.162 127.472 128.344 127.182 128.417H106.161C105.871 128.417 105.726 128.235 105.726 127.87V83.6205H93.5272V127.87C93.4546 128.162 93.2731 128.344 92.9827 128.417H71.9621C71.6717 128.417 71.5264 128.235 71.5264 127.87V74.0057C71.599 73.7872 71.7443 73.6415 71.9621 73.5687C80.0218 71.9662 89.207 71.165 99.5176 71.165C109.901 71.0921 119.159 71.8934 127.291 73.5687Z" fill="white"/>
<path d="M156.61 111.591C158.062 114.359 160.059 115.743 162.601 115.743C165.142 115.743 167.139 114.359 168.591 111.591C170.043 108.823 170.769 105.29 170.769 100.993C170.769 96.6952 170.043 93.1625 168.591 90.3946C167.139 87.5538 165.142 86.1335 162.601 86.1335C160.059 86.1335 158.062 87.5538 156.61 90.3946C155.158 93.1625 154.432 96.6952 154.432 100.993C154.432 105.29 155.158 108.823 156.61 111.591ZM255.832 74.115V127.98C255.832 128.271 255.686 128.453 255.396 128.526H234.375C234.085 128.526 233.94 128.344 233.94 127.98V83.7298H226.207C226.497 89.7754 226.316 95.2384 225.662 100.119C225.009 104.999 224.101 109.041 222.939 112.246C221.85 115.378 220.362 118.146 218.474 120.55C216.586 122.881 214.771 124.665 213.028 125.904C211.358 127.142 209.361 128.162 207.038 128.963C204.714 129.764 202.826 130.238 201.374 130.383C199.995 130.602 198.325 130.784 196.364 130.93C190.555 131.294 185.11 130.347 180.027 128.089C175.017 125.758 171.858 122.59 170.551 118.583C166.267 126.814 160.531 130.93 153.343 130.93C148.986 130.93 145.138 129.436 141.798 126.45C138.458 123.464 135.989 119.749 134.392 115.306C132.794 110.862 131.995 106.128 131.995 101.102C131.995 93.0896 133.956 86.1699 137.877 80.3427C141.798 74.4428 147.135 71.4928 153.887 71.4928C160.858 71.4928 166.267 74.9526 170.116 81.8724V74.3335C170.116 73.9693 170.297 73.7508 170.66 73.6779H192.443C192.734 73.7508 192.879 73.9329 192.879 74.2242L192.443 112.902C192.516 117.855 193.569 120.404 195.602 120.55C197.49 120.696 199.414 118.693 201.374 114.541C202.463 112.21 203.407 109.369 204.206 106.019C205.077 102.231 205.767 97.6785 206.275 92.3612C206.856 87.044 207.219 82.71 207.365 79.3594L207.473 74.2242C207.473 73.86 207.619 73.6779 207.909 73.6779C222.867 70.3273 238.732 70.3273 255.505 73.6779C255.723 73.6779 255.832 73.8236 255.832 74.115Z" fill="white"/>
<path d="M315.6 111.591C316.108 111.955 316.217 112.538 315.926 113.339C315.563 114.65 314.728 116.216 313.421 118.037C312.187 119.858 310.517 121.788 308.411 123.828C306.378 125.795 303.692 127.433 300.351 128.744C297.011 130.128 293.49 130.82 289.787 130.82C281.582 130.82 274.575 127.907 268.766 122.08C263.03 116.253 260.162 109.224 260.162 100.993C260.162 92.7619 263.03 85.7693 268.766 80.015C274.575 74.1878 282.054 71.2742 291.203 71.2742C299.335 71.2742 305.616 73.3137 310.045 77.3927C314.547 81.3989 316.798 85.6964 316.798 90.2853C316.798 94.3643 315.672 97.7878 313.421 100.556C311.243 103.251 308.448 105.072 305.035 106.019C301.695 106.966 297.992 107.585 293.926 107.876C289.932 108.167 286.156 107.912 282.598 107.111C284.486 112.428 288.552 115.488 294.797 116.289C301.114 117.09 307.576 115.561 314.184 111.7C314.692 111.336 315.164 111.299 315.6 111.591ZM287.391 84.7131C284.123 86.6798 282.235 90.9409 281.727 97.4964C286.447 97.9334 290.041 97.3871 292.51 95.8575C294.978 94.2551 296.213 91.9242 296.213 88.8649C296.213 87.3353 295.668 86.0606 294.579 85.0409C293.49 84.0211 292.11 83.5477 290.44 83.6205C290.44 83.6934 290.404 83.7298 290.331 83.7298H290.005C289.133 83.8755 288.262 84.2032 287.391 84.7131Z" fill="white"/>
<path d="M377.916 106.456C377.916 109.661 378.17 112.356 378.678 114.541C379.187 116.653 379.767 118.146 380.421 119.02C381.147 119.822 381.837 120.441 382.49 120.878C383.216 121.315 383.761 121.679 384.124 121.97C384.487 122.262 384.56 122.662 384.342 123.172C383.761 124.993 382.164 126.705 379.55 128.307C376.936 129.837 374.176 130.602 371.272 130.602C366.77 130.602 363.103 129.145 360.272 126.232C357.44 123.245 356.024 119.239 356.024 114.213V106.893H345.35V127.87C345.35 128.235 345.169 128.453 344.806 128.526H323.023C323.023 128.526 322.878 128.417 322.587 128.198C322.587 128.125 322.587 128.053 322.587 127.98C323.095 111.372 323.35 100.556 323.35 95.5297C323.35 91.5964 322.95 88.4643 322.151 86.1335C321.425 83.7298 320.627 82.273 319.755 81.7631C318.884 81.2532 318.122 80.8162 317.468 80.452C316.887 80.015 316.706 79.5051 316.924 78.9224C317.577 77.0285 319.211 75.2804 321.825 73.6779C324.439 72.0026 327.198 71.165 330.102 71.165C334.604 71.165 338.271 72.6946 341.103 75.7539C343.934 78.7403 345.35 82.7464 345.35 87.7724V94.1094H356.024V74.115C356.097 73.8236 356.278 73.6415 356.569 73.5687H377.48C377.771 73.5687 377.916 73.7508 377.916 74.115V106.456Z" fill="white"/>
<path d="M447.893 121.315C448.764 121.752 449.2 122.189 449.2 122.626C449.272 123.063 448.873 123.828 448.002 124.92C446.55 126.523 444.589 127.907 442.12 129.072C439.652 130.311 437.001 130.93 434.17 130.93C430.031 130.93 426.618 130.092 423.932 128.417C421.245 126.669 419.357 124.556 418.268 122.08C417.179 119.53 416.344 117.017 415.763 114.541C415.182 112.064 414.565 109.916 413.911 108.095C413.258 106.274 412.314 105.29 411.08 105.145V127.87L410.644 128.526H388.752C388.462 128.453 388.316 128.271 388.316 127.98C388.897 111.372 389.188 100.556 389.188 95.5297C389.188 91.5964 388.788 88.4643 387.99 86.1335C387.264 83.7298 386.465 82.273 385.594 81.7631C384.722 81.2532 383.96 80.8162 383.306 80.452C382.725 80.015 382.544 79.5051 382.762 78.9224C383.415 77.0285 385.049 75.2804 387.663 73.6779C390.277 72.0026 393.036 71.165 395.94 71.165C400.37 71.165 404 72.6946 406.832 75.7539C409.664 78.7403 411.08 82.7464 411.08 87.7724V96.9501C411.152 96.8773 411.297 96.8044 411.515 96.7316C411.733 96.6588 411.878 96.6223 411.951 96.6223C412.169 94.8014 412.604 92.8711 413.258 90.8316C413.911 88.7193 414.855 86.4977 416.09 84.1668C417.324 81.7631 418.74 79.6143 420.337 77.7205C421.935 75.8267 423.932 74.2607 426.328 73.0224C428.724 71.7841 431.301 71.165 434.061 71.165C438.054 71.165 441.285 72.3304 443.754 74.6613C446.295 76.9193 447.566 79.8329 447.566 83.402C447.566 86.9711 446.441 89.8119 444.19 91.9242C442.011 93.9637 439.18 94.9835 435.694 94.9835C434.242 94.9835 432.935 94.7649 431.773 94.3279C430.684 93.8909 430.14 93.2717 430.14 92.4705C430.14 92.3977 430.14 92.0335 430.14 91.3779C430.212 90.6495 430.212 90.1032 430.14 89.739C430.14 89.302 430.067 88.8285 429.922 88.3186C429.777 87.7359 429.486 87.2989 429.051 87.0075C428.615 86.6433 428.07 86.4248 427.417 86.352C425.529 86.1335 424.04 87.0075 422.951 88.9742C421.862 90.9409 421.245 93.126 421.1 95.5297C425.384 94.947 428.869 96.3674 431.556 99.7908C432.427 100.956 433.48 103.105 434.714 106.237C436.021 109.369 437.655 112.246 439.615 114.869C441.648 117.418 444.408 119.567 447.893 121.315Z" fill="white"/>
<path d="M509.182 106.565C509.182 110.498 509.545 113.667 510.271 116.07C511.07 118.401 511.905 119.822 512.776 120.332C513.648 120.841 514.374 121.315 514.955 121.752C515.536 122.116 515.717 122.59 515.499 123.172C514.918 125.066 513.321 126.851 510.707 128.526C508.093 130.128 505.334 130.93 502.429 130.93C498.654 130.93 495.423 129.837 492.736 127.652C490.049 125.394 488.343 122.335 487.617 118.474C483.333 126.705 477.597 130.82 470.408 130.82C466.052 130.82 462.204 129.327 458.863 126.341C455.523 123.354 453.055 119.64 451.457 115.196C449.86 110.753 449.061 106.019 449.061 100.993C449.061 92.9804 451.022 86.0606 454.943 80.2335C458.863 74.3335 464.2 71.3835 470.953 71.3835C477.924 71.3835 483.333 74.8434 487.181 81.7631V74.2242C487.181 73.86 487.363 73.6415 487.726 73.5687H509.509C509.799 73.6415 509.945 73.8236 509.945 74.115C509.436 90.7224 509.182 101.539 509.182 106.565ZM473.676 111.591C475.128 114.359 477.125 115.743 479.666 115.743C482.208 115.743 484.204 114.359 485.656 111.591C487.109 108.823 487.835 105.29 487.835 100.993C487.835 96.6952 487.109 93.1625 485.656 90.3946C484.204 87.5538 482.208 86.1335 479.666 86.1335C477.125 86.1335 475.128 87.5538 473.676 90.3946C472.224 93.1625 471.498 96.6952 471.498 100.993C471.498 105.29 472.224 108.823 473.676 111.591Z" fill="white"/>
<path d="M535.015 112.246C537.121 114.359 538.174 116.872 538.174 119.785C538.174 122.699 537.121 125.212 535.015 127.324C532.982 129.436 530.477 130.493 527.5 130.493C524.523 130.493 521.982 129.436 519.876 127.324C517.843 125.212 516.827 122.699 516.827 119.785C516.827 116.872 517.843 114.359 519.876 112.246C521.982 110.134 524.523 109.078 527.5 109.078C530.477 109.078 532.982 110.134 535.015 112.246Z" fill="white"/>
<path d="M584.527 71.165C590.989 71.165 596.144 74.1878 599.992 80.2335C603.841 86.2063 605.765 93.126 605.765 100.993C605.765 109.005 603.805 115.961 599.884 121.861C596.035 127.688 590.735 130.602 583.982 130.602C577.011 130.602 571.602 127.142 567.754 120.222V151.907C567.754 152.272 567.572 152.49 567.209 152.563H545.426C545.426 152.563 545.281 152.454 544.99 152.235C544.99 152.162 544.99 152.09 544.99 152.017C544.918 119.385 544.882 100.556 544.882 95.5297C544.882 91.5964 544.555 88.4643 543.901 86.1335C543.248 83.7298 542.522 82.273 541.723 81.7631C540.924 81.2532 540.271 80.8162 539.763 80.452C539.254 80.015 539.109 79.5051 539.327 78.9224C539.98 77.0285 541.614 75.2804 544.228 73.6779C546.842 72.0026 549.601 71.165 552.506 71.165C556.281 71.165 559.512 72.294 562.199 74.552C564.886 76.7372 566.592 79.76 567.318 83.6205C571.602 75.3168 577.338 71.165 584.527 71.165ZM569.278 111.7C570.731 114.468 572.727 115.852 575.269 115.852C577.81 115.852 579.807 114.468 581.259 111.7C582.711 108.859 583.437 105.29 583.437 100.993C583.437 96.6952 582.711 93.1625 581.259 90.3946C579.807 87.6267 577.81 86.2427 575.269 86.2427C572.727 86.2427 570.731 87.6267 569.278 90.3946C567.826 93.1625 567.1 96.6952 567.1 100.993C567.1 105.29 567.826 108.859 569.278 111.7Z" fill="white"/>
<path d="M665.965 120.55C666.328 130.238 663.859 138.068 658.559 144.041C653.331 150.014 645.78 153 635.905 153C631.04 153 626.683 151.98 622.835 149.941C619.059 147.974 616.336 145.935 614.666 143.822C613.069 141.783 611.98 139.889 611.399 138.141C610.891 136.465 610.6 135.118 610.527 134.098C610.455 133.151 610.564 132.532 610.854 132.241C611.145 132.022 611.508 131.949 611.943 132.022C612.452 132.095 613.178 132.569 614.122 133.443C615.138 134.39 616.191 135.373 617.28 136.393C618.442 137.485 620.148 138.432 622.399 139.233C624.65 140.107 627.155 140.544 629.914 140.544C634.053 140.544 637.393 139.161 639.934 136.393C642.476 133.698 643.819 130.565 643.964 126.996V116.07C641.931 120.441 639.281 123.646 636.014 125.685C632.819 127.725 629.588 128.744 626.32 128.744C622.181 128.744 618.66 127.069 615.755 123.719C612.851 120.368 611.399 116.034 611.399 110.717V95.8575C611.399 92.6526 611.108 89.994 610.527 87.8816C609.947 85.6964 609.257 84.2032 608.458 83.402C607.732 82.5279 606.97 81.8724 606.171 81.4353C605.445 80.9983 604.9 80.6705 604.537 80.452C604.102 80.1606 603.956 79.76 604.101 79.2502C604.755 77.3563 606.389 75.6082 609.003 74.0057C611.617 72.3304 614.376 71.4928 617.28 71.4928C621.855 71.4928 625.667 73.0224 628.716 76.0816C631.766 79.0681 633.291 83.0742 633.291 88.1001V107.111C633.291 111.045 634.38 113.157 636.558 113.448C638.519 113.74 640.261 112.465 641.786 109.624C643.02 107.366 643.674 104.635 643.747 101.43V74.2242C643.747 73.9329 643.892 73.7508 644.182 73.6779H665.203C665.493 73.6779 665.638 73.86 665.638 74.2242C665.856 95.4205 665.965 110.862 665.965 120.55Z" fill="white"/>
<path d="M287.874 26.3615C288.524 25.8072 288.832 25.905 288.8 26.6549C288.767 26.8832 288.718 27.1603 288.653 27.4863C288.524 27.9754 288.312 28.546 288.02 29.1981C287.76 29.8501 287.273 30.649 286.558 31.5945C285.843 32.54 284.998 33.404 284.024 34.1865C283.082 34.9364 281.815 35.5885 280.223 36.1428C278.631 36.7297 276.892 37.0394 275.008 37.072C270.265 37.1698 266.236 35.3603 262.922 31.6434C259.641 27.9265 258 23.5086 258 18.3897C258 13.3687 259.592 9.06491 262.776 5.47845C265.992 1.85937 270.086 0.0335266 275.057 0.000922739C278.858 -0.0316811 281.977 0.799728 284.414 2.49515C286.85 4.15797 288.069 6.30985 288.069 8.9508C288.069 10.3854 287.581 11.6733 286.607 12.8144C285.632 13.9556 284.316 14.5261 282.659 14.5261C281.587 14.5261 280.677 14.3631 279.93 14.0371C279.215 13.6784 278.874 13.2546 278.907 12.7655C279.167 10.9723 279.004 9.42356 278.419 8.11939C277.867 6.81522 276.827 6.16314 275.3 6.16314C273.903 6.16314 272.685 6.88043 271.645 8.31502C270.606 9.74961 269.875 11.4287 269.452 13.3524C269.063 15.276 268.981 17.0856 269.209 18.781C269.566 21.7806 270.46 24.1933 271.889 26.0191C273.351 27.845 275.008 28.9698 276.86 29.3937C278.712 29.7849 280.629 29.7197 282.611 29.1981C284.592 28.6764 286.347 27.7309 287.874 26.3615Z" fill="white"/>
<path d="M314.956 11.445C314.956 11.5428 315.005 11.6081 315.102 11.6407V35.7515C315.102 35.8819 315.037 35.9635 314.907 35.9961H305.502C305.372 35.9961 305.307 35.9145 305.307 35.7515V15.9444H299.849V35.7515C299.816 35.8819 299.735 35.9635 299.605 35.9961H290.199C290.069 35.9961 290.004 35.9145 290.004 35.7515V11.6407C290.037 11.5428 290.102 11.4776 290.199 11.445C293.806 10.7277 297.915 10.3691 302.529 10.3691C307.175 10.3365 311.317 10.6951 314.956 11.445Z" fill="white"/>
<path d="M328.075 28.4645C328.725 29.7034 329.618 30.3229 330.755 30.3229C331.892 30.3229 332.786 29.7034 333.436 28.4645C334.085 27.2255 334.41 25.6442 334.41 23.7205C334.41 21.7969 334.085 20.2156 333.436 18.9766C332.786 17.7051 331.892 17.0693 330.755 17.0693C329.618 17.0693 328.725 17.7051 328.075 18.9766C327.425 20.2156 327.1 21.7969 327.1 23.7205C327.1 25.6442 327.425 27.2255 328.075 28.4645ZM372.471 11.6896V35.8004C372.471 35.9308 372.406 36.0124 372.276 36.045H362.871C362.741 36.045 362.676 35.9635 362.676 35.8004V15.9933H359.216C359.346 18.6995 359.264 21.1448 358.972 23.3293C358.68 25.5138 358.273 27.3233 357.754 28.7579C357.266 30.1599 356.6 31.3989 355.756 32.4748C354.911 33.5181 354.099 34.3169 353.319 34.8712C352.572 35.4255 351.678 35.8819 350.639 36.2406C349.599 36.5992 348.754 36.8112 348.104 36.8764C347.487 36.9742 346.74 37.0557 345.863 37.1209C343.264 37.2839 340.827 36.8601 338.553 35.8493C336.311 34.806 334.898 33.3877 334.313 31.5945C332.396 35.2788 329.829 37.1209 326.613 37.1209C324.663 37.1209 322.942 36.4525 321.447 35.1157C319.953 33.779 318.848 32.1161 318.133 30.1273C317.418 28.1384 317.061 26.0191 317.061 23.7694C317.061 20.183 317.938 17.0856 319.693 14.4772C321.447 11.8363 323.835 10.5158 326.857 10.5158C329.975 10.5158 332.396 12.0645 334.118 15.1619V11.7874C334.118 11.6244 334.199 11.5265 334.361 11.4939H344.108C344.238 11.5265 344.303 11.608 344.303 11.7385L344.108 29.0513C344.141 31.2684 344.612 32.4096 345.522 32.4748C346.366 32.54 347.227 31.6434 348.104 29.7849C348.592 28.7416 349.014 27.47 349.371 25.9702C349.761 24.2748 350.07 22.237 350.297 19.8569C350.557 17.4768 350.72 15.5369 350.785 14.0371L350.833 11.7385C350.833 11.5754 350.898 11.4939 351.028 11.4939C357.721 9.99414 364.82 9.99414 372.325 11.4939C372.423 11.4939 372.471 11.5591 372.471 11.6896Z" fill="white"/>
<path d="M399.214 28.4645C399.442 28.6275 399.49 28.8883 399.36 29.247C399.198 29.8338 398.824 30.5348 398.24 31.3499C397.687 32.1651 396.94 33.0291 395.998 33.942C395.088 34.8223 393.886 35.5559 392.391 36.1428C390.897 36.7623 389.321 37.072 387.664 37.072C383.993 37.072 380.858 35.7678 378.259 33.1595C375.692 30.5511 374.409 27.4048 374.409 23.7205C374.409 20.0363 375.692 16.9062 378.259 14.3305C380.858 11.7222 384.204 10.418 388.298 10.418C391.937 10.418 394.747 11.3309 396.729 13.1568C398.743 14.95 399.75 16.8736 399.75 18.9277C399.75 20.7536 399.247 22.286 398.24 23.5249C397.265 24.7313 396.014 25.5464 394.487 25.9702C392.993 26.3941 391.336 26.6712 389.516 26.8016C387.729 26.9321 386.04 26.8179 384.448 26.4593C385.293 28.8394 387.112 30.2088 389.906 30.5674C392.733 30.9261 395.624 30.2414 398.581 28.5134C398.808 28.3503 399.019 28.334 399.214 28.4645ZM386.592 16.4335C385.13 17.3138 384.285 19.2211 384.058 22.1555C386.17 22.3512 387.778 22.1066 388.883 21.4219C389.987 20.7046 390.54 19.6613 390.54 18.2919C390.54 17.6072 390.296 17.0367 389.809 16.5802C389.321 16.1237 388.704 15.9118 387.957 15.9444C387.957 15.977 387.941 15.9933 387.908 15.9933H387.762C387.372 16.0585 386.982 16.2053 386.592 16.4335Z" fill="white"/>
<path d="M427.098 26.1659C427.098 27.6005 427.211 28.8068 427.439 29.7849C427.666 30.7305 427.926 31.3988 428.218 31.7901C428.543 32.1488 428.852 32.4259 429.144 32.6215C429.469 32.8171 429.713 32.9802 429.875 33.1106C430.038 33.241 430.07 33.4203 429.973 33.6485C429.713 34.4637 428.998 35.2299 427.829 35.9472C426.659 36.6318 425.424 36.9742 424.125 36.9742C422.11 36.9742 420.47 36.3221 419.203 35.0179C417.936 33.6812 417.302 31.8879 417.302 29.6382V26.3615H412.526V35.7515C412.526 35.9145 412.445 36.0124 412.282 36.045H402.536C402.536 36.045 402.471 35.9961 402.341 35.8982C402.341 35.8656 402.341 35.833 402.341 35.8004C402.568 28.3667 402.682 23.5249 402.682 21.2752C402.682 19.5146 402.503 18.1126 402.146 17.0693C401.821 15.9933 401.464 15.3412 401.074 15.113C400.684 14.8848 400.343 14.6892 400.05 14.5261C399.79 14.3305 399.709 14.1023 399.807 13.8414C400.099 12.9937 400.83 12.2112 402 11.4939C403.169 10.744 404.404 10.3691 405.703 10.3691C407.718 10.3691 409.358 11.0538 410.626 12.4232C411.893 13.7599 412.526 15.5532 412.526 17.8029V20.6394H417.302V11.6896C417.335 11.5591 417.416 11.4776 417.546 11.445H426.903C427.033 11.445 427.098 11.5265 427.098 11.6896V26.1659Z" fill="white"/>
<path d="M458.409 32.8171C458.798 33.0128 458.993 33.2084 458.993 33.404C459.026 33.5996 458.847 33.942 458.457 34.431C457.807 35.1483 456.93 35.7678 455.826 36.2895C454.721 36.8438 453.535 37.1209 452.268 37.1209C450.416 37.1209 448.889 36.746 447.687 35.9961C446.485 35.2136 445.64 34.268 445.153 33.1595C444.666 32.0183 444.292 30.8935 444.032 29.7849C443.772 28.6764 443.496 27.7146 443.204 26.8995C442.911 26.0844 442.489 25.6442 441.937 25.579V35.7515L441.742 36.045H431.946C431.816 36.0124 431.751 35.9308 431.751 35.8004C432.011 28.3667 432.141 23.5249 432.141 21.2752C432.141 19.5146 431.962 18.1126 431.605 17.0693C431.28 15.9933 430.923 15.3412 430.533 15.113C430.143 14.8848 429.802 14.6892 429.509 14.5261C429.25 14.3305 429.168 14.1023 429.266 13.8414C429.558 12.9937 430.289 12.2112 431.459 11.4939C432.628 10.744 433.863 10.3691 435.163 10.3691C437.144 10.3691 438.769 11.0538 440.036 12.4232C441.303 13.7599 441.937 15.5532 441.937 17.8029V21.911C441.969 21.8784 442.034 21.8458 442.131 21.8132C442.229 21.7806 442.294 21.7643 442.326 21.7643C442.424 20.9492 442.619 20.0852 442.911 19.1722C443.204 18.2267 443.626 17.2323 444.178 16.189C444.731 15.113 445.364 14.1512 446.079 13.3035C446.794 12.4558 447.687 11.7548 448.759 11.2005C449.831 10.6462 450.985 10.3691 452.219 10.3691C454.006 10.3691 455.452 10.8908 456.557 11.9341C457.694 12.9448 458.262 14.249 458.262 15.8466C458.262 17.4442 457.759 18.7158 456.752 19.6613C455.777 20.5742 454.51 21.0307 452.95 21.0307C452.301 21.0307 451.716 20.9329 451.196 20.7372C450.709 20.5416 450.465 20.2645 450.465 19.9058C450.465 19.8732 450.465 19.7102 450.465 19.4168C450.497 19.0907 450.497 18.8462 450.465 18.6832C450.465 18.4876 450.432 18.2756 450.367 18.0474C450.302 17.7866 450.173 17.5909 449.978 17.4605C449.783 17.2975 449.539 17.1997 449.247 17.1671C448.402 17.0693 447.736 17.4605 447.248 18.3408C446.761 19.2211 446.485 20.1993 446.42 21.2752C448.337 21.0144 449.896 21.6502 451.098 23.1826C451.488 23.7042 451.959 24.6661 452.512 26.0681C453.097 27.47 453.828 28.7579 454.705 29.9317C455.614 31.0728 456.849 32.0346 458.409 32.8171Z" fill="white"/>
<path d="M485.832 26.2148C485.832 27.9754 485.995 29.3937 486.32 30.4696C486.677 31.513 487.051 32.1488 487.44 32.377C487.83 32.6052 488.155 32.8171 488.415 33.0128C488.675 33.1758 488.756 33.3877 488.659 33.6485C488.399 34.4963 487.684 35.2951 486.515 36.045C485.345 36.7623 484.11 37.1209 482.811 37.1209C481.121 37.1209 479.676 36.6318 478.473 35.6537C477.271 34.643 476.508 33.2736 476.183 31.5456C474.266 35.2299 471.699 37.072 468.483 37.072C466.534 37.072 464.812 36.4036 463.317 35.0668C461.823 33.7301 460.718 32.0672 460.003 30.0784C459.289 28.0895 458.931 25.9702 458.931 23.7205C458.931 20.1341 459.808 17.0367 461.563 14.4283C463.317 11.7874 465.705 10.4669 468.727 10.4669C471.846 10.4669 474.266 12.0156 475.988 15.113V11.7385C475.988 11.5754 476.069 11.4776 476.232 11.445H485.978C486.108 11.4776 486.173 11.5591 486.173 11.6896C485.946 19.1233 485.832 23.9651 485.832 26.2148ZM469.945 28.4645C470.595 29.7034 471.488 30.3229 472.625 30.3229C473.763 30.3229 474.656 29.7034 475.306 28.4645C475.956 27.2255 476.28 25.6442 476.28 23.7205C476.28 21.7969 475.956 20.2156 475.306 18.9766C474.656 17.7051 473.763 17.0693 472.625 17.0693C471.488 17.0693 470.595 17.7051 469.945 18.9766C469.295 20.2156 468.97 21.7969 468.97 23.7205C468.97 25.6442 469.295 27.2255 469.945 28.4645Z" fill="white"/>
<path d="M497.391 28.7579C498.333 29.7034 498.805 30.8283 498.805 32.1324C498.805 33.4366 498.333 34.5615 497.391 35.507C496.482 36.4525 495.361 36.9253 494.029 36.9253C492.697 36.9253 491.559 36.4525 490.617 35.507C489.708 34.5615 489.253 33.4366 489.253 32.1324C489.253 30.8283 489.708 29.7034 490.617 28.7579C491.559 27.8124 492.697 27.3396 494.029 27.3396C495.361 27.3396 496.482 27.8124 497.391 28.7579Z" fill="white"/>
<path d="M519.545 10.3691C522.436 10.3691 524.743 11.7222 526.465 14.4283C528.187 17.1019 529.048 20.1993 529.048 23.7205C529.048 27.307 528.171 30.4207 526.416 33.0617C524.694 35.67 522.323 36.9742 519.301 36.9742C516.182 36.9742 513.762 35.4255 512.04 32.3281V46.5109C512.04 46.674 511.959 46.7718 511.796 46.8044H502.05C502.05 46.8044 501.985 46.7555 501.855 46.6577C501.855 46.6251 501.855 46.5924 501.855 46.5598C501.822 31.9531 501.806 23.5249 501.806 21.2752C501.806 19.5146 501.66 18.1126 501.367 17.0693C501.075 15.9933 500.75 15.3412 500.393 15.113C500.035 14.8848 499.743 14.6892 499.515 14.5261C499.288 14.3305 499.223 14.1023 499.32 13.8414C499.613 12.9937 500.344 12.2112 501.513 11.4939C502.683 10.744 503.918 10.3691 505.217 10.3691C506.907 10.3691 508.352 10.8745 509.555 11.8852C510.757 12.8633 511.52 14.2164 511.845 15.9444C513.762 12.2275 516.328 10.3691 519.545 10.3691ZM512.722 28.5134C513.372 29.7523 514.265 30.3718 515.403 30.3718C516.54 30.3718 517.433 29.7523 518.083 28.5134C518.733 27.2418 519.058 25.6442 519.058 23.7205C519.058 21.7969 518.733 20.2156 518.083 18.9766C517.433 17.7377 516.54 17.1182 515.403 17.1182C514.265 17.1182 513.372 17.7377 512.722 18.9766C512.072 20.2156 511.748 21.7969 511.748 23.7205C511.748 25.6442 512.072 27.2418 512.722 28.5134Z" fill="white"/>
<path d="M555.984 32.4748C556.147 36.8112 555.042 40.3161 552.67 42.9897C550.331 45.6632 546.952 47 542.534 47C540.357 47 538.408 46.5435 536.686 45.6306C534.996 44.7503 533.778 43.8374 533.031 42.8919C532.316 41.9789 531.829 41.1312 531.569 40.3487C531.341 39.5988 531.211 38.9956 531.179 38.5392C531.146 38.1153 531.195 37.8382 531.325 37.7078C531.455 37.61 531.618 37.5774 531.812 37.61C532.04 37.6426 532.365 37.8545 532.787 38.2458C533.242 38.6696 533.713 39.1098 534.2 39.5662C534.72 40.0553 535.484 40.4791 536.491 40.8378C537.498 41.229 538.619 41.4247 539.854 41.4247C541.705 41.4247 543.2 40.8052 544.337 39.5662C545.474 38.3599 546.075 36.9579 546.14 35.3603V30.4696C545.23 32.4259 544.045 33.8605 542.583 34.7734C541.153 35.6863 539.707 36.1428 538.245 36.1428C536.393 36.1428 534.818 35.3929 533.518 33.8931C532.219 32.3933 531.569 30.4533 531.569 28.0732V21.4219C531.569 19.9874 531.439 18.7973 531.179 17.8518C530.919 16.8736 530.61 16.2053 530.253 15.8466C529.928 15.4554 529.587 15.1619 529.23 14.9663C528.905 14.7707 528.661 14.6239 528.499 14.5261C528.304 14.3957 528.239 14.2164 528.304 13.9882C528.596 13.1405 529.327 12.3579 530.497 11.6407C531.666 10.8908 532.901 10.5158 534.2 10.5158C536.247 10.5158 537.953 11.2005 539.317 12.5699C540.682 13.9067 541.364 15.6999 541.364 17.9496V26.4593C541.364 28.2199 541.852 29.1655 542.826 29.2959C543.703 29.4263 544.483 28.8557 545.165 27.5841C545.718 26.5734 546.01 25.3508 546.043 23.9162V11.7385C546.043 11.608 546.108 11.5265 546.238 11.4939H555.643C555.773 11.4939 555.838 11.5754 555.838 11.7385C555.936 21.2263 555.984 28.1384 555.984 32.4748Z" fill="white"/>
<path d="M50.6832 178.727C51.4158 178.102 51.7638 178.212 51.7272 179.058C51.6905 179.315 51.6356 179.628 51.5623 179.995C51.4158 180.547 51.1777 181.19 50.848 181.925C50.5549 182.661 50.0055 183.562 49.1996 184.628C48.3937 185.694 47.4412 186.668 46.3423 187.551C45.2799 188.396 43.8513 189.132 42.0563 189.757C40.2613 190.419 38.3015 190.768 36.1769 190.805C30.8286 190.915 26.2862 188.874 22.5498 184.683C18.8499 180.492 17 175.51 17 169.737C17 164.075 18.795 159.222 22.3849 155.178C26.0115 151.097 30.6271 149.038 36.2318 149.001C40.5178 148.964 44.0344 149.902 46.7818 151.814C49.5292 153.689 50.9029 156.115 50.9029 159.093C50.9029 160.711 50.3535 162.163 49.2545 163.45C48.1555 164.737 46.6719 165.381 44.8037 165.381C43.5949 165.381 42.5692 165.197 41.7266 164.829C40.9207 164.425 40.5361 163.947 40.5727 163.395C40.8658 161.373 40.6826 159.627 40.0232 158.156C39.4005 156.685 38.2283 155.95 36.5066 155.95C34.9314 155.95 33.5577 156.759 32.3855 158.377C31.2132 159.994 30.389 161.888 29.9128 164.057C29.4732 166.226 29.3816 168.267 29.6381 170.179C30.041 173.561 31.0484 176.282 32.6602 178.341C34.3086 180.4 36.1769 181.668 38.2649 182.146C40.3529 182.587 42.5142 182.514 44.7488 181.925C46.9833 181.337 48.9614 180.271 50.6832 178.727Z" fill="white"/>
<path d="M81.2188 161.906C81.2188 162.016 81.2738 162.09 81.3837 162.127V189.316C81.3837 189.463 81.3104 189.555 81.1639 189.591H70.5589C70.4124 189.591 70.3391 189.499 70.3391 189.316V166.98H64.1849V189.316C64.1483 189.463 64.0567 189.555 63.9102 189.591H53.3052C53.1587 189.591 53.0854 189.499 53.0854 189.316V162.127C53.122 162.016 53.1953 161.943 53.3052 161.906C57.3714 161.097 62.0053 160.693 67.2071 160.693C72.4454 160.656 77.116 161.06 81.2188 161.906Z" fill="white"/>
<path d="M96.0106 181.098C96.7432 182.495 97.7506 183.194 99.0327 183.194C100.315 183.194 101.322 182.495 102.055 181.098C102.787 179.701 103.154 177.918 103.154 175.749C103.154 173.579 102.787 171.796 102.055 170.399C101.322 168.965 100.315 168.248 99.0327 168.248C97.7506 168.248 96.7432 168.965 96.0106 170.399C95.2779 171.796 94.9116 173.579 94.9116 175.749C94.9116 177.918 95.2779 179.701 96.0106 181.098ZM146.068 162.182V189.371C146.068 189.518 145.995 189.61 145.848 189.646H135.243C135.097 189.646 135.024 189.555 135.024 189.371V167.035H131.122C131.269 170.087 131.177 172.844 130.848 175.307C130.518 177.771 130.06 179.811 129.474 181.429C128.924 183.01 128.173 184.407 127.221 185.621C126.269 186.797 125.353 187.698 124.474 188.323C123.631 188.948 122.624 189.463 121.452 189.867C120.279 190.271 119.327 190.51 118.594 190.584C117.898 190.694 117.056 190.786 116.067 190.86C113.136 191.044 110.389 190.566 107.824 189.426C105.297 188.249 103.703 186.65 103.044 184.628C100.883 188.782 97.9887 190.86 94.3621 190.86C92.1642 190.86 90.2227 190.106 88.5376 188.599C86.8526 187.091 85.6071 185.216 84.8012 182.973C83.9953 180.731 83.5923 178.341 83.5923 175.804C83.5923 171.76 84.5814 168.267 86.5595 165.325C88.5376 162.347 91.2301 160.858 94.6369 160.858C98.1535 160.858 100.883 162.605 102.824 166.097V162.292C102.824 162.108 102.916 161.998 103.099 161.961H114.088C114.235 161.998 114.308 162.09 114.308 162.237L114.088 181.76C114.125 184.26 114.656 185.547 115.682 185.621C116.634 185.694 117.605 184.683 118.594 182.587C119.144 181.411 119.62 179.977 120.023 178.286C120.462 176.374 120.81 174.076 121.067 171.392C121.36 168.708 121.543 166.52 121.616 164.829L121.671 162.237C121.671 162.053 121.745 161.961 121.891 161.961C129.437 160.27 137.441 160.27 145.903 161.961C146.013 161.961 146.068 162.035 146.068 162.182Z" fill="white"/>
<path d="M176.221 181.098C176.478 181.282 176.533 181.576 176.386 181.981C176.203 182.642 175.782 183.433 175.122 184.352C174.5 185.271 173.657 186.246 172.595 187.275C171.569 188.268 170.214 189.095 168.529 189.757C166.844 190.455 165.067 190.805 163.199 190.805C159.059 190.805 155.524 189.334 152.594 186.393C149.7 183.451 148.253 179.903 148.253 175.749C148.253 171.594 149.7 168.064 152.594 165.16C155.524 162.219 159.297 160.748 163.913 160.748C168.016 160.748 171.185 161.777 173.419 163.836C175.69 165.858 176.826 168.028 176.826 170.344C176.826 172.403 176.258 174.131 175.122 175.528C174.023 176.888 172.613 177.808 170.891 178.286C169.206 178.764 167.338 179.076 165.287 179.223C163.272 179.37 161.367 179.242 159.572 178.837C160.525 181.521 162.576 183.065 165.726 183.47C168.913 183.874 172.174 183.102 175.507 181.153C175.764 180.97 176.002 180.951 176.221 181.098ZM161.99 167.531C160.341 168.524 159.389 170.675 159.133 173.984C161.514 174.205 163.327 173.929 164.572 173.157C165.818 172.348 166.441 171.171 166.441 169.627C166.441 168.855 166.166 168.212 165.616 167.697C165.067 167.182 164.371 166.943 163.528 166.98C163.528 167.017 163.51 167.035 163.473 167.035H163.309C162.869 167.109 162.429 167.274 161.99 167.531Z" fill="white"/>
<path d="M207.66 178.506C207.66 180.124 207.788 181.484 208.045 182.587C208.301 183.653 208.594 184.407 208.924 184.848C209.29 185.253 209.638 185.565 209.968 185.786C210.334 186.007 210.609 186.19 210.792 186.337C210.975 186.485 211.012 186.687 210.902 186.944C210.609 187.863 209.803 188.727 208.484 189.536C207.166 190.308 205.774 190.694 204.308 190.694C202.037 190.694 200.187 189.959 198.759 188.488C197.33 186.981 196.616 184.959 196.616 182.422V178.727H191.231V189.316C191.231 189.499 191.139 189.61 190.956 189.646H179.966C179.966 189.646 179.893 189.591 179.747 189.481C179.747 189.444 179.747 189.407 179.747 189.371C180.003 180.988 180.131 175.528 180.131 172.991C180.131 171.006 179.93 169.425 179.527 168.248C179.161 167.035 178.758 166.3 178.318 166.042C177.878 165.785 177.494 165.564 177.164 165.381C176.871 165.16 176.779 164.903 176.889 164.608C177.219 163.653 178.043 162.77 179.362 161.961C180.681 161.116 182.073 160.693 183.538 160.693C185.809 160.693 187.659 161.465 189.088 163.009C190.516 164.517 191.231 166.539 191.231 169.076V172.274H196.616V162.182C196.652 162.035 196.744 161.943 196.89 161.906H207.44C207.587 161.906 207.66 161.998 207.66 162.182V178.506Z" fill="white"/>
<path d="M242.964 186.007C243.404 186.227 243.623 186.448 243.623 186.668C243.66 186.889 243.458 187.275 243.019 187.826C242.286 188.635 241.297 189.334 240.052 189.922C238.806 190.547 237.469 190.86 236.041 190.86C233.952 190.86 232.231 190.437 230.875 189.591C229.52 188.709 228.568 187.643 228.018 186.393C227.469 185.106 227.047 183.837 226.754 182.587C226.461 181.337 226.15 180.253 225.82 179.333C225.49 178.414 225.014 177.918 224.392 177.844V189.316L224.172 189.646H213.127C212.981 189.61 212.907 189.518 212.907 189.371C213.2 180.988 213.347 175.528 213.347 172.991C213.347 171.006 213.145 169.425 212.743 168.248C212.376 167.035 211.973 166.3 211.534 166.042C211.094 165.785 210.709 165.564 210.38 165.381C210.087 165.16 209.995 164.903 210.105 164.608C210.435 163.653 211.259 162.77 212.578 161.961C213.896 161.116 215.288 160.693 216.754 160.693C218.988 160.693 220.82 161.465 222.249 163.009C223.677 164.517 224.392 166.539 224.392 169.076V173.708C224.428 173.671 224.501 173.635 224.611 173.598C224.721 173.561 224.794 173.543 224.831 173.543C224.941 172.624 225.161 171.649 225.49 170.62C225.82 169.554 226.296 168.432 226.919 167.256C227.542 166.042 228.256 164.958 229.062 164.002C229.868 163.046 230.875 162.255 232.084 161.63C233.293 161.005 234.594 160.693 235.986 160.693C238 160.693 239.63 161.281 240.876 162.458C242.158 163.597 242.799 165.068 242.799 166.87C242.799 168.671 242.231 170.105 241.096 171.171C239.997 172.201 238.568 172.715 236.81 172.715C236.077 172.715 235.418 172.605 234.832 172.385C234.282 172.164 234.007 171.851 234.007 171.447C234.007 171.41 234.007 171.226 234.007 170.896C234.044 170.528 234.044 170.252 234.007 170.068C234.007 169.848 233.971 169.609 233.898 169.351C233.824 169.057 233.678 168.837 233.458 168.69C233.238 168.506 232.963 168.395 232.634 168.359C231.681 168.248 230.93 168.69 230.381 169.682C229.831 170.675 229.52 171.778 229.447 172.991C231.608 172.697 233.366 173.414 234.722 175.142C235.161 175.73 235.693 176.815 236.315 178.396C236.975 179.977 237.799 181.429 238.788 182.753C239.814 184.04 241.206 185.124 242.964 186.007Z" fill="white"/>
<path d="M273.885 178.561C273.885 180.547 274.068 182.146 274.434 183.359C274.837 184.536 275.258 185.253 275.698 185.51C276.138 185.768 276.504 186.007 276.797 186.227C277.09 186.411 277.182 186.65 277.072 186.944C276.779 187.9 275.973 188.801 274.654 189.646C273.335 190.455 271.943 190.86 270.478 190.86C268.573 190.86 266.943 190.308 265.588 189.205C264.232 188.065 263.371 186.521 263.005 184.573C260.844 188.727 257.95 190.805 254.323 190.805C252.125 190.805 250.184 190.051 248.499 188.543C246.814 187.036 245.568 185.161 244.762 182.918C243.956 180.675 243.553 178.286 243.553 175.749C243.553 171.704 244.542 168.212 246.521 165.27C248.499 162.292 251.191 160.803 254.598 160.803C258.115 160.803 260.844 162.55 262.785 166.042V162.237C262.785 162.053 262.877 161.943 263.06 161.906H274.05C274.196 161.943 274.269 162.035 274.269 162.182C274.013 170.565 273.885 176.024 273.885 178.561ZM255.972 181.098C256.704 182.495 257.712 183.194 258.994 183.194C260.276 183.194 261.283 182.495 262.016 181.098C262.749 179.701 263.115 177.918 263.115 175.749C263.115 173.579 262.749 171.796 262.016 170.399C261.283 168.965 260.276 168.248 258.994 168.248C257.712 168.248 256.704 168.965 255.972 170.399C255.239 171.796 254.873 173.579 254.873 175.749C254.873 177.918 255.239 179.701 255.972 181.098Z" fill="white"/>
<path d="M286.918 181.429C287.98 182.495 288.511 183.764 288.511 185.234C288.511 186.705 287.98 187.974 286.918 189.04C285.892 190.106 284.628 190.639 283.126 190.639C281.624 190.639 280.342 190.106 279.28 189.04C278.254 187.974 277.741 186.705 277.741 185.234C277.741 183.764 278.254 182.495 279.28 181.429C280.342 180.363 281.624 179.83 283.126 179.83C284.628 179.83 285.892 180.363 286.918 181.429Z" fill="white"/>
<path d="M311.896 160.693C315.157 160.693 317.757 162.219 319.699 165.27C321.64 168.285 322.611 171.778 322.611 175.749C322.611 179.793 321.622 183.304 319.644 186.282C317.702 189.224 315.028 190.694 311.622 190.694C308.105 190.694 305.376 188.948 303.434 185.455V201.449C303.434 201.632 303.343 201.743 303.16 201.779H292.17C292.17 201.779 292.097 201.724 291.95 201.614C291.95 201.577 291.95 201.54 291.95 201.504C291.913 185.032 291.895 175.528 291.895 172.991C291.895 171.006 291.73 169.425 291.401 168.248C291.071 167.035 290.705 166.3 290.302 166.042C289.899 165.785 289.569 165.564 289.313 165.381C289.056 165.16 288.983 164.903 289.093 164.608C289.423 163.653 290.247 162.77 291.565 161.961C292.884 161.116 294.276 160.693 295.742 160.693C297.646 160.693 299.277 161.263 300.632 162.402C301.987 163.505 302.848 165.031 303.214 166.98C305.376 162.788 308.27 160.693 311.896 160.693ZM304.204 181.153C304.936 182.551 305.944 183.249 307.226 183.249C308.508 183.249 309.515 182.551 310.248 181.153C310.98 179.719 311.347 177.918 311.347 175.749C311.347 173.579 310.98 171.796 310.248 170.399C309.515 169.002 308.508 168.303 307.226 168.303C305.944 168.303 304.936 169.002 304.204 170.399C303.471 171.796 303.105 173.579 303.105 175.749C303.105 177.918 303.471 179.719 304.204 181.153Z" fill="white"/>
<path d="M352.982 185.621C353.166 190.51 351.92 194.463 349.246 197.478C346.608 200.493 342.799 202 337.817 202C335.362 202 333.164 201.485 331.223 200.456C329.318 199.463 327.944 198.434 327.102 197.367C326.296 196.338 325.746 195.382 325.453 194.5C325.197 193.654 325.05 192.974 325.014 192.459C324.977 191.981 325.032 191.669 325.179 191.522C325.325 191.411 325.508 191.374 325.728 191.411C325.985 191.448 326.351 191.687 326.827 192.128C327.34 192.606 327.871 193.103 328.421 193.617C329.007 194.169 329.868 194.647 331.003 195.051C332.139 195.492 333.403 195.713 334.795 195.713C336.883 195.713 338.568 195.014 339.85 193.617C341.132 192.257 341.81 190.676 341.883 188.874V183.359C340.857 185.565 339.52 187.183 337.872 188.213C336.26 189.242 334.63 189.757 332.981 189.757C330.893 189.757 329.117 188.911 327.651 187.22C326.186 185.529 325.453 183.341 325.453 180.657V173.157C325.453 171.539 325.307 170.197 325.014 169.131C324.721 168.028 324.373 167.274 323.97 166.87C323.604 166.428 323.219 166.097 322.816 165.877C322.45 165.656 322.175 165.491 321.992 165.381C321.772 165.233 321.699 165.031 321.772 164.774C322.102 163.818 322.926 162.936 324.245 162.127C325.563 161.281 326.955 160.858 328.421 160.858C330.728 160.858 332.652 161.63 334.19 163.175C335.729 164.682 336.498 166.704 336.498 169.241V178.837C336.498 180.822 337.047 181.889 338.146 182.036C339.135 182.183 340.015 181.539 340.784 180.106C341.407 178.966 341.736 177.587 341.773 175.969V162.237C341.773 162.09 341.846 161.998 341.993 161.961H352.598C352.744 161.961 352.818 162.053 352.818 162.237C352.927 172.936 352.982 180.731 352.982 185.621Z" fill="white"/>
<path d="M326.624 229.413C326.833 229.236 326.933 229.268 326.922 229.507C326.912 229.58 326.896 229.668 326.875 229.772C326.833 229.928 326.765 230.11 326.671 230.319C326.587 230.527 326.43 230.782 326.2 231.083C325.97 231.385 325.697 231.661 325.384 231.911C325.08 232.15 324.672 232.358 324.159 232.535C323.646 232.722 323.086 232.821 322.479 232.831C320.951 232.863 319.653 232.285 318.586 231.099C317.529 229.913 317 228.503 317 226.869C317 225.267 317.513 223.893 318.539 222.748C319.575 221.593 320.893 221.011 322.495 221C323.719 220.99 324.724 221.255 325.509 221.796C326.294 222.327 326.687 223.014 326.687 223.857C326.687 224.314 326.53 224.726 326.216 225.09C325.902 225.454 325.478 225.636 324.944 225.636C324.599 225.636 324.305 225.584 324.065 225.48C323.834 225.365 323.725 225.23 323.735 225.074C323.819 224.502 323.766 224.008 323.578 223.591C323.4 223.175 323.065 222.967 322.573 222.967C322.123 222.967 321.731 223.196 321.396 223.654C321.061 224.112 320.825 224.647 320.689 225.261C320.564 225.875 320.538 226.453 320.611 226.994C320.726 227.951 321.014 228.721 321.474 229.304C321.945 229.887 322.479 230.246 323.076 230.381C323.672 230.506 324.29 230.485 324.928 230.319C325.567 230.152 326.132 229.85 326.624 229.413Z" fill="white"/>
<path d="M335.348 224.653C335.348 224.684 335.364 224.705 335.395 224.715V232.41C335.395 232.452 335.374 232.478 335.333 232.488H332.303C332.261 232.488 332.24 232.462 332.24 232.41V226.089H330.481V232.41C330.471 232.452 330.445 232.478 330.403 232.488H327.373C327.331 232.488 327.31 232.462 327.31 232.41V224.715C327.321 224.684 327.342 224.663 327.373 224.653C328.535 224.424 329.859 224.309 331.345 224.309C332.842 224.299 334.176 224.413 335.348 224.653Z" fill="white"/>
<path d="M339.574 230.084C339.784 230.48 340.072 230.678 340.438 230.678C340.804 230.678 341.092 230.48 341.301 230.084C341.511 229.689 341.615 229.184 341.615 228.57C341.615 227.956 341.511 227.452 341.301 227.056C341.092 226.651 340.804 226.448 340.438 226.448C340.072 226.448 339.784 226.651 339.574 227.056C339.365 227.452 339.26 227.956 339.26 228.57C339.26 229.184 339.365 229.689 339.574 230.084ZM353.877 224.731V232.426C353.877 232.467 353.856 232.493 353.814 232.504H350.784C350.742 232.504 350.721 232.478 350.721 232.426V226.104H349.606C349.648 226.968 349.622 227.748 349.528 228.446C349.434 229.143 349.303 229.72 349.135 230.178C348.978 230.625 348.764 231.021 348.492 231.364C348.22 231.697 347.958 231.952 347.707 232.129C347.466 232.306 347.178 232.452 346.843 232.566C346.508 232.681 346.236 232.748 346.027 232.769C345.828 232.8 345.587 232.826 345.305 232.847C344.467 232.899 343.682 232.764 342.95 232.441C342.228 232.108 341.772 231.656 341.584 231.083C340.966 232.259 340.14 232.847 339.103 232.847C338.475 232.847 337.921 232.634 337.439 232.207C336.958 231.781 336.602 231.25 336.372 230.615C336.142 229.98 336.026 229.304 336.026 228.586C336.026 227.441 336.309 226.453 336.874 225.62C337.439 224.778 338.209 224.356 339.182 224.356C340.187 224.356 340.966 224.85 341.521 225.839V224.762C341.521 224.71 341.547 224.679 341.6 224.668H344.74C344.781 224.679 344.802 224.705 344.802 224.746L344.74 230.272C344.75 230.979 344.902 231.343 345.195 231.364C345.467 231.385 345.744 231.099 346.027 230.506C346.184 230.173 346.32 229.767 346.435 229.288C346.561 228.747 346.66 228.097 346.733 227.337C346.817 226.578 346.869 225.959 346.89 225.48L346.906 224.746C346.906 224.694 346.927 224.668 346.969 224.668C349.125 224.19 351.412 224.19 353.83 224.668C353.861 224.668 353.877 224.689 353.877 224.731Z" fill="white"/>
<path d="M362.492 230.084C362.565 230.136 362.581 230.22 362.539 230.334C362.487 230.521 362.366 230.745 362.178 231.005C362 231.265 361.759 231.541 361.456 231.833C361.163 232.114 360.775 232.348 360.294 232.535C359.812 232.733 359.305 232.831 358.771 232.831C357.588 232.831 356.578 232.415 355.741 231.583C354.914 230.75 354.501 229.746 354.501 228.57C354.501 227.395 354.914 226.396 355.741 225.574C356.578 224.741 357.656 224.325 358.975 224.325C360.147 224.325 361.053 224.616 361.691 225.199C362.34 225.771 362.665 226.385 362.665 227.041C362.665 227.623 362.502 228.113 362.178 228.508C361.864 228.893 361.461 229.153 360.969 229.288C360.488 229.424 359.954 229.512 359.368 229.554C358.792 229.595 358.248 229.559 357.735 229.444C358.007 230.204 358.593 230.641 359.493 230.756C360.404 230.87 361.335 230.652 362.288 230.1C362.361 230.048 362.429 230.043 362.492 230.084ZM358.426 226.245C357.955 226.526 357.683 227.134 357.609 228.071C358.29 228.133 358.808 228.055 359.164 227.837C359.519 227.608 359.697 227.275 359.697 226.838C359.697 226.619 359.619 226.437 359.462 226.292C359.305 226.146 359.106 226.078 358.865 226.089C358.865 226.099 358.86 226.104 358.85 226.104H358.802C358.677 226.125 358.551 226.172 358.426 226.245Z" fill="white"/>
<path d="M371.474 229.351C371.474 229.809 371.511 230.194 371.584 230.506C371.658 230.808 371.741 231.021 371.835 231.146C371.94 231.26 372.04 231.349 372.134 231.411C372.238 231.474 372.317 231.526 372.369 231.567C372.422 231.609 372.432 231.666 372.401 231.739C372.317 231.999 372.087 232.244 371.71 232.472C371.333 232.691 370.935 232.8 370.517 232.8C369.868 232.8 369.339 232.592 368.931 232.176C368.523 231.749 368.319 231.177 368.319 230.459V229.413H366.78V232.41C366.78 232.462 366.754 232.493 366.702 232.504H363.562C363.562 232.504 363.541 232.488 363.499 232.457C363.499 232.446 363.499 232.436 363.499 232.426C363.572 230.053 363.609 228.508 363.609 227.79C363.609 227.228 363.551 226.781 363.436 226.448C363.332 226.104 363.216 225.896 363.091 225.823C362.965 225.75 362.855 225.688 362.761 225.636C362.677 225.574 362.651 225.501 362.683 225.417C362.777 225.147 363.012 224.897 363.389 224.668C363.766 224.429 364.164 224.309 364.582 224.309C365.231 224.309 365.76 224.528 366.168 224.965C366.576 225.391 366.78 225.964 366.78 226.682V227.587H368.319V224.731C368.329 224.689 368.355 224.663 368.397 224.653H371.412C371.453 224.653 371.474 224.679 371.474 224.731V229.351Z" fill="white"/>
<path d="M381.561 231.474C381.687 231.536 381.75 231.598 381.75 231.661C381.76 231.723 381.702 231.833 381.577 231.989C381.368 232.218 381.085 232.415 380.729 232.582C380.373 232.759 379.991 232.847 379.583 232.847C378.986 232.847 378.495 232.727 378.107 232.488C377.72 232.238 377.448 231.937 377.291 231.583C377.134 231.219 377.014 230.86 376.93 230.506C376.846 230.152 376.757 229.845 376.663 229.585C376.569 229.325 376.433 229.184 376.255 229.164V232.41L376.192 232.504H373.036C372.994 232.493 372.974 232.467 372.974 232.426C373.057 230.053 373.099 228.508 373.099 227.79C373.099 227.228 373.042 226.781 372.926 226.448C372.822 226.104 372.707 225.896 372.581 225.823C372.455 225.75 372.346 225.688 372.251 225.636C372.168 225.574 372.141 225.501 372.173 225.417C372.267 225.147 372.503 224.897 372.879 224.668C373.256 224.429 373.654 224.309 374.073 224.309C374.711 224.309 375.234 224.528 375.642 224.965C376.051 225.391 376.255 225.964 376.255 226.682V227.993C376.265 227.982 376.286 227.972 376.318 227.962C376.349 227.951 376.37 227.946 376.38 227.946C376.412 227.686 376.475 227.41 376.569 227.119C376.663 226.817 376.799 226.5 376.977 226.167C377.155 225.823 377.359 225.516 377.589 225.246C377.819 224.975 378.107 224.752 378.453 224.575C378.798 224.398 379.17 224.309 379.567 224.309C380.143 224.309 380.609 224.476 380.965 224.809C381.331 225.131 381.514 225.548 381.514 226.057C381.514 226.567 381.352 226.973 381.027 227.275C380.713 227.566 380.305 227.712 379.803 227.712C379.593 227.712 379.405 227.681 379.238 227.618C379.081 227.556 379.002 227.467 379.002 227.353C379.002 227.343 379.002 227.29 379.002 227.197C379.013 227.093 379.013 227.015 379.002 226.963C379.002 226.9 378.992 226.833 378.971 226.76C378.95 226.677 378.908 226.614 378.845 226.573C378.782 226.52 378.704 226.489 378.61 226.479C378.338 226.448 378.123 226.573 377.966 226.853C377.809 227.134 377.72 227.447 377.699 227.79C378.317 227.707 378.819 227.91 379.206 228.399C379.332 228.565 379.484 228.872 379.662 229.32C379.85 229.767 380.085 230.178 380.368 230.553C380.661 230.917 381.059 231.224 381.561 231.474Z" fill="white"/>
<path d="M390.396 229.366C390.396 229.928 390.448 230.381 390.553 230.724C390.668 231.057 390.788 231.26 390.914 231.333C391.039 231.406 391.144 231.474 391.228 231.536C391.311 231.588 391.338 231.656 391.306 231.739C391.222 232.009 390.992 232.264 390.615 232.504C390.239 232.733 389.841 232.847 389.422 232.847C388.878 232.847 388.412 232.691 388.025 232.379C387.638 232.056 387.392 231.619 387.287 231.068C386.67 232.244 385.843 232.831 384.807 232.831C384.179 232.831 383.624 232.618 383.142 232.192C382.661 231.765 382.305 231.234 382.075 230.599C381.845 229.965 381.73 229.288 381.73 228.57C381.73 227.426 382.012 226.437 382.577 225.605C383.142 224.762 383.912 224.341 384.885 224.341C385.89 224.341 386.67 224.835 387.224 225.823V224.746C387.224 224.694 387.251 224.663 387.303 224.653H390.443C390.485 224.663 390.506 224.689 390.506 224.731C390.432 227.103 390.396 228.648 390.396 229.366ZM385.278 230.084C385.487 230.48 385.775 230.678 386.141 230.678C386.507 230.678 386.795 230.48 387.005 230.084C387.214 229.689 387.319 229.184 387.319 228.57C387.319 227.956 387.214 227.452 387.005 227.056C386.795 226.651 386.507 226.448 386.141 226.448C385.775 226.448 385.487 226.651 385.278 227.056C385.068 227.452 384.964 227.956 384.964 228.57C384.964 229.184 385.068 229.689 385.278 230.084Z" fill="white"/>
<path d="M394.119 230.178C394.423 230.48 394.575 230.839 394.575 231.255C394.575 231.671 394.423 232.03 394.119 232.332C393.826 232.634 393.465 232.785 393.036 232.785C392.607 232.785 392.241 232.634 391.937 232.332C391.644 232.03 391.498 231.671 391.498 231.255C391.498 230.839 391.644 230.48 391.937 230.178C392.241 229.876 392.607 229.725 393.036 229.725C393.465 229.725 393.826 229.876 394.119 230.178Z" fill="white"/>
<path d="M401.256 224.309C402.188 224.309 402.931 224.741 403.485 225.605C404.04 226.458 404.317 227.447 404.317 228.57C404.317 229.715 404.035 230.709 403.47 231.552C402.915 232.384 402.151 232.8 401.178 232.8C400.173 232.8 399.393 232.306 398.838 231.317V235.844C398.838 235.896 398.812 235.927 398.76 235.938H395.62C395.62 235.938 395.599 235.922 395.557 235.891C395.557 235.88 395.557 235.87 395.557 235.86C395.547 231.198 395.541 228.508 395.541 227.79C395.541 227.228 395.494 226.781 395.4 226.448C395.306 226.104 395.201 225.896 395.086 225.823C394.971 225.75 394.877 225.688 394.804 225.636C394.73 225.574 394.709 225.501 394.741 225.417C394.835 225.147 395.07 224.897 395.447 224.668C395.824 224.429 396.222 224.309 396.64 224.309C397.185 224.309 397.65 224.471 398.038 224.793C398.425 225.105 398.671 225.537 398.776 226.089C399.393 224.902 400.22 224.309 401.256 224.309ZM399.058 230.1C399.267 230.495 399.555 230.693 399.922 230.693C400.288 230.693 400.576 230.495 400.785 230.1C400.994 229.694 401.099 229.184 401.099 228.57C401.099 227.956 400.994 227.452 400.785 227.056C400.576 226.661 400.288 226.463 399.922 226.463C399.555 226.463 399.267 226.661 399.058 227.056C398.849 227.452 398.744 227.956 398.744 228.57C398.744 229.184 398.849 229.694 399.058 230.1Z" fill="white"/>
<path d="M412.995 231.364C413.047 232.748 412.691 233.867 411.927 234.72C411.174 235.573 410.085 236 408.662 236C407.961 236 407.333 235.854 406.778 235.563C406.234 235.282 405.841 234.991 405.601 234.689C405.37 234.398 405.213 234.127 405.13 233.877C405.056 233.638 405.014 233.445 405.004 233.3C404.993 233.164 405.009 233.076 405.051 233.034C405.093 233.003 405.145 232.993 405.208 233.003C405.281 233.014 405.386 233.081 405.522 233.206C405.669 233.341 405.82 233.482 405.977 233.628C406.145 233.784 406.391 233.919 406.715 234.033C407.04 234.158 407.401 234.221 407.798 234.221C408.395 234.221 408.876 234.023 409.243 233.628C409.609 233.243 409.803 232.795 409.824 232.285V230.724C409.531 231.349 409.149 231.807 408.678 232.098C408.217 232.389 407.751 232.535 407.28 232.535C406.684 232.535 406.176 232.296 405.758 231.817C405.339 231.338 405.13 230.719 405.13 229.96V227.837C405.13 227.379 405.088 226.999 405.004 226.697C404.92 226.385 404.821 226.172 404.706 226.057C404.601 225.933 404.491 225.839 404.376 225.776C404.271 225.714 404.193 225.667 404.14 225.636C404.078 225.594 404.057 225.537 404.078 225.464C404.172 225.194 404.407 224.944 404.784 224.715C405.161 224.476 405.559 224.356 405.977 224.356C406.637 224.356 407.186 224.575 407.626 225.012C408.065 225.438 408.285 226.011 408.285 226.729V229.444C408.285 230.006 408.442 230.308 408.756 230.35C409.039 230.391 409.29 230.209 409.51 229.803C409.688 229.481 409.782 229.091 409.792 228.633V224.746C409.792 224.705 409.813 224.679 409.855 224.668H412.885C412.927 224.668 412.948 224.694 412.948 224.746C412.979 227.774 412.995 229.98 412.995 231.364Z" fill="white"/>
<path d="M396.658 196.753C397.173 196.316 397.417 196.393 397.392 196.984C397.366 197.163 397.327 197.382 397.276 197.638C397.173 198.023 397.006 198.472 396.774 198.986C396.568 199.499 396.182 200.128 395.616 200.872C395.05 201.617 394.381 202.297 393.609 202.913C392.863 203.503 391.86 204.016 390.599 204.453C389.338 204.915 387.962 205.159 386.469 205.184C382.713 205.261 379.522 203.837 376.898 200.911C374.299 197.985 373 194.507 373 190.477C373 186.524 374.261 183.136 376.782 180.313C379.329 177.464 382.571 176.026 386.508 176.001C389.518 175.975 391.988 176.63 393.918 177.964C395.848 179.273 396.813 180.967 396.813 183.046C396.813 184.176 396.427 185.19 395.655 186.088C394.883 186.986 393.841 187.435 392.529 187.435C391.68 187.435 390.959 187.307 390.368 187.05C389.801 186.768 389.531 186.434 389.557 186.049C389.763 184.638 389.634 183.419 389.171 182.392C388.734 181.365 387.91 180.852 386.701 180.852C385.595 180.852 384.63 181.417 383.806 182.546C382.983 183.675 382.404 184.997 382.07 186.511C381.761 188.026 381.697 189.45 381.877 190.785C382.16 193.146 382.867 195.046 383.999 196.483C385.157 197.921 386.469 198.806 387.936 199.14C389.403 199.448 390.921 199.396 392.49 198.986C394.06 198.575 395.449 197.831 396.658 196.753Z" fill="white"/>
<path d="M418.106 185.01C418.106 185.087 418.145 185.138 418.222 185.164V204.145C418.222 204.247 418.17 204.312 418.067 204.337H410.619C410.516 204.337 410.464 204.273 410.464 204.145V188.552H406.142V204.145C406.116 204.247 406.052 204.312 405.949 204.337H398.5C398.397 204.337 398.346 204.273 398.346 204.145V185.164C398.371 185.087 398.423 185.036 398.5 185.01C401.356 184.445 404.611 184.163 408.264 184.163C411.944 184.137 415.224 184.42 418.106 185.01Z" fill="white"/>
<path d="M428.496 198.408C429.01 199.384 429.718 199.871 430.618 199.871C431.519 199.871 432.226 199.384 432.741 198.408C433.256 197.433 433.513 196.188 433.513 194.674C433.513 193.159 433.256 191.914 432.741 190.939C432.226 189.938 431.519 189.438 430.618 189.438C429.718 189.438 429.01 189.938 428.496 190.939C427.981 191.914 427.724 193.159 427.724 194.674C427.724 196.188 427.981 197.433 428.496 198.408ZM463.655 185.202V204.183C463.655 204.286 463.604 204.35 463.501 204.376H456.052C455.949 204.376 455.898 204.312 455.898 204.183V188.59H453.157C453.26 190.721 453.196 192.646 452.964 194.366C452.733 196.085 452.411 197.51 452 198.639C451.614 199.743 451.086 200.718 450.417 201.565C449.748 202.387 449.105 203.015 448.487 203.452C447.896 203.888 447.188 204.247 446.365 204.53C445.541 204.812 444.872 204.979 444.358 205.03C443.869 205.107 443.277 205.172 442.582 205.223C440.524 205.351 438.594 205.018 436.793 204.222C435.018 203.4 433.899 202.284 433.436 200.872C431.918 203.773 429.885 205.223 427.338 205.223C425.794 205.223 424.43 204.697 423.247 203.644C422.063 202.592 421.188 201.283 420.622 199.717C420.056 198.152 419.773 196.483 419.773 194.712C419.773 191.889 420.468 189.45 421.857 187.397C423.247 185.318 425.138 184.278 427.531 184.278C430.001 184.278 431.918 185.498 433.281 187.936V185.279C433.281 185.151 433.346 185.074 433.474 185.048H441.193C441.296 185.074 441.347 185.138 441.347 185.241L441.193 198.87C441.219 200.616 441.592 201.514 442.312 201.565C442.981 201.617 443.663 200.911 444.358 199.448C444.744 198.626 445.078 197.625 445.361 196.445C445.67 195.11 445.914 193.506 446.095 191.632C446.3 189.758 446.429 188.231 446.481 187.05L446.519 185.241C446.519 185.113 446.571 185.048 446.674 185.048C451.974 183.868 457.596 183.868 463.539 185.048C463.616 185.048 463.655 185.1 463.655 185.202Z" fill="white"/>
<path d="M484.834 198.408C485.014 198.537 485.053 198.742 484.95 199.024C484.821 199.486 484.525 200.038 484.062 200.68C483.625 201.321 483.033 202.002 482.287 202.72C481.566 203.413 480.614 203.991 479.431 204.453C478.247 204.941 476.999 205.184 475.687 205.184C472.78 205.184 470.297 204.158 468.238 202.104C466.206 200.051 465.19 197.574 465.19 194.674C465.19 191.773 466.206 189.309 468.238 187.281C470.297 185.228 472.947 184.201 476.189 184.201C479.071 184.201 481.296 184.92 482.866 186.357C484.461 187.769 485.259 189.284 485.259 190.901C485.259 192.338 484.86 193.544 484.062 194.52C483.29 195.469 482.3 196.111 481.09 196.445C479.907 196.778 478.595 196.997 477.154 197.099C475.739 197.202 474.401 197.112 473.14 196.83C473.809 198.703 475.25 199.781 477.463 200.064C479.701 200.346 481.991 199.807 484.332 198.447C484.512 198.318 484.68 198.306 484.834 198.408ZM474.838 188.937C473.68 189.63 473.011 191.132 472.831 193.442C474.504 193.596 475.777 193.403 476.652 192.864C477.527 192.299 477.964 191.478 477.964 190.4C477.964 189.861 477.771 189.412 477.385 189.052C476.999 188.693 476.511 188.526 475.919 188.552C475.919 188.578 475.906 188.59 475.88 188.59H475.764C475.456 188.642 475.147 188.757 474.838 188.937Z" fill="white"/>
<path d="M506.916 196.599C506.916 197.728 507.006 198.678 507.186 199.448C507.366 200.192 507.572 200.718 507.804 201.026C508.061 201.309 508.306 201.527 508.537 201.681C508.794 201.835 508.987 201.963 509.116 202.066C509.245 202.168 509.27 202.31 509.193 202.489C508.987 203.131 508.421 203.734 507.495 204.299C506.569 204.838 505.591 205.107 504.562 205.107C502.967 205.107 501.667 204.594 500.664 203.567C499.66 202.515 499.159 201.103 499.159 199.332V196.753H495.376V204.145C495.376 204.273 495.312 204.35 495.183 204.376H487.465C487.465 204.376 487.413 204.337 487.31 204.26C487.31 204.235 487.31 204.209 487.31 204.183C487.49 198.331 487.58 194.52 487.58 192.749C487.58 191.363 487.439 190.259 487.156 189.438C486.898 188.59 486.615 188.077 486.307 187.897C485.998 187.718 485.728 187.564 485.496 187.435C485.29 187.281 485.226 187.102 485.303 186.896C485.535 186.229 486.114 185.613 487.04 185.048C487.966 184.458 488.944 184.163 489.973 184.163C491.568 184.163 492.868 184.702 493.871 185.78C494.875 186.832 495.376 188.244 495.376 190.015V192.248H499.159V185.202C499.184 185.1 499.249 185.036 499.352 185.01H506.762C506.865 185.01 506.916 185.074 506.916 185.202V196.599Z" fill="white"/>
<path d="M531.713 201.835C532.022 201.989 532.176 202.143 532.176 202.297C532.202 202.451 532.06 202.72 531.751 203.105C531.237 203.67 530.542 204.158 529.667 204.568C528.792 205.005 527.853 205.223 526.85 205.223C525.383 205.223 524.174 204.928 523.222 204.337C522.27 203.721 521.601 202.977 521.215 202.104C520.829 201.206 520.533 200.32 520.327 199.448C520.122 198.575 519.903 197.818 519.671 197.176C519.44 196.534 519.105 196.188 518.668 196.137V204.145L518.513 204.376H510.756C510.653 204.35 510.602 204.286 510.602 204.183C510.807 198.331 510.91 194.52 510.91 192.749C510.91 191.363 510.769 190.259 510.486 189.438C510.229 188.59 509.946 188.077 509.637 187.897C509.328 187.718 509.058 187.564 508.826 187.435C508.62 187.281 508.556 187.102 508.633 186.896C508.865 186.229 509.444 185.613 510.37 185.048C511.296 184.458 512.274 184.163 513.303 184.163C514.873 184.163 516.159 184.702 517.163 185.78C518.166 186.832 518.668 188.244 518.668 190.015V193.249C518.694 193.223 518.745 193.198 518.822 193.172C518.899 193.146 518.951 193.134 518.977 193.134C519.054 192.492 519.208 191.812 519.44 191.093C519.671 190.349 520.006 189.566 520.443 188.744C520.881 187.897 521.382 187.14 521.948 186.473C522.514 185.806 523.222 185.254 524.071 184.817C524.92 184.381 525.834 184.163 526.811 184.163C528.226 184.163 529.371 184.574 530.246 185.395C531.147 186.191 531.597 187.217 531.597 188.475C531.597 189.733 531.198 190.734 530.401 191.478C529.629 192.197 528.625 192.556 527.39 192.556C526.876 192.556 526.412 192.479 526.001 192.325C525.615 192.171 525.422 191.953 525.422 191.671C525.422 191.645 525.422 191.517 525.422 191.286C525.448 191.029 525.448 190.836 525.422 190.708C525.422 190.554 525.396 190.387 525.345 190.208C525.293 190.002 525.19 189.848 525.036 189.746C524.882 189.617 524.689 189.54 524.457 189.515C523.788 189.438 523.261 189.746 522.875 190.439C522.489 191.132 522.27 191.902 522.219 192.749C523.737 192.543 524.972 193.044 525.924 194.25C526.232 194.661 526.605 195.418 527.043 196.522C527.506 197.625 528.085 198.639 528.78 199.563C529.5 200.462 530.478 201.219 531.713 201.835Z" fill="white"/>
<path d="M553.431 196.637C553.431 198.023 553.56 199.14 553.817 199.987C554.1 200.808 554.396 201.309 554.705 201.488C555.013 201.668 555.271 201.835 555.476 201.989C555.682 202.117 555.747 202.284 555.669 202.489C555.464 203.157 554.898 203.785 553.971 204.376C553.045 204.941 552.067 205.223 551.038 205.223C549.7 205.223 548.555 204.838 547.603 204.068C546.651 203.272 546.047 202.194 545.789 200.834C544.271 203.734 542.239 205.184 539.691 205.184C538.148 205.184 536.784 204.658 535.6 203.606C534.417 202.553 533.542 201.244 532.976 199.679C532.41 198.113 532.127 196.445 532.127 194.674C532.127 191.85 532.821 189.412 534.211 187.358C535.6 185.279 537.491 184.24 539.884 184.24C542.354 184.24 544.271 185.459 545.635 187.897V185.241C545.635 185.113 545.699 185.036 545.828 185.01H553.547C553.65 185.036 553.701 185.1 553.701 185.202C553.521 191.055 553.431 194.866 553.431 196.637ZM540.849 198.408C541.364 199.384 542.071 199.871 542.972 199.871C543.872 199.871 544.58 199.384 545.094 198.408C545.609 197.433 545.866 196.188 545.866 194.674C545.866 193.159 545.609 191.914 545.094 190.939C544.58 189.938 543.872 189.438 542.972 189.438C542.071 189.438 541.364 189.938 540.849 190.939C540.335 191.914 540.077 193.159 540.077 194.674C540.077 196.188 540.335 197.433 540.849 198.408Z" fill="white"/>
<path d="M562.585 198.639C563.331 199.384 563.704 200.269 563.704 201.296C563.704 202.322 563.331 203.208 562.585 203.952C561.865 204.697 560.977 205.069 559.922 205.069C558.867 205.069 557.967 204.697 557.22 203.952C556.5 203.208 556.14 202.322 556.14 201.296C556.14 200.269 556.5 199.384 557.22 198.639C557.967 197.895 558.867 197.523 559.922 197.523C560.977 197.523 561.865 197.895 562.585 198.639Z" fill="white"/>
<path d="M580.13 184.163C582.419 184.163 584.246 185.228 585.61 187.358C586.974 189.463 587.655 191.902 587.655 194.674C587.655 197.497 586.961 199.948 585.571 202.027C584.208 204.081 582.329 205.107 579.937 205.107C577.467 205.107 575.55 203.888 574.186 201.45V212.615C574.186 212.743 574.122 212.82 573.993 212.846H566.274C566.274 212.846 566.223 212.807 566.12 212.73C566.12 212.705 566.12 212.679 566.12 212.653C566.094 201.155 566.081 194.52 566.081 192.749C566.081 191.363 565.965 190.259 565.734 189.438C565.502 188.59 565.245 188.077 564.962 187.897C564.679 187.718 564.447 187.564 564.267 187.435C564.087 187.281 564.036 187.102 564.113 186.896C564.344 186.229 564.923 185.613 565.85 185.048C566.776 184.458 567.754 184.163 568.783 184.163C570.121 184.163 571.266 184.561 572.218 185.356C573.17 186.126 573.774 187.192 574.032 188.552C575.55 185.626 577.582 184.163 580.13 184.163ZM574.726 198.447C575.241 199.422 575.948 199.91 576.849 199.91C577.75 199.91 578.457 199.422 578.972 198.447C579.486 197.446 579.744 196.188 579.744 194.674C579.744 193.159 579.486 191.914 578.972 190.939C578.457 189.964 577.75 189.476 576.849 189.476C575.948 189.476 575.241 189.964 574.726 190.939C574.212 191.914 573.954 193.159 573.954 194.674C573.954 196.188 574.212 197.446 574.726 198.447Z" fill="white"/>
<path d="M608.988 201.565C609.116 204.979 608.241 207.738 606.363 209.843C604.511 211.948 601.835 213 598.336 213C596.612 213 595.068 212.641 593.704 211.922C592.366 211.229 591.401 210.51 590.81 209.766C590.244 209.047 589.858 208.38 589.652 207.764C589.472 207.174 589.369 206.699 589.343 206.339C589.317 206.006 589.356 205.788 589.459 205.685C589.562 205.608 589.69 205.582 589.845 205.608C590.025 205.634 590.282 205.8 590.617 206.108C590.977 206.442 591.35 206.789 591.736 207.148C592.148 207.533 592.752 207.867 593.55 208.149C594.347 208.457 595.235 208.611 596.213 208.611C597.679 208.611 598.863 208.123 599.764 207.148C600.664 206.198 601.14 205.095 601.192 203.837V199.987C600.471 201.527 599.532 202.656 598.374 203.375C597.242 204.093 596.097 204.453 594.939 204.453C593.473 204.453 592.225 203.862 591.196 202.682C590.166 201.501 589.652 199.974 589.652 198.1V192.864C589.652 191.735 589.549 190.798 589.343 190.054C589.137 189.284 588.893 188.757 588.61 188.475C588.352 188.167 588.082 187.936 587.799 187.782C587.542 187.628 587.349 187.512 587.22 187.435C587.066 187.333 587.015 187.192 587.066 187.012C587.298 186.345 587.876 185.729 588.803 185.164C589.729 184.574 590.707 184.278 591.736 184.278C593.357 184.278 594.708 184.817 595.788 185.895C596.869 186.948 597.409 188.359 597.409 190.131V196.83C597.409 198.216 597.795 198.96 598.567 199.063C599.262 199.165 599.879 198.716 600.42 197.715C600.857 196.919 601.089 195.957 601.114 194.828V185.241C601.114 185.138 601.166 185.074 601.269 185.048H608.717C608.82 185.048 608.872 185.113 608.872 185.241C608.949 192.71 608.988 198.152 608.988 201.565Z" fill="white"/>
<path d="M136.433 234.779C136.725 234.531 136.864 234.575 136.85 234.91C136.835 235.012 136.813 235.135 136.784 235.281C136.725 235.5 136.63 235.755 136.499 236.046C136.382 236.337 136.163 236.694 135.841 237.117C135.52 237.539 135.14 237.925 134.702 238.275C134.278 238.61 133.709 238.901 132.993 239.149C132.277 239.411 131.495 239.55 130.648 239.564C128.515 239.608 126.703 238.799 125.213 237.139C123.738 235.478 123 233.504 123 231.217C123 228.973 123.716 227.05 125.148 225.448C126.594 223.831 128.435 223.015 130.67 223C132.379 222.986 133.782 223.357 134.877 224.115C135.973 224.858 136.521 225.819 136.521 226.999C136.521 227.64 136.302 228.216 135.863 228.726C135.425 229.235 134.833 229.49 134.088 229.49C133.606 229.49 133.197 229.418 132.861 229.272C132.54 229.112 132.386 228.922 132.401 228.704C132.518 227.903 132.445 227.211 132.182 226.628C131.934 226.045 131.466 225.754 130.779 225.754C130.151 225.754 129.603 226.074 129.136 226.715C128.668 227.356 128.34 228.106 128.15 228.966C127.974 229.825 127.938 230.634 128.04 231.392C128.201 232.732 128.603 233.81 129.245 234.626C129.903 235.441 130.648 235.944 131.481 236.133C132.313 236.308 133.175 236.279 134.066 236.046C134.958 235.813 135.747 235.39 136.433 234.779Z" fill="white"/>
<path d="M148.611 228.114C148.611 228.157 148.633 228.187 148.677 228.201V238.974C148.677 239.032 148.648 239.069 148.589 239.083H144.36C144.301 239.083 144.272 239.047 144.272 238.974V230.124H141.818V238.974C141.803 239.032 141.767 239.069 141.708 239.083H137.479C137.42 239.083 137.391 239.047 137.391 238.974V228.201C137.406 228.157 137.435 228.128 137.479 228.114C139.1 227.793 140.949 227.633 143.023 227.633C145.112 227.618 146.975 227.779 148.611 228.114Z" fill="white"/>
<path d="M154.51 235.718C154.802 236.272 155.204 236.549 155.715 236.549C156.227 236.549 156.629 236.272 156.921 235.718C157.213 235.165 157.359 234.458 157.359 233.599C157.359 232.739 157.213 232.032 156.921 231.479C156.629 230.911 156.227 230.627 155.715 230.627C155.204 230.627 154.802 230.911 154.51 231.479C154.218 232.032 154.072 232.739 154.072 233.599C154.072 234.458 154.218 235.165 154.51 235.718ZM174.474 228.223V238.996C174.474 239.054 174.444 239.091 174.386 239.105H170.157C170.098 239.105 170.069 239.069 170.069 238.996V230.146H168.513C168.572 231.355 168.535 232.448 168.404 233.424C168.272 234.4 168.089 235.208 167.856 235.849C167.637 236.476 167.337 237.029 166.957 237.51C166.577 237.976 166.212 238.333 165.862 238.581C165.526 238.828 165.124 239.032 164.656 239.193C164.189 239.353 163.809 239.448 163.517 239.477C163.239 239.52 162.903 239.557 162.509 239.586C161.34 239.659 160.244 239.469 159.222 239.018C158.214 238.552 157.578 237.918 157.315 237.117C156.453 238.763 155.299 239.586 153.853 239.586C152.976 239.586 152.202 239.287 151.53 238.69C150.858 238.093 150.361 237.35 150.04 236.461C149.718 235.572 149.558 234.626 149.558 233.62C149.558 232.018 149.952 230.634 150.741 229.469C151.53 228.289 152.604 227.699 153.962 227.699C155.365 227.699 156.453 228.391 157.227 229.774V228.267C157.227 228.194 157.264 228.15 157.337 228.136H161.72C161.778 228.15 161.807 228.187 161.807 228.245L161.72 235.98C161.734 236.971 161.946 237.481 162.355 237.51C162.735 237.539 163.122 237.139 163.517 236.308C163.736 235.842 163.926 235.274 164.086 234.604C164.262 233.846 164.401 232.936 164.503 231.872C164.62 230.809 164.693 229.942 164.722 229.272L164.744 228.245C164.744 228.172 164.773 228.136 164.832 228.136C167.841 227.465 171.033 227.465 174.408 228.136C174.452 228.136 174.474 228.165 174.474 228.223Z" fill="white"/>
<path d="M186.499 235.718C186.601 235.791 186.623 235.908 186.565 236.068C186.492 236.33 186.324 236.643 186.061 237.007C185.812 237.372 185.476 237.758 185.053 238.166C184.644 238.559 184.103 238.887 183.431 239.149C182.759 239.426 182.051 239.564 181.305 239.564C179.655 239.564 178.245 238.981 177.076 237.816C175.922 236.651 175.345 235.245 175.345 233.599C175.345 231.952 175.922 230.554 177.076 229.403C178.245 228.238 179.75 227.655 181.59 227.655C183.227 227.655 184.49 228.063 185.381 228.879C186.287 229.68 186.74 230.539 186.74 231.457C186.74 232.273 186.514 232.958 186.061 233.511C185.622 234.05 185.06 234.414 184.373 234.604C183.701 234.793 182.956 234.917 182.138 234.975C181.335 235.033 180.575 234.982 179.859 234.822C180.239 235.886 181.057 236.498 182.313 236.658C183.584 236.818 184.885 236.512 186.214 235.74C186.316 235.667 186.411 235.66 186.499 235.718ZM180.823 230.343C180.166 230.736 179.786 231.588 179.684 232.899C180.633 232.987 181.357 232.877 181.853 232.572C182.35 232.251 182.598 231.785 182.598 231.173C182.598 230.867 182.489 230.612 182.27 230.408C182.051 230.204 181.773 230.11 181.437 230.124C181.437 230.139 181.43 230.146 181.415 230.146H181.349C181.174 230.175 180.999 230.241 180.823 230.343Z" fill="white"/>
<path d="M199.037 234.691C199.037 235.332 199.088 235.871 199.191 236.308C199.293 236.731 199.41 237.029 199.541 237.204C199.687 237.364 199.826 237.488 199.958 237.576C200.104 237.663 200.213 237.736 200.286 237.794C200.359 237.852 200.374 237.932 200.33 238.034C200.213 238.399 199.892 238.741 199.366 239.061C198.84 239.367 198.285 239.52 197.7 239.52C196.795 239.52 196.057 239.229 195.487 238.646C194.917 238.049 194.632 237.248 194.632 236.243V234.779H192.485V238.974C192.485 239.047 192.448 239.091 192.375 239.105H187.993C187.993 239.105 187.963 239.083 187.905 239.04C187.905 239.025 187.905 239.011 187.905 238.996C188.007 235.674 188.058 233.511 188.058 232.506C188.058 231.719 187.978 231.093 187.817 230.627C187.671 230.146 187.51 229.855 187.335 229.753C187.16 229.651 187.006 229.563 186.875 229.49C186.758 229.403 186.722 229.301 186.765 229.184C186.897 228.806 187.226 228.456 187.752 228.136C188.277 227.801 188.833 227.633 189.417 227.633C190.323 227.633 191.061 227.939 191.63 228.551C192.2 229.148 192.485 229.949 192.485 230.954V232.222H194.632V228.223C194.647 228.165 194.684 228.128 194.742 228.114H198.949C199.008 228.114 199.037 228.15 199.037 228.223V234.691Z" fill="white"/>
<path d="M213.117 237.663C213.292 237.75 213.38 237.838 213.38 237.925C213.394 238.013 213.314 238.166 213.138 238.384C212.846 238.705 212.452 238.981 211.955 239.214C211.458 239.462 210.925 239.586 210.355 239.586C209.523 239.586 208.836 239.418 208.296 239.083C207.755 238.734 207.375 238.311 207.156 237.816C206.937 237.306 206.769 236.803 206.652 236.308C206.535 235.813 206.411 235.383 206.279 235.019C206.148 234.655 205.958 234.458 205.71 234.429V238.974L205.622 239.105H201.217C201.159 239.091 201.13 239.054 201.13 238.996C201.247 235.674 201.305 233.511 201.305 232.506C201.305 231.719 201.225 231.093 201.064 230.627C200.918 230.146 200.757 229.855 200.582 229.753C200.407 229.651 200.253 229.563 200.122 229.49C200.005 229.403 199.968 229.301 200.012 229.184C200.144 228.806 200.472 228.456 200.998 228.136C201.524 227.801 202.079 227.633 202.664 227.633C203.555 227.633 204.285 227.939 204.855 228.551C205.425 229.148 205.71 229.949 205.71 230.954V232.79C205.724 232.775 205.754 232.761 205.797 232.746C205.841 232.732 205.87 232.724 205.885 232.724C205.929 232.36 206.017 231.974 206.148 231.566C206.279 231.144 206.469 230.7 206.718 230.233C206.966 229.753 207.251 229.323 207.572 228.944C207.894 228.565 208.296 228.252 208.778 228.004C209.26 227.757 209.778 227.633 210.334 227.633C211.137 227.633 211.787 227.866 212.284 228.332C212.795 228.784 213.051 229.367 213.051 230.08C213.051 230.794 212.824 231.362 212.372 231.785C211.933 232.193 211.363 232.397 210.662 232.397C210.37 232.397 210.107 232.353 209.873 232.266C209.654 232.178 209.545 232.054 209.545 231.894C209.545 231.88 209.545 231.807 209.545 231.676C209.559 231.53 209.559 231.421 209.545 231.348C209.545 231.26 209.53 231.166 209.501 231.064C209.472 230.947 209.413 230.86 209.325 230.802C209.238 230.729 209.128 230.685 208.997 230.67C208.617 230.627 208.317 230.802 208.098 231.195C207.879 231.588 207.755 232.025 207.726 232.506C208.588 232.389 209.289 232.673 209.83 233.358C210.005 233.591 210.217 234.021 210.465 234.647C210.728 235.274 211.057 235.849 211.451 236.374C211.86 236.884 212.415 237.313 213.117 237.663Z" fill="white"/>
<path d="M225.448 234.713C225.448 235.5 225.521 236.133 225.667 236.614C225.828 237.08 225.996 237.364 226.171 237.466C226.347 237.568 226.493 237.663 226.609 237.75C226.726 237.823 226.763 237.918 226.719 238.034C226.602 238.413 226.281 238.77 225.755 239.105C225.229 239.426 224.674 239.586 224.089 239.586C223.33 239.586 222.68 239.367 222.139 238.93C221.599 238.479 221.255 237.867 221.109 237.095C220.247 238.741 219.093 239.564 217.647 239.564C216.77 239.564 215.996 239.265 215.324 238.668C214.652 238.071 214.155 237.328 213.834 236.439C213.512 235.551 213.352 234.604 213.352 233.599C213.352 231.996 213.746 230.612 214.535 229.447C215.324 228.267 216.398 227.677 217.756 227.677C219.159 227.677 220.247 228.369 221.021 229.753V228.245C221.021 228.172 221.058 228.128 221.131 228.114H225.514C225.572 228.128 225.601 228.165 225.601 228.223C225.499 231.544 225.448 233.708 225.448 234.713ZM218.304 235.718C218.596 236.272 218.998 236.549 219.509 236.549C220.021 236.549 220.422 236.272 220.715 235.718C221.007 235.165 221.153 234.458 221.153 233.599C221.153 232.739 221.007 232.032 220.715 231.479C220.422 230.911 220.021 230.627 219.509 230.627C218.998 230.627 218.596 230.911 218.304 231.479C218.012 232.032 217.866 232.739 217.866 233.599C217.866 234.458 218.012 235.165 218.304 235.718Z" fill="white"/>
<path d="M230.646 235.849C231.069 236.272 231.281 236.774 231.281 237.357C231.281 237.94 231.069 238.442 230.646 238.865C230.237 239.287 229.733 239.499 229.134 239.499C228.535 239.499 228.023 239.287 227.6 238.865C227.191 238.442 226.986 237.94 226.986 237.357C226.986 236.774 227.191 236.272 227.6 235.849C228.023 235.427 228.535 235.216 229.134 235.216C229.733 235.216 230.237 235.427 230.646 235.849Z" fill="white"/>
<path d="M240.607 227.633C241.908 227.633 242.945 228.238 243.719 229.447C244.493 230.641 244.881 232.025 244.881 233.599C244.881 235.201 244.486 236.592 243.697 237.772C242.923 238.938 241.857 239.52 240.498 239.52C239.095 239.52 238.007 238.828 237.233 237.444V243.781C237.233 243.854 237.196 243.898 237.123 243.913H232.74C232.74 243.913 232.711 243.891 232.653 243.847C232.653 243.832 232.653 243.818 232.653 243.803C232.638 237.277 232.631 233.511 232.631 232.506C232.631 231.719 232.565 231.093 232.434 230.627C232.302 230.146 232.156 229.855 231.995 229.753C231.835 229.651 231.703 229.563 231.601 229.49C231.499 229.403 231.469 229.301 231.513 229.184C231.645 228.806 231.973 228.456 232.499 228.136C233.025 227.801 233.58 227.633 234.165 227.633C234.924 227.633 235.575 227.859 236.115 228.31C236.656 228.747 236.999 229.352 237.145 230.124C238.007 228.463 239.161 227.633 240.607 227.633ZM237.54 235.74C237.832 236.294 238.233 236.57 238.745 236.57C239.256 236.57 239.658 236.294 239.95 235.74C240.242 235.172 240.388 234.458 240.388 233.599C240.388 232.739 240.242 232.032 239.95 231.479C239.658 230.925 239.256 230.649 238.745 230.649C238.233 230.649 237.832 230.925 237.54 231.479C237.247 232.032 237.101 232.739 237.101 233.599C237.101 234.458 237.247 235.172 237.54 235.74Z" fill="white"/>
<path d="M256.993 237.51C257.066 239.448 256.569 241.014 255.503 242.208C254.451 243.403 252.932 244 250.945 244C249.966 244 249.089 243.796 248.315 243.388C247.555 242.995 247.008 242.587 246.672 242.164C246.35 241.757 246.131 241.378 246.014 241.028C245.912 240.693 245.853 240.424 245.839 240.22C245.824 240.03 245.846 239.906 245.905 239.848C245.963 239.804 246.036 239.79 246.124 239.804C246.226 239.819 246.372 239.914 246.562 240.089C246.767 240.278 246.978 240.475 247.198 240.679C247.431 240.897 247.775 241.086 248.227 241.247C248.68 241.421 249.184 241.509 249.74 241.509C250.572 241.509 251.244 241.232 251.756 240.679C252.267 240.14 252.537 239.513 252.566 238.799V236.614C252.157 237.488 251.624 238.129 250.967 238.537C250.324 238.945 249.674 239.149 249.016 239.149C248.184 239.149 247.475 238.814 246.891 238.144C246.306 237.474 246.014 236.607 246.014 235.543V232.572C246.014 231.931 245.956 231.399 245.839 230.976C245.722 230.539 245.583 230.241 245.422 230.08C245.276 229.906 245.123 229.774 244.962 229.687C244.816 229.6 244.707 229.534 244.634 229.49C244.546 229.432 244.517 229.352 244.546 229.25C244.677 228.871 245.006 228.522 245.532 228.201C246.058 227.866 246.613 227.699 247.198 227.699C248.118 227.699 248.885 228.004 249.498 228.616C250.112 229.214 250.419 230.015 250.419 231.02V234.822C250.419 235.609 250.638 236.031 251.076 236.09C251.471 236.148 251.821 235.893 252.128 235.325C252.376 234.873 252.508 234.327 252.523 233.686V228.245C252.523 228.187 252.552 228.15 252.61 228.136H256.84C256.898 228.136 256.927 228.172 256.927 228.245C256.971 232.484 256.993 235.572 256.993 237.51Z" fill="white"/>
</g>
</svg>
