<svg width="27" height="23" viewBox="0 0 27 23" fill="none" xmlns="http://www.w3.org/2000/svg">
<path fill-rule="evenodd" clip-rule="evenodd" d="M14.2385 17.2753C14.8461 17.7143 15.4137 18.1182 15.9804 18.5222C17.4984 19.6111 19.0105 20.7 20.536 21.7801C20.722 21.9352 20.9435 22.0353 21.178 22.0708C21.4126 22.1063 21.6519 22.0753 21.8717 21.9817C22.0914 21.888 22.2837 21.7349 22.4292 21.5374C22.5746 21.34 22.668 21.1052 22.6998 20.8574C22.7663 20.55 22.8321 20.2514 22.897 19.944C24.208 13.8321 25.5188 7.71744 26.8292 1.59959C26.8848 1.41971 26.9 1.22845 26.8736 1.04131C26.8472 0.85417 26.7799 0.676616 26.6771 0.521616C26.5743 0.366616 26.4387 0.238803 26.2811 0.148569C26.1235 0.058336 25.9482 0.00753854 25.769 0.00106595C25.4634 -0.00867887 25.1591 0.0484957 24.8752 0.168294C16.8354 3.21258 8.79692 6.26538 0.759852 9.32723C0.546326 9.3506 0.349162 9.4591 0.208218 9.62996C0.0672745 9.80081 -0.00698569 10.0219 0.000517933 10.2483C0.00802156 10.4747 0.0966882 10.6894 0.2486 10.8494C0.400513 11.0095 0.604375 11.1026 0.818926 11.1101C2.6673 11.637 4.51234 12.1811 6.36487 12.6992C6.53206 12.7296 6.6873 12.8109 6.81182 12.9325C6.93634 13.0541 7.02481 13.2109 7.06645 13.3844C7.74388 15.5535 8.45373 17.7143 9.15529 19.8746C9.20351 20.1633 9.35778 20.4196 9.58451 20.5889C9.81124 20.7583 10.0921 20.8264 10.3662 20.7785C10.6613 20.7073 10.9335 20.556 11.156 20.3394C12.1862 19.3383 13.1949 18.3203 14.2385 17.2753ZM9.83442 18.5831C9.78282 18.4513 9.72207 18.3289 9.68046 18.1972C9.13452 16.4848 8.59052 14.7664 8.04847 13.0423C7.98957 12.9525 7.95195 12.8487 7.93885 12.7404C7.92576 12.6321 7.93758 12.5221 7.97324 12.4197C8.0089 12.3172 8.06737 12.2257 8.14376 12.1521C8.22015 12.0785 8.31217 12.0251 8.41211 11.9969C12.7669 9.36239 17.1222 6.73149 21.478 4.10286C21.5187 4.06056 21.5693 4.02977 21.6245 4.01453C21.791 4.01453 21.9516 4.02376 22.1147 4.03254C22.0963 4.19878 22.0413 4.35755 21.9541 4.49735C21.2425 5.14719 20.5102 5.76224 19.7845 6.38574C16.8151 8.94996 13.8444 11.5085 10.8722 14.0611C10.734 14.1706 10.62 14.3102 10.5382 14.471C10.4565 14.6317 10.4088 14.8094 10.3987 14.9915C10.3046 16.0453 10.1723 17.0996 10.0508 18.1534C10.035 18.2939 9.99418 18.4254 9.96755 18.5659C9.92178 18.5747 9.8777 18.5743 9.83442 18.5831Z" fill="url(#paint0_linear_2059_4373)"/>
<defs>
<linearGradient id="paint0_linear_2059_4373" x1="-4.94078" y1="44.1702" x2="32.4137" y2="37.7367" gradientUnits="userSpaceOnUse">
<stop stop-color="#108AEE"/>
<stop offset="0.610352" stop-color="#DC8CE1"/>
<stop offset="1" stop-color="#FF408E"/>
</linearGradient>
</defs>
</svg>
