<svg width="28" height="28" viewBox="0 0 28 28" fill="none" xmlns="http://www.w3.org/2000/svg">
<path fill-rule="evenodd" clip-rule="evenodd" d="M13.7413 0C13.0658 0.0637674 12.3689 0.0846911 11.7041 0.19097C9.58252 0.506799 7.565 1.31036 5.81293 2.53762C4.06087 3.76488 2.62293 5.3821 1.61421 7.25894C0.605483 9.13578 0.0539256 11.2201 0.00375882 13.3461C-0.0464079 15.4721 0.406189 17.5803 1.32528 19.5018C1.42323 19.7221 1.4531 19.9663 1.41108 20.2034C0.9822 22.3609 0.531835 24.508 0.0922357 26.6549C-0.0471494 27.3457 0.231652 27.5896 0.928578 27.4302C3.00863 26.9413 5.09937 26.4417 7.19015 25.974C7.46214 25.9147 7.74579 25.9375 8.00503 26.0384C9.87329 26.8843 11.909 27.304 13.9626 27.2683C16.0163 27.2325 18.0358 26.7413 19.873 25.8308C21.7101 24.9203 23.3182 23.6143 24.5793 22.0072C25.8403 20.4002 26.7222 18.5329 27.1604 16.5438C27.5986 14.5547 27.5819 12.4935 27.1114 10.5117C26.641 8.52983 25.7289 6.67754 24.442 5.09081C23.155 3.50408 21.5258 2.22411 19.6742 1.34302C17.8225 0.461928 15.7953 0.00301341 13.7413 0ZM3.73772 23.7322C3.95216 22.6482 4.11296 21.6482 4.38101 20.6705C4.59068 19.8877 4.49096 19.0558 4.10223 18.3435C3.27243 16.65 2.91018 14.7689 3.05222 12.8915C3.19426 11.0141 3.83555 9.2073 4.91089 7.65541C5.98623 6.10353 7.45723 4.8613 9.17407 4.05604C10.8909 3.25079 12.7923 2.91121 14.6848 3.07109C17.2559 3.28826 19.6619 4.41673 21.4623 6.24908C23.2626 8.08144 24.3367 10.4949 24.4878 13.0482C24.6388 15.6016 23.8568 18.1231 22.2849 20.1515C20.7129 22.1799 18.4564 23.5798 15.9285 24.0934C13.5097 24.6069 10.9858 24.2608 8.79844 23.1157C8.54448 22.9701 8.26299 22.8777 7.97152 22.8448C7.68005 22.8119 7.3849 22.8385 7.10442 22.9237C6.03223 23.2319 4.93857 23.4559 3.73772 23.7322ZM6.68625 10.5002C6.86156 11.2757 7.07625 12.0421 7.32954 12.796C7.90752 14.1333 8.76229 15.3346 9.8385 16.3238C11.3943 18.0241 13.3609 19.3042 15.5533 20.0436C17.9765 20.745 19.6812 20.1499 20.8928 18.2262C21.008 18.0912 21.0854 17.929 21.1174 17.755C21.1494 17.5811 21.1349 17.4017 21.0753 17.2351C21.0156 17.0684 20.9128 16.9204 20.7774 16.8054C20.6419 16.6903 20.4783 16.612 20.303 16.5791C19.777 16.4542 19.2581 16.302 18.7484 16.1225C18.3208 15.8672 17.8092 15.7881 17.3238 15.9035C16.8384 16.0188 16.4181 16.3193 16.1537 16.739C16.0309 16.924 15.8399 17.0535 15.6216 17.1012C15.4033 17.1488 15.1749 17.11 14.985 16.9932C13.2191 16.0498 11.6937 14.7203 10.5247 13.1043C10.3951 12.9395 10.3264 12.7351 10.3303 12.5262C10.3342 12.3172 10.4104 12.1163 10.5461 11.9564C10.7464 11.7486 10.9194 11.5161 11.0608 11.2652C11.22 10.9767 11.2766 10.6439 11.2216 10.3197C10.8798 9.39864 10.4861 8.49735 10.0422 7.62013C9.98681 7.50078 9.90522 7.39498 9.80342 7.31084C9.70163 7.2267 9.58217 7.16594 9.45377 7.13336C9.32537 7.10078 9.19125 7.09664 9.06118 7.12194C8.93112 7.14725 8.80843 7.20143 8.70198 7.2797C8.14198 7.6302 7.66955 8.10225 7.32038 8.66008C6.9712 9.21791 6.7544 9.84725 6.68625 10.5002Z" fill="url(#paint0_linear_2059_4371)"/>
<defs>
<linearGradient id="paint0_linear_2059_4371" x1="-5.04936" y1="54.9542" x2="33.4871" y2="49.5023" gradientUnits="userSpaceOnUse">
<stop stop-color="#108AEE"/>
<stop offset="0.610352" stop-color="#DC8CE1"/>
<stop offset="1" stop-color="#FF408E"/>
</linearGradient>
</defs>
</svg>
