<svg width="162" height="1030" viewBox="0 0 162 1030" fill="none" xmlns="http://www.w3.org/2000/svg">
<path d="M90.863 926.745C88.9526 924.499 89.2897 923.432 91.8745 923.545C92.6611 923.657 93.6163 923.825 94.7402 924.05C96.4259 924.499 98.3925 925.229 100.64 926.24C102.888 927.138 105.641 928.823 108.9 931.293C112.159 933.763 115.137 936.683 117.834 940.052C120.419 943.309 122.667 947.688 124.577 953.19C126.6 958.693 127.668 964.701 127.78 971.214C128.117 987.609 121.88 1001.53 109.069 1012.99C96.2573 1024.33 81.0297 1030 63.3859 1030C46.0793 1030 31.245 1024.5 18.8832 1013.49C6.40888 1002.38 0.115558 988.226 0.00317793 971.045C-0.109202 957.907 2.75651 947.127 8.6003 938.704C14.3317 930.282 21.7489 926.071 30.8517 926.071C35.7964 926.071 40.2355 927.756 44.1688 931.125C48.1021 934.493 50.0688 939.041 50.0688 944.768C50.0688 948.474 49.5069 951.618 48.3831 954.201C47.1469 956.672 45.686 957.851 44.0002 957.738C37.8193 956.84 32.4812 957.402 27.986 959.423C23.4908 961.332 21.2431 964.925 21.2431 970.203C21.2431 975.032 23.7155 979.243 28.6603 982.836C33.605 986.43 39.3926 988.956 46.0231 990.416C52.6536 991.764 58.8907 992.044 64.7345 991.258C75.0735 990.023 83.3897 986.935 89.683 981.994C95.9763 976.941 99.8535 971.214 101.314 964.813C102.663 958.412 102.438 951.787 100.64 944.937C98.8421 938.087 95.583 932.023 90.863 926.745Z" fill="black" fill-opacity="0.04"/>
<path d="M39.4488 833.139C39.786 833.139 40.0107 832.97 40.1231 832.633L123.229 832.633C123.678 832.633 123.959 832.858 124.072 833.307L124.072 865.816C124.072 866.266 123.791 866.49 123.229 866.49L54.9574 866.49L54.9574 885.356L123.229 885.356C123.678 885.468 123.959 885.749 124.072 886.198L124.072 918.707C124.072 919.156 123.791 919.381 123.229 919.381L40.1231 919.381C39.786 919.269 39.5612 919.044 39.4488 918.707C36.9764 906.243 35.7403 892.037 35.7403 876.091C35.6279 860.033 36.8641 845.716 39.4488 833.139Z" fill="black" fill-opacity="0.04"/>
<path d="M98.1116 787.795C102.382 785.549 104.517 782.461 104.517 778.531C104.517 774.6 102.382 771.512 98.1116 769.266C93.8411 767.02 88.3906 765.898 81.7602 765.898C75.1297 765.898 69.6792 767.02 65.4088 769.266C61.0259 771.512 58.8345 774.6 58.8345 778.531C58.8345 782.461 61.0259 785.549 65.4088 787.795C69.6792 790.041 75.1297 791.164 81.7602 791.164C88.3906 791.164 93.8411 790.041 98.1116 787.795ZM40.2917 634.344L123.397 634.344C123.847 634.344 124.128 634.569 124.24 635.018L124.24 667.527C124.24 667.977 123.959 668.201 123.397 668.201L55.1259 668.201L55.1259 680.161C64.4535 679.711 72.8821 679.992 80.4116 681.003C87.9411 682.013 94.1782 683.417 99.123 685.214C103.955 686.898 108.226 689.2 111.934 692.12C115.531 695.04 118.284 697.847 120.194 700.542C122.105 703.125 123.678 706.213 124.914 709.806C126.151 713.4 126.881 716.319 127.106 718.565C127.443 720.699 127.724 723.282 127.949 726.314C128.511 735.297 127.05 743.719 123.566 751.58C119.97 759.328 115.081 764.213 108.9 766.234C121.599 772.86 127.949 781.731 127.949 792.848C127.949 799.586 125.645 805.538 121.037 810.703C116.43 815.869 110.698 819.687 103.843 822.157C96.9878 824.628 89.683 825.863 81.9287 825.863C69.5669 825.863 58.8907 822.831 49.9002 816.767C40.7974 810.703 36.246 802.449 36.246 792.006C36.246 781.226 41.5841 772.86 52.2602 766.908L40.6288 766.908C40.0669 766.908 39.7298 766.627 39.6174 766.066L39.6174 732.378C39.7298 731.928 40.0107 731.704 40.4602 731.704L100.134 732.378C107.776 732.265 111.71 730.637 111.934 727.493C112.159 724.573 109.069 721.597 102.663 718.565C99.0668 716.881 94.684 715.421 89.5144 714.186C83.6706 712.838 76.6468 711.772 68.443 710.985C60.2393 710.087 53.5526 709.526 48.3831 709.301L40.4602 709.133C39.8983 709.133 39.6174 708.908 39.6174 708.459C34.4479 685.326 34.4479 660.79 39.6174 634.85C39.6174 634.513 39.8421 634.344 40.2917 634.344Z" fill="black" fill-opacity="0.04"/>
<path d="M98.1116 541.911C98.6735 541.124 99.5725 540.956 100.809 541.405C102.832 541.967 105.248 543.258 108.057 545.279C110.867 547.188 113.845 549.771 116.992 553.028C120.026 556.172 122.554 560.327 124.577 565.492C126.712 570.658 127.78 576.104 127.78 581.831C127.78 594.521 123.285 605.357 114.294 614.341C105.304 623.212 94.4592 627.647 81.7602 627.647C69.0611 627.647 58.2726 623.212 49.3945 614.341C40.404 605.357 35.9088 593.791 35.9088 579.642C35.9088 567.065 39.0555 557.351 45.3488 550.501C51.5297 543.539 58.1602 540.058 65.2402 540.058C71.5335 540.058 76.8154 541.798 81.0859 545.279C85.244 548.648 88.0535 552.972 89.5144 558.249C90.9754 563.415 91.9306 569.142 92.3801 575.431C92.8297 581.607 92.4363 587.446 91.2002 592.948C99.4039 590.029 104.124 583.74 105.36 574.083C106.596 564.313 104.236 554.319 98.2801 544.1C97.7182 543.314 97.662 542.584 98.1116 541.911ZM56.6431 585.537C59.6773 590.59 66.2516 593.51 76.3659 594.296C77.0402 586.997 76.1973 581.438 73.8373 577.62C71.3649 573.802 67.7688 571.893 63.0488 571.893C60.6888 571.893 58.7221 572.735 57.1488 574.42C55.5754 576.104 54.845 578.238 54.9574 580.821C55.0697 580.821 55.1259 580.877 55.1259 580.989L55.1259 581.494C55.3507 582.842 55.8564 584.189 56.6431 585.537Z" fill="black" fill-opacity="0.04"/>
<path d="M90.1887 445.535C95.1335 445.535 99.2916 445.142 102.663 444.356C105.922 443.57 108.226 442.672 109.574 441.661C110.811 440.538 111.766 439.472 112.44 438.461C113.114 437.338 113.676 436.496 114.126 435.934C114.575 435.373 115.193 435.26 115.98 435.597C118.79 436.496 121.431 438.966 123.903 443.009C126.263 447.051 127.443 451.319 127.443 455.81C127.443 462.773 125.195 468.444 120.7 472.823C116.092 477.203 109.912 479.392 102.157 479.392L90.863 479.392L90.863 495.9L123.229 495.9C123.791 495.9 124.128 496.18 124.24 496.742L124.24 530.43C124.24 530.43 124.072 530.655 123.734 531.104C123.622 531.104 123.51 531.104 123.397 531.104C97.7744 530.318 81.0859 529.925 73.3316 529.925C67.263 529.925 62.4307 530.543 58.8345 531.778C55.1259 532.901 52.8783 534.136 52.0916 535.483C51.305 536.831 50.6307 538.01 50.0688 539.021C49.3945 539.919 48.6078 540.2 47.7088 539.863C44.7869 538.852 42.0898 536.326 39.6174 532.283C37.0326 528.24 35.7402 523.973 35.7402 519.481C35.7402 512.519 38.1002 506.848 42.8202 502.469C47.4278 498.089 53.6088 495.9 61.3631 495.9L71.1402 495.9L71.1402 479.392L40.2917 479.392C39.8421 479.28 39.5612 478.999 39.4488 478.55L39.4488 446.209C39.4488 445.76 39.7298 445.535 40.2917 445.535L90.1887 445.535Z" fill="black" fill-opacity="0.04"/>
<path d="M113.114 337.313C113.789 335.965 114.463 335.291 115.137 335.291C115.812 335.179 116.992 335.797 118.677 337.144C121.15 339.39 123.285 342.422 125.083 346.24C126.993 350.058 127.949 354.157 127.949 358.536C127.949 364.937 126.656 370.215 124.072 374.37C121.374 378.525 118.115 381.445 114.294 383.129C110.361 384.813 106.484 386.105 102.663 387.003C98.842 387.902 95.5268 388.856 92.7173 389.867C89.9078 390.877 88.3906 392.337 88.1659 394.246L123.229 394.246L124.24 394.92L124.24 428.777C124.128 429.226 123.847 429.451 123.397 429.451C97.7744 428.552 81.0859 428.103 73.3316 428.103C67.263 428.103 62.4307 428.721 58.8345 429.956C55.1259 431.079 52.8783 432.314 52.0916 433.662C51.305 435.009 50.6307 436.188 50.0688 437.199C49.3945 438.097 48.6078 438.378 47.7088 438.041C44.7869 437.03 42.0898 434.504 39.6174 430.461C37.0326 426.419 35.7402 422.151 35.7402 417.66C35.7402 410.81 38.1002 405.195 42.8202 400.815C47.4278 396.436 53.6088 394.246 61.363 394.246L75.523 394.246C75.4106 394.134 75.2983 393.909 75.1859 393.572C75.0735 393.236 75.0173 393.011 75.0173 392.899C72.2078 392.562 69.2297 391.888 66.083 390.877C62.824 389.867 59.3964 388.407 55.8002 386.498C52.0916 384.589 48.7764 382.399 45.8545 379.929C42.9326 377.458 40.5164 374.37 38.6059 370.664C36.6955 366.959 35.7402 362.972 35.7402 358.705C35.7402 352.529 37.5383 347.532 41.1345 343.714C44.6183 339.783 49.1135 337.818 54.6202 337.818C60.1269 337.818 64.5097 339.559 67.7688 343.04C70.9154 346.409 72.4887 350.788 72.4887 356.178C72.4887 358.424 72.1516 360.445 71.4773 362.242C70.803 363.927 69.8478 364.769 68.6116 364.769C68.4992 364.769 67.9373 364.769 66.9259 364.769C65.8021 364.657 64.9592 364.657 64.3973 364.769C63.723 364.769 62.9926 364.881 62.2059 365.106C61.3069 365.33 60.6326 365.78 60.183 366.453C59.6211 367.127 59.284 367.969 59.1716 368.98C58.8345 371.9 60.183 374.202 63.2173 375.886C66.2516 377.57 69.623 378.525 73.3316 378.75C72.4326 372.124 74.624 366.734 79.9059 362.579C81.704 361.232 85.0192 359.603 89.8516 357.694C94.6839 355.673 99.123 353.146 103.169 350.114C107.102 346.97 110.417 342.703 113.114 337.313Z" fill="black" fill-opacity="0.04"/>
<path d="M90.3573 242.526C96.4258 242.526 101.314 241.965 105.023 240.842C108.619 239.606 110.811 238.315 111.597 236.968C112.384 235.62 113.114 234.497 113.789 233.599C114.351 232.7 115.081 232.42 115.98 232.756C118.902 233.655 121.655 236.125 124.24 240.168C126.712 244.211 127.949 248.478 127.949 252.969C127.949 258.809 126.263 263.806 122.892 267.961C119.408 272.116 114.688 274.755 108.732 275.878C121.431 282.503 127.78 291.374 127.78 302.491C127.78 309.229 125.476 315.181 120.869 320.346C116.261 325.512 110.53 329.33 103.674 331.8C96.8192 334.271 89.5144 335.506 81.7602 335.506C69.3983 335.506 58.7221 332.474 49.7316 326.41C40.6288 320.346 36.0774 312.093 36.0774 301.649C36.0774 290.869 41.4155 282.503 52.0916 276.551L40.4602 276.551C39.8983 276.551 39.5612 276.271 39.4488 275.709L39.4488 242.021C39.5612 241.572 39.8421 241.347 40.2917 241.347C65.9145 242.133 82.603 242.526 90.3573 242.526ZM98.1116 297.438C102.382 295.192 104.517 292.104 104.517 288.174C104.517 284.244 102.382 281.155 98.1116 278.91C93.8411 276.664 88.3906 275.541 81.7602 275.541C75.1297 275.541 69.6792 276.664 65.4088 278.91C61.0259 281.155 58.8345 284.244 58.8345 288.174C58.8345 292.104 61.0259 295.192 65.4088 297.438C69.6792 299.684 75.1297 300.807 81.7602 300.807C88.3906 300.807 93.8411 299.684 98.1116 297.438Z" fill="black" fill-opacity="0.04"/>
<path d="M99.123 202.574C102.382 199.317 106.259 197.689 110.754 197.689C115.25 197.689 119.127 199.317 122.386 202.574C125.645 205.718 127.274 209.592 127.274 214.196C127.274 218.8 125.645 222.731 122.386 225.987C119.127 229.131 115.25 230.704 110.754 230.704C106.259 230.704 102.382 229.131 99.123 225.987C95.8639 222.731 94.2344 218.8 94.2344 214.196C94.2344 209.592 95.8639 205.718 99.123 202.574Z" fill="black" fill-opacity="0.04"/>
<path d="M35.7402 126.002C35.7402 116.008 40.404 108.035 49.7316 102.084C58.9469 96.1321 69.623 93.1563 81.7601 93.1563C94.122 93.1563 104.854 96.1882 113.957 102.252C122.948 108.204 127.443 116.401 127.443 126.845C127.443 137.625 122.105 145.991 111.429 151.943L160.314 151.942C160.876 151.942 161.213 152.223 161.326 152.785L161.326 186.473C161.326 186.473 161.157 186.698 160.82 187.147C160.708 187.147 160.595 187.147 160.483 187.147C110.136 187.259 81.0859 187.315 73.3316 187.315C67.263 187.315 62.4307 187.821 58.8345 188.831C55.1259 189.842 52.8783 190.965 52.0916 192.2C51.305 193.435 50.6307 194.446 50.0688 195.232C49.3945 196.018 48.6078 196.243 47.7088 195.906C44.7869 194.895 42.0897 192.369 39.6174 188.326C37.0326 184.283 35.7402 180.016 35.7402 175.524C35.7402 169.685 37.4821 164.688 40.9659 160.533C44.3374 156.378 49.0012 153.739 54.9573 152.616C42.1459 145.991 35.7402 137.12 35.7402 126.002ZM98.2801 149.584C102.551 147.338 104.686 144.25 104.686 140.32C104.686 136.39 102.551 133.302 98.2801 131.056C93.8973 128.81 88.3906 127.687 81.7601 127.687C75.1297 127.687 69.6792 128.81 65.4088 131.056C61.1383 133.302 59.003 136.39 59.003 140.32C59.003 144.25 61.1383 147.338 65.4088 149.584C69.6792 151.83 75.1297 152.953 81.7601 152.953C88.3906 152.953 93.8973 151.83 98.2801 149.584Z" fill="black" fill-opacity="0.04"/>
<path d="M111.934 0.0539502C126.881 -0.507574 138.962 3.31054 148.177 11.508C157.392 19.5932 162 31.2718 162 46.5439C162 54.0677 160.427 60.8054 157.28 66.757C154.246 72.5962 151.099 76.8073 147.84 79.3901C144.693 81.8605 141.771 83.545 139.074 84.4433C136.49 85.2294 134.411 85.6786 132.837 85.7909C131.376 85.9032 130.421 85.7347 129.971 85.2855C129.634 84.8364 129.522 84.2749 129.634 83.6011C129.747 82.8151 130.477 81.6921 131.826 80.2322C133.287 78.6602 134.804 77.0319 136.377 75.3475C138.063 73.5508 139.524 70.9118 140.76 67.4307C142.109 63.9495 142.783 60.0754 142.783 55.8082C142.783 49.4073 140.648 44.2419 136.377 40.3116C132.219 36.3813 127.387 34.3038 121.88 34.0792L105.023 34.0792C111.766 37.2234 116.711 41.3222 119.857 46.3754C123.004 51.3164 124.577 56.3135 124.577 61.3668C124.577 67.7676 121.992 73.2139 116.823 77.7057C111.653 82.1974 104.967 84.4433 96.763 84.4433L73.8373 84.4433C68.8925 84.4433 64.7907 84.8926 61.5316 85.7909C58.1602 86.6893 55.8564 87.756 54.6202 88.9913C53.2716 90.1143 52.2602 91.2933 51.5859 92.5286C50.9116 93.6515 50.4059 94.4937 50.0688 95.0551C49.6192 95.7289 49.0012 95.9536 48.2145 95.7289C45.2926 94.7183 42.5955 92.1917 40.1231 88.1491C37.5383 84.1065 36.2459 79.8393 36.2459 75.3475C36.2459 68.2729 38.6059 62.3774 43.3259 57.6611C47.9335 52.9446 54.1145 50.5865 61.8687 50.5865L91.2001 50.5865C97.2687 50.5865 100.528 48.9021 100.977 45.5333C101.427 42.5013 99.4601 39.8062 95.0773 37.448C91.5935 35.539 87.3792 34.5283 82.4344 34.416L40.4602 34.416C40.0107 34.416 39.7297 34.1915 39.6174 33.7423L39.6174 1.23303C39.6174 0.783812 39.8983 0.559202 40.4602 0.559202C73.163 0.222287 96.9877 0.0539508 111.934 0.0539502Z" fill="black" fill-opacity="0.04"/>
</svg>
