<svg width="672" height="259" viewBox="0 0 672 259" fill="none" xmlns="http://www.w3.org/2000/svg">
<g filter="url(#filter0_i_2178_7373)">
<path d="M0 209.545V167.904L104.499 3.41914H140.432V61.0561H119.165L53.2882 165.218V167.172H201.786V209.545H0ZM120.143 253.505V196.845L121.121 178.406V3.41914H170.742V253.505H120.143Z" fill="#E066C6"/>
<path d="M335.19 259C314.168 258.919 296.08 253.749 280.924 243.492C265.85 233.234 254.239 218.377 246.091 198.921C238.025 179.464 234.032 156.059 234.114 128.706C234.114 101.435 238.147 78.1925 246.214 58.9802C254.362 39.7679 265.973 25.1551 281.046 15.1419C296.202 5.04731 314.25 0 335.19 0C356.131 0 374.138 5.04731 389.212 15.1419C404.367 25.2365 416.019 39.89 424.167 59.1023C432.315 78.2332 436.348 101.435 436.267 128.706C436.267 156.141 432.193 179.586 424.045 199.043C415.978 218.499 404.408 233.356 389.334 243.614C374.26 253.871 356.212 259 335.19 259ZM335.19 215.162C349.531 215.162 360.979 207.957 369.534 193.548C378.09 179.139 382.327 157.525 382.245 128.706C382.245 109.738 380.29 93.945 376.379 81.3267C372.549 68.7085 367.09 59.2244 360.001 52.8746C352.994 46.5248 344.723 43.3498 335.19 43.3498C320.931 43.3498 309.524 50.4731 300.968 64.7195C292.413 78.9659 288.095 100.295 288.013 128.706C288.013 147.919 289.928 163.956 293.757 176.818C297.669 189.6 303.168 199.206 310.257 205.637C317.346 211.987 325.657 215.162 335.19 215.162Z" fill="#E066C6"/>
<path d="M470.214 209.545V167.904L574.712 3.41914H610.645V61.0561H589.379L523.502 165.218V167.172H672V209.545H470.214ZM590.357 253.505V196.845L591.334 178.406V3.41914H640.956V253.505H590.357Z" fill="#E066C6"/>
</g>
<defs>
<filter id="filter0_i_2178_7373" x="0" y="0" width="682" height="264" filterUnits="userSpaceOnUse" color-interpolation-filters="sRGB">
<feFlood flood-opacity="0" result="BackgroundImageFix"/>
<feBlend mode="normal" in="SourceGraphic" in2="BackgroundImageFix" result="shape"/>
<feColorMatrix in="SourceAlpha" type="matrix" values="0 0 0 0 0 0 0 0 0 0 0 0 0 0 0 0 0 0 127 0" result="hardAlpha"/>
<feOffset dx="10" dy="5"/>
<feGaussianBlur stdDeviation="5"/>
<feComposite in2="hardAlpha" operator="arithmetic" k2="-1" k3="1"/>
<feColorMatrix type="matrix" values="0 0 0 0 0.776923 0 0 0 0 0.369786 0 0 0 0 0.677993 0 0 0 1 0"/>
<feBlend mode="normal" in2="shape" result="effect1_innerShadow_2178_7373"/>
</filter>
</defs>
</svg>
