<svg width="17" height="14" viewBox="0 0 17 14" fill="none" xmlns="http://www.w3.org/2000/svg">
<path d="M0.648438 2.36468C0.648438 1.91002 0.824032 1.47398 1.13659 1.15249C1.44915 0.831002 1.87308 0.650391 2.3151 0.650391H13.9818C14.4238 0.650391 14.8477 0.831002 15.1603 1.15249C15.4728 1.47398 15.6484 1.91002 15.6484 2.36468M0.648438 2.36468V10.9361C0.648438 11.3908 0.824032 11.8268 1.13659 12.1483C1.44915 12.4698 1.87308 12.6504 2.3151 12.6504H13.9818C14.4238 12.6504 14.8477 12.4698 15.1603 12.1483C15.4728 11.8268 15.6484 11.3908 15.6484 10.9361V2.36468M0.648438 2.36468L8.14844 7.50753L15.6484 2.36468" stroke="white" stroke-width="1.3" stroke-miterlimit="10" stroke-linecap="round" stroke-linejoin="round"/>
</svg>
