<svg width="14" height="14" viewBox="0 0 14 14" fill="none" xmlns="http://www.w3.org/2000/svg">
<g clip-path="url(#clip0_2038_813)">
<path d="M5.83464 7.58366C6.29876 7.58366 6.74388 7.39928 7.07207 7.0711C7.40026 6.74291 7.58464 6.29779 7.58464 5.83366C7.58464 5.36953 7.40026 4.92441 7.07207 4.59622C6.74388 4.26803 6.29876 4.08366 5.83464 4.08366C5.37051 4.08366 4.92539 4.26803 4.5972 4.59622C4.26901 4.92441 4.08464 5.36953 4.08464 5.83366C4.08464 6.29779 4.26901 6.74291 4.5972 7.0711C4.92539 7.39928 5.37051 7.58366 5.83464 7.58366ZM5.83464 8.75033C5.06109 8.75033 4.31922 8.44304 3.77224 7.89605C3.22526 7.34907 2.91797 6.60721 2.91797 5.83366C2.91797 5.06011 3.22526 4.31825 3.77224 3.77126C4.31922 3.22428 5.06109 2.91699 5.83464 2.91699C6.60818 2.91699 7.35005 3.22428 7.89703 3.77126C8.44401 4.31825 8.7513 5.06011 8.7513 5.83366C8.7513 6.60721 8.44401 7.34907 7.89703 7.89605C7.35005 8.44304 6.60818 8.75033 5.83464 8.75033Z" fill="black"/>
<path d="M10.5 5.83333C10.5 4.59566 10.0083 3.40867 9.13317 2.5335C8.258 1.65833 7.07101 1.16667 5.83333 1.16667C4.59566 1.16667 3.40867 1.65833 2.5335 2.5335C1.65833 3.40867 1.16667 4.59566 1.16667 5.83333C1.16667 7.42933 2.70258 9.85425 5.83333 12.9587C8.96408 9.85425 10.5 7.42933 10.5 5.83333ZM5.83333 14.5833C1.94425 10.8978 0 7.98117 0 5.83333C0 2.61158 2.61158 0 5.83333 0C9.05508 0 11.6667 2.61158 11.6667 5.83333C11.6667 7.98117 9.72242 10.8978 5.83333 14.5833Z" fill="black"/>
</g>
<defs>
<clipPath id="clip0_2038_813">
<rect width="14" height="14" fill="white"/>
</clipPath>
</defs>
</svg>
