<svg width="24" height="24" viewBox="0 0 24 24" fill="none" xmlns="http://www.w3.org/2000/svg">
<path fill-rule="evenodd" clip-rule="evenodd" d="M15.1851 7.36912C14.1488 6.33278 12.7432 5.75058 11.2776 5.75058C9.812 5.75058 8.40643 6.33278 7.37009 7.36912C6.33376 8.40545 5.75155 9.81102 5.75155 11.2766C5.75155 12.7422 6.33376 14.1478 7.37009 15.1841C8.40643 16.2204 9.812 16.8027 11.2776 16.8027C12.7432 16.8027 14.1488 16.2204 15.1851 15.1841C16.2214 14.1478 16.8036 12.7422 16.8036 11.2766C16.8036 9.81102 16.2214 8.40545 15.1851 7.36912ZM16.2451 6.30812C15.5944 5.64788 14.8195 5.12292 13.9651 4.7635C13.1106 4.40408 12.1935 4.2173 11.2665 4.21391C10.3395 4.21053 9.42102 4.39062 8.56396 4.7438C7.70689 5.09697 6.92819 5.61626 6.27271 6.27174C5.61724 6.92721 5.09795 7.70591 4.74477 8.56298C4.39159 9.42004 4.21151 10.3385 4.21489 11.2655C4.21827 12.1925 4.40506 13.1096 4.76448 13.9641C5.1239 14.8185 5.64885 15.5934 6.30909 16.2441C7.62998 17.5459 9.41196 18.2726 11.2665 18.2658C13.121 18.2591 14.8976 17.5194 16.209 16.208C17.5203 14.8966 18.26 13.12 18.2668 11.2655C18.2736 9.41098 17.5468 7.629 16.2451 6.30812Z" fill="black"/>
<path fill-rule="evenodd" clip-rule="evenodd" d="M15.1803 15.1803C15.3209 15.0398 15.5115 14.9609 15.7103 14.9609C15.909 14.9609 16.0997 15.0398 16.2403 15.1803L19.5303 18.4703C19.604 18.5389 19.6631 18.6217 19.7041 18.7137C19.7451 18.8057 19.7671 18.9051 19.7689 19.0058C19.7706 19.1065 19.7521 19.2065 19.7144 19.2999C19.6767 19.3933 19.6205 19.4781 19.5493 19.5493C19.4781 19.6205 19.3933 19.6767 19.2999 19.7144C19.2065 19.7521 19.1065 19.7706 19.0058 19.7689C18.9051 19.7671 18.8057 19.7451 18.7137 19.7041C18.6217 19.6631 18.5389 19.604 18.4703 19.5303L15.1803 16.2403C15.0398 16.0997 14.9609 15.909 14.9609 15.7103C14.9609 15.5115 15.0398 15.3209 15.1803 15.1803Z" fill="black"/>
</svg>
