<svg width="50" height="50" viewBox="0 0 50 50" fill="none" xmlns="http://www.w3.org/2000/svg">
<path d="M44.3255 13.834C44.8365 14.3934 44.4984 15.2722 44.329 15.9125L43.9884 17.183C44.7275 17.2968 45.4907 17.361 46.2055 17.5938C46.2957 17.6233 46.428 17.7237 46.5204 17.6962C47.0932 16.5687 46.9407 15.5482 46.1884 14.5159C45.1797 13.1319 43.9179 11.9181 42.7455 10.6744L41.8169 9.67991C41.5015 9.339 41.1919 8.99932 40.8212 8.71682C38.7767 7.15813 36.2195 7.9903 34.0967 8.80343L28.3807 10.7883L26.4887 11.506C21.8712 13.2067 16.8747 14.9095 11.8823 14.4293C10.2486 14.2721 8.64215 13.9004 7.02753 13.6184L4.81655 13.2992C3.85768 14.4317 2.49135 15.8913 3.4284 17.4927C3.48021 17.5813 3.49391 17.6775 3.59723 17.6447C4.67411 17.3018 6.16613 17.1638 7.32308 17.127L21.3877 17.1173C21.5624 17.1175 21.7752 17.0987 21.9437 17.149L21.9715 17.158C22.7679 17.4073 22.5507 18.5305 21.818 18.6415C21.4502 18.6973 21.01 18.6537 20.6354 18.6538L7.35618 18.6667C6.3715 18.7112 5.14471 18.8145 4.19836 18.9957C3.40873 20.318 3.09706 23.439 3.0978 24.9125L3.1182 26.1665C3.16525 26.8762 3.65486 30.08 4.1967 30.4637C4.21985 30.4802 8.51716 30.456 9.09141 30.4558L9.9557 30.456C10.1338 30.4563 10.3435 30.4355 10.5144 30.4895C11.4178 30.7752 11.0654 31.9353 10.2161 32.0053C9.86185 32.0347 9.49358 32.017 9.13783 32.0175L5.16943 32.0213C4.2465 32.0215 3.15495 32.1653 2.69661 31.173C1.05012 27.6087 1.19616 22.523 2.53336 18.9117C1.01733 17.2155 1.46016 15.1349 2.66191 13.4643C3.4021 12.4352 4.27875 11.5679 5.14313 10.6474L7.34573 8.31665C10.2143 5.44252 13.4838 6.16753 16.9797 7.33435L19.4095 8.07862C20.6185 8.40753 21.845 8.68595 23.086 8.86292L24.5472 9.01463C27.7087 9.30542 29.6844 8.81253 32.6944 7.6895C34.4059 7.05081 35.9835 6.32017 37.8447 6.31978C41.2774 6.35182 42.2142 7.83836 44.4159 10.1709C45.9342 11.7798 48.2525 13.7622 48.3895 16.1137C48.4489 17.1318 48.1802 18.0958 47.4975 18.8622C47.5187 19.026 47.6285 19.2237 47.6819 19.3853L47.8597 20.0313C48.25 21.55 48.4772 23.027 48.4817 24.5903L48.4667 26.0043C48.3819 27.5835 48.1172 29.3023 47.5322 30.771C47.0134 32.0737 46.6827 32.0157 45.2244 32.0178L37.1599 32.0205C35.9379 32.0212 36.3599 31.8487 35.6859 32.8468L34.8627 34.0605C33.2349 36.4898 31.6155 38.9702 29.733 41.2122C29.1405 41.9178 29.2862 42.0193 28.4089 42.4275C28.0297 42.6038 27.706 42.8722 27.3534 43.0933L26.4557 43.617C25.7644 44.064 25.3939 44.704 25.1197 45.4472C25.0047 45.7588 25.0997 46.1188 25.0477 46.441C24.979 46.8665 24.004 47.0705 23.6297 46.4242C23.3915 46.0133 23.4932 45.4177 23.6127 44.9832C23.9462 43.771 24.7019 42.8537 25.7745 42.2418L24.9372 41.8087C24.751 41.7108 24.5679 41.6025 24.3637 41.5473C23.2587 41.7537 22.0469 42.9917 22.0372 44.1162L22.052 44.68C22.1297 46.0555 20.4107 45.9392 20.4282 44.3945C20.446 42.8167 21.3524 41.2555 22.784 40.5547C22.3169 40.3267 21.7945 40.0257 21.3999 39.6893C20.162 39.8148 18.9675 41.2333 18.9627 42.4367C18.9615 42.7217 19.033 43.0553 18.9915 43.3327C18.8464 44.3023 16.8205 44.3792 17.4887 41.5512C17.7827 40.3058 18.5935 39.3823 19.6604 38.7207C19.181 38.4802 18.608 37.9992 18.1592 37.8353C16.799 38.0477 15.7345 39.4283 15.7874 40.7847C15.7982 41.0578 15.9057 41.3773 15.8562 41.645L15.8498 41.6748C15.6828 42.4973 14.2886 42.599 14.2209 41.032C14.1427 39.22 14.9493 37.8223 16.4828 36.8282C16.2062 36.582 14.9428 35.8297 14.6347 35.6727C13.5295 36.2912 12.6797 37.3637 12.669 38.681C12.6666 38.9665 12.7412 39.2525 12.7195 39.5357C12.651 40.424 10.7665 40.6917 11.1264 38.1573C11.3211 36.7862 12.1208 35.566 13.2036 34.7337L12.855 34.4775C12.096 33.8568 11.9808 33.4322 12.6035 32.6637L16.3899 28.0887L20.9489 21.904L23.7332 17.261L24.5045 15.7386C25.6172 13.4548 26.3059 13.2525 28.8935 12.9322L33.5804 12.575C33.809 12.5668 34.0365 12.5274 34.264 12.5217L39.5282 12.5259C40.9577 12.5915 43.2852 12.8312 44.3255 13.834ZM11.9866 7.87366C10.3767 7.88956 9.37341 8.48632 8.29548 9.5771L6.11148 11.922C7.27213 12.0149 8.42151 12.3035 9.56686 12.5068C12.7295 13.0681 14.8972 13.1235 18.1297 12.4703C19.7912 12.1182 21.4025 11.59 23.0197 11.0772L23.7892 10.8362C24.0394 10.7595 24.27 10.663 24.5245 10.6063C22.1745 10.5009 19.7964 9.85382 17.5662 9.15548C16.5564 8.8393 15.5612 8.44513 14.5374 8.17988C13.659 7.95228 12.884 7.88841 11.9866 7.87366ZM36.2719 14.0464L34.45 14.0742C34.3145 14.7909 34.0879 15.4841 33.8625 16.1771C32.1377 21.4788 28.3827 26.9807 24.5654 31.1075L23.5277 32.221C23.2715 32.4995 22.9987 32.8755 22.6825 33.0825C22.0684 33.4847 21.2587 32.9638 21.4985 32.2208C21.6164 31.8553 22.0254 31.522 22.2834 31.2468L23.2179 30.2507C26.6269 26.608 30.125 21.595 31.8915 16.9878C32.2497 16.0539 32.5132 15.1006 32.8092 14.1475L28.429 14.5933C26.4529 14.9113 26.6219 15.0687 25.7694 16.7372L24.4452 19.2577C23.389 21.1253 22.1684 22.9055 20.9405 24.663L14.0113 33.3447C15.7236 34.5955 17.5725 35.6275 19.402 36.6922L26.1195 40.6598C26.521 40.8883 26.9607 41.1083 27.319 41.4002C27.8532 40.812 28.4037 40.373 28.9407 39.7158L32.7224 34.4357L37.1837 27.5882C38.8887 24.7452 40.419 21.778 41.664 18.7043L42.5377 16.3594C42.7129 15.8344 42.8855 15.3042 42.995 14.761C42.082 14.2872 40.312 14.1171 39.3057 14.0621L36.2719 14.0464ZM43.392 18.6468C43.1335 19.373 42.8077 20.075 42.5002 20.7815L41.3609 23.2722L39.3502 27.0455L37.4992 30.1025C37.4202 30.23 37.3905 30.3467 37.2792 30.4543L40.8559 30.4597L45.9832 30.4497C46.0427 30.3423 46.0587 30.2183 46.0974 30.1023L46.3759 29.2273C46.7784 27.7925 46.9247 26.3658 46.9247 24.8848L46.9052 23.6442C46.8335 22.5083 46.5147 20.1682 45.8989 19.1522L43.392 18.6468Z" fill="url(#paint0_linear_2061_12976)"/>
<path d="M26.7344 36.9373C26.2574 37.002 25.9687 36.8478 25.8144 36.3685C25.6742 35.9328 25.917 35.6482 26.1944 35.3515L28.3289 32.8467L32.0645 27.895C33.8535 25.3493 35.4724 22.6498 36.8144 19.8413L37.8195 17.5887C38.0802 16.9598 38.151 16.2289 38.881 15.9953C40.4775 15.8861 39.536 17.587 39.2217 18.334L37.9097 21.2165C35.9809 25.0427 33.641 28.603 31.0245 31.9923L27.7269 36.0305C27.4455 36.3557 27.158 36.7978 26.7344 36.9373Z" fill="url(#paint1_linear_2061_12976)"/>
<defs>
<linearGradient id="paint0_linear_2061_12976" x1="-7.13827" y1="87.3665" x2="58.317" y2="76.631" gradientUnits="userSpaceOnUse">
<stop stop-color="#108AEE"/>
<stop offset="0.610352" stop-color="#DC8CE1"/>
<stop offset="1" stop-color="#FF408E"/>
</linearGradient>
<linearGradient id="paint1_linear_2061_12976" x1="23.1987" y1="57.9124" x2="43.0646" y2="56.0338" gradientUnits="userSpaceOnUse">
<stop stop-color="#108AEE"/>
<stop offset="0.610352" stop-color="#DC8CE1"/>
<stop offset="1" stop-color="#FF408E"/>
</linearGradient>
</defs>
</svg>
