<svg width="50" height="50" viewBox="0 0 50 50" fill="none" xmlns="http://www.w3.org/2000/svg">
<g clip-path="url(#clip0_2061_12993)">
<mask id="mask0_2061_12993" style="mask-type:luminance" maskUnits="userSpaceOnUse" x="0" y="0" width="50" height="50">
<path d="M50 0H0V50H50V0Z" fill="white"/>
</mask>
<g mask="url(#mask0_2061_12993)">
<path d="M48.3279 21.9177C47.0609 11.9755 39.2905 4.10732 29.4512 2.60022C27.8069 2.34837 26.0847 2.23675 24.4223 2.36293C17.5125 2.88737 11.0161 6.33628 7.0351 12.0351L6.05593 13.5886C4.0863 16.9057 3.02153 20.5155 2.98377 24.3685C3.20388 24.2645 3.55078 23.978 3.7907 23.9905C4.27185 24.0157 4.77508 24.6135 4.715 25.0935C4.69142 25.2818 4.52983 25.4998 4.43537 25.664L3.68472 26.92C3.39172 27.3983 2.70492 28.7933 1.95918 28.0162C1.6718 27.7168 1.45423 27.269 1.23652 26.914L0.286326 25.4505C-0.0637545 24.9543 0.332314 24.2955 0.784022 24.005C0.950956 24.0412 1.31752 24.1353 1.4357 24.268L1.46509 24.303C1.46023 22.1708 1.7505 20.3058 2.36585 18.2432C4.9161 9.69457 11.467 3.66253 20.0973 1.50379C21.7218 1.09743 23.4327 0.80887 25.1092 0.787435C25.9308 0.785457 26.78 0.744063 27.5982 0.803058L29.0467 0.970863C36.361 1.9546 43.0307 6.24235 46.7555 12.6417C48.4055 15.4767 49.1855 17.799 49.7427 20.9603C49.8309 21.4607 49.8037 21.9827 49.8042 22.489L49.8044 27.0863C49.804 27.5818 49.8249 28.0892 49.782 28.583C49.4965 31.8637 47.9862 35.7333 46.2014 38.4787C42.7919 43.7227 37.4184 47.431 31.3042 48.7237L29.599 49.0183C28.8107 49.1205 28.0334 49.1558 27.2412 49.1992L25.8988 49.24C25.658 49.2405 25.4134 49.2502 25.1742 49.2188C23.9739 49.0612 24.221 47.8682 24.9855 47.701C25.1697 47.6607 25.4063 47.6865 25.5973 47.6862L27.051 47.6825C27.852 47.6643 28.668 47.563 29.4615 47.4542C36.9434 46.4272 43.4014 41.5535 46.5204 34.6517C48.2702 30.7793 48.903 26.1252 48.3279 21.9177Z" fill="url(#paint0_linear_2061_12993)"/>
<path d="M30.4707 43.2108C29.0072 43.5632 27.4634 43.6592 25.964 43.6622L24.5327 43.6502C21.1667 43.4773 16.1109 41.3582 14.0334 38.494L13.5944 37.8443C13.4416 37.6052 13.2046 37.0997 12.9505 36.9815L12.6391 36.8268C10.3002 35.496 8.54817 31.6455 7.87344 29.1857C6.34797 23.625 7.84908 17.7947 11.4628 13.3978C12.8384 11.7241 15.3068 9.52978 17.4465 8.952C19.7202 8.33803 21.7215 9.41355 23.1757 11.1088C25.4184 13.7231 25.5182 17.2263 26.373 20.4032C26.6772 20.4125 27.0929 20.378 27.3704 20.5153L27.3934 20.5275C28.1989 19.5457 29.0417 18.6358 29.6984 17.5412C31.3879 14.7243 32.0764 11.1172 30.348 8.1538C29.9602 7.48882 28.9755 6.23575 30.4217 5.96127C30.9785 5.90583 31.6414 6.11497 32.1769 6.27012C35.4279 7.2122 39.8397 9.98983 41.1767 13.2391L41.4157 13.9077C41.4855 14.1212 41.4619 14.1298 41.6544 14.2461L42.0402 14.502C42.709 14.993 43.1702 15.6484 43.5927 16.3522C45.7852 20.0048 46.4549 24.6298 45.3635 28.7493C44.0495 33.7093 41.0569 38.0673 36.517 40.5697C34.6415 41.6035 33.2254 42.1412 31.3642 40.7632C28.4132 38.5785 27.404 33.7618 27.0399 30.368L26.9575 28.9738C26.9497 28.6587 26.9597 28.3328 26.9137 28.0208L25.9877 27.9542L25.3597 29.2608C24.1894 32.0348 23.5519 35.1125 23.908 38.1227C24.0187 39.0575 24.463 41.5787 25.4824 41.9918L25.5217 42.0072C26.0537 42.221 28.3705 41.9692 28.9339 41.8832C29.4415 41.8058 29.9837 41.654 30.4939 41.6307C31.2104 41.5978 31.9654 42.8143 30.4707 43.2108ZM31.9372 7.79183C34.0024 11.9015 32.4775 16.8342 29.7007 20.2203C29.3974 20.5903 29.0864 20.9645 28.736 21.2913L29.5712 22.005C30.1075 21.8433 30.6937 21.7782 31.2422 21.6585C32.3197 21.4235 33.4029 21.1227 34.4289 20.7152C37.149 19.649 40.9722 16.9473 39.6087 13.5423C38.7907 11.499 35.2344 9.13565 33.348 8.33675L31.9372 7.79183ZM18.5797 10.2874C17.4727 10.407 16.5157 10.9922 15.6267 11.6258C11.6648 14.4492 9.5721 18.4458 8.87369 23.1433C10.0458 22.7442 11.2581 22.5952 12.4445 22.2645C13.2034 22.053 13.9069 21.6902 14.6589 21.4577C17.4742 20.6167 20.8357 21.1415 23.5347 22.1718L23.5497 22.1423C23.786 21.691 24.2887 21.3487 24.7145 21.0902C25.02 20.9048 24.9262 20.991 24.8334 20.6035C24.0167 17.1963 23.7754 12.5293 20.2902 10.6733C19.7889 10.4063 19.1559 10.2035 18.5797 10.2874ZM41.3172 15.8695C40.7109 20.4525 34.0867 22.8308 30.2317 23.4353C30.3017 24.1633 30.3149 24.7482 30.08 25.4493C30.9767 26.1313 32.9497 27.1052 33.9525 27.4898C36.633 28.4768 38.9312 28.0707 41.364 26.4973L42.0552 26.0158C42.718 25.5252 43.04 25.3432 43.874 25.6465C44.03 25.7032 44.2377 25.7583 44.3579 25.8733L44.3699 25.8688C44.3694 25.1892 44.3979 24.4925 44.35 23.8152C44.1625 21.1645 43.282 18.4223 41.656 16.2938C41.5467 16.1507 41.4217 16.0154 41.3172 15.8695ZM26.4384 22.0795C23.4974 22.3787 23.8644 26.3777 26.7834 26.3418C29.508 25.9845 29.2445 22.3768 26.94 22.09L26.8917 22.0837C26.7477 22.0653 26.582 22.0603 26.4384 22.0795ZM17.4475 22.5935C15.5779 22.6172 14.9779 23.0813 13.3047 23.631C12.4565 23.9098 9.3067 24.3495 8.86235 24.7753C8.84499 27.972 9.74528 30.8677 11.5336 33.5433L12.237 34.5157C12.3137 34.6147 12.3894 34.7397 12.4763 34.8277L12.5032 34.8502C12.4919 34.2285 12.5361 33.6863 12.686 33.0822C13.6938 29.268 17.2174 26.7507 20.6864 25.2815L22.8632 24.3913L22.947 23.6775C21.2814 22.8867 19.284 22.6185 17.4475 22.5935ZM23.2169 25.9638C19.8639 27.149 16.263 28.915 14.6459 32.28C13.808 34.0238 13.7698 35.423 14.8432 37.0052C15.7247 38.3045 17.0355 39.381 18.398 40.1495C19.4514 40.7408 20.5735 41.215 21.7375 41.5405L23.4097 41.9457C23.3315 41.6875 23.1852 41.4338 23.0895 41.1775C21.5357 37.0055 22.4395 31.3238 24.521 27.4232L24.6122 27.2647C24.1802 26.97 23.7605 26.6498 23.459 26.2148C23.382 26.1038 23.3602 25.9482 23.2169 25.9638ZM29.2712 26.7855L28.4489 27.3437L28.5674 29.9227L28.769 31.593C29.0495 33.5915 29.5364 35.5433 30.5034 37.3277C31.0619 38.3585 32.124 39.9842 33.4667 39.9492C35.3647 39.8997 38.4285 37.5102 39.6272 36.2322L40.6454 35.0162C41.8357 33.433 43.9602 29.5802 43.9192 27.4803C43.5249 27.0095 43.3935 26.9395 42.9454 27.2807L42.368 27.6973C38.975 29.9585 35.5854 30.23 31.8715 28.2468L30.2537 27.3278C29.9399 27.144 29.6099 26.9163 29.2712 26.7855Z" fill="url(#paint1_linear_2061_12993)"/>
</g>
</g>
<defs>
<linearGradient id="paint0_linear_2061_12993" x1="-8.97289" y1="97.7121" x2="60.6028" y2="87.628" gradientUnits="userSpaceOnUse">
<stop stop-color="#108AEE"/>
<stop offset="0.610352" stop-color="#DC8CE1"/>
<stop offset="1" stop-color="#FF408E"/>
</linearGradient>
<linearGradient id="paint1_linear_2061_12993" x1="0.188461" y1="81.3722" x2="54.2698" y2="73.5411" gradientUnits="userSpaceOnUse">
<stop stop-color="#108AEE"/>
<stop offset="0.610352" stop-color="#DC8CE1"/>
<stop offset="1" stop-color="#FF408E"/>
</linearGradient>
<clipPath id="clip0_2061_12993">
<rect width="50" height="50" fill="white"/>
</clipPath>
</defs>
</svg>
