<svg width="50" height="50" viewBox="0 0 50 50" fill="none" xmlns="http://www.w3.org/2000/svg">
<path d="M9.55807 46.6833C8.56797 46.6643 7.36267 46.0163 6.99042 45.0713C6.87805 44.786 6.87422 44.8105 6.59037 44.8063C5.26029 44.7862 4.29845 44.8352 3.83709 43.1955C3.58885 42.3132 3.53197 41.343 3.42247 40.4352L2.86929 33.1782C2.85619 32.8375 2.79685 32.5075 2.79297 32.165L2.79974 23.3392C2.80734 23.083 2.85134 22.8347 2.8669 22.5825L3.09442 18.2125L3.44564 14.7313C3.76252 11.9541 4.17944 9.21131 4.83894 6.49217L5.18425 5.07984C5.68137 3.02427 6.12924 3.03446 7.91432 3.03477L42.3477 3.02902C44.2537 2.96922 44.4753 3.64262 44.9103 5.41626L45.3037 7.07331C46.0548 10.3803 46.474 13.7397 46.7792 17.1138L47.2128 23.6558L47.2098 31.9978L46.4683 41.372C46.326 42.7088 46.235 44.5498 44.5058 44.7873C44.0612 44.8483 43.5718 44.7278 43.1383 44.8243L43.0485 45.0263C42.5567 46.48 40.2763 47.1297 38.9395 46.361C38.493 46.1043 37.9193 45.5388 37.7883 45.0303C37.7673 44.9487 37.7412 44.8858 37.7005 44.8122L13.7212 44.801C13.5305 44.8012 12.3666 44.7768 12.3081 44.81C12.2493 44.8437 12.2158 45.0778 12.1864 45.1445C11.7168 46.2075 10.683 46.685 9.55807 46.6833ZM6.93367 4.54402L5.38604 11.7804L43.1713 11.7889L44.1728 11.7862C44.3112 11.7858 44.485 11.8064 44.6185 11.7746L43.5873 6.49786C43.431 5.85174 43.293 5.18074 43.0487 4.56142L6.93367 4.54402ZM5.13674 13.2986L4.8494 15.9377L4.37059 22.8552L4.3558 24.4623C4.35022 24.6395 4.31889 24.814 4.31399 24.9915L4.31065 30.0885C4.31495 30.2788 4.34939 30.4658 4.35455 30.6565L4.36814 32.5853L4.56314 36.2502L5.09994 41.4058C5.15262 41.808 5.20364 42.2132 5.30167 42.6073C5.55072 43.609 6.12332 43.3027 7.07499 43.3032L43.923 43.3088C44.2173 43.3105 44.413 43.2513 44.5893 43.0142C44.8563 42.5255 44.861 41.8503 44.927 41.3007L45.4855 35.5095L45.633 32.3725C45.6458 32.1783 45.6737 31.989 45.6787 31.7935V23.7413L45.4945 20.0867L44.8642 13.3036C44.4775 13.2596 44.0432 13.2968 43.652 13.2972L5.13674 13.2986Z" fill="url(#paint0_linear_2061_13004)"/>
<path d="M11.8411 10.4937C8.93735 11.0732 8.07297 6.54134 11.1691 5.98804C14.2092 5.69562 14.7094 9.94599 11.8411 10.4937ZM11.3192 7.49894C10.3273 7.82304 10.6771 9.233 11.6238 8.9902C12.5265 8.64747 12.4381 7.49277 11.3192 7.49894Z" fill="url(#paint1_linear_2061_13004)"/>
<path d="M20.2333 10.5145C17.0105 10.7578 16.8422 6.46946 19.6533 5.98805C19.9142 5.96343 20.206 5.95273 20.4617 6.0161L20.5085 6.02803C22.922 6.62023 22.747 10.1295 20.2333 10.5145ZM19.8957 7.52363C18.856 7.7496 19.0217 9.03215 20.0617 9.00978C21.0003 8.77176 20.8815 7.45021 19.8957 7.52363Z" fill="url(#paint2_linear_2061_13004)"/>
<path d="M35.6035 8.85385L34.8408 8.85939C34.54 8.85902 34.1616 8.90497 33.916 8.69907C33.5548 8.39602 33.4705 7.95509 33.801 7.59337C34.0386 7.3332 34.331 7.32869 34.6591 7.30957L35.5855 7.32235C35.7501 7.32469 35.9651 7.31262 36.1163 7.38185L36.1458 7.39652C36.9188 7.77229 36.67 8.78055 35.6035 8.85385Z" fill="url(#paint3_linear_2061_13004)"/>
<path d="M31.182 8.84777L30.2733 8.86335C30.0823 8.86457 29.8336 8.91947 29.6665 8.80185C28.9601 8.30453 29.1131 7.41315 30.0625 7.33382C30.3926 7.30418 31.2373 7.26627 31.5305 7.36168L31.5573 7.37113C32.2866 7.61977 32.306 8.75348 31.182 8.84777Z" fill="url(#paint4_linear_2061_13004)"/>
<path d="M39.9721 8.8629L39.2585 8.87162C38.9823 8.87214 38.7085 8.90049 38.4783 8.71717C37.738 8.12762 38.1336 7.3856 39.094 7.33434L39.8141 7.32422C41.4636 7.33137 41.0633 8.78409 39.9721 8.8629Z" fill="url(#paint5_linear_2061_13004)"/>
<path d="M25.6301 40.2742L25.5821 40.2763C19.3296 40.6563 13.5672 36.3183 12.2262 30.2167C12.1074 29.6763 11.9992 29.1073 11.9705 28.5545L11.957 27.3987C11.9646 21.3652 16.5363 16.0762 22.449 14.9821C23.1001 14.8616 23.767 14.8099 24.4278 14.7777L25.3146 14.7705C26.2548 14.7732 27.2251 14.93 28.14 15.1411C35.6712 16.8788 40.1061 25.0622 37.1626 32.2038C35.1535 37.0783 30.8178 39.9867 25.6301 40.2742ZM24.2326 16.2835C17.8811 16.7815 13.0314 22.0412 13.5213 28.4762C13.5675 29.0827 13.6652 29.731 13.8215 30.316C15.2775 35.7683 20.2556 38.9747 25.7523 38.7605C28.8056 38.5727 31.6465 37.1962 33.673 34.912C40.0568 27.717 35.016 16.9947 25.8681 16.2923C25.3336 16.2513 24.7691 16.271 24.2326 16.2835Z" fill="url(#paint6_linear_2061_13004)"/>
<path d="M25.2668 36.8904C20.0665 36.9054 15.4111 33.1522 15.3946 27.7339C15.3789 22.5809 19.5408 18.1509 24.7518 18.1349C25.2203 18.1339 25.6845 18.1374 26.1505 18.1902C31.18 18.7609 35.099 23.5544 34.5578 28.5961C34.054 33.2897 29.9312 36.7847 25.2668 36.8904ZM24.6108 19.6577C22.4858 19.8257 20.2725 20.8081 18.8698 22.4489C18.2588 23.1636 17.9748 23.8002 17.542 24.5796C18.9873 24.5139 19.5482 24.2264 20.9135 23.8592C22.6515 23.3919 24.2552 23.5761 25.818 24.4576C26.932 25.1207 27.7358 25.7104 29.0993 25.7379C30.2915 25.7619 31.4822 25.3499 32.5477 24.8352C31.2052 22.1212 29.0722 20.0289 25.9055 19.6887C25.4767 19.6427 25.0415 19.6522 24.6108 19.6577ZM22.5732 25.1319C20.479 25.2927 19.5428 26.2382 17.072 25.9722C16.9593 26.7796 16.893 27.6419 16.9878 28.4541C17.6003 33.7074 23.03 36.5742 27.8988 34.8484C31.6713 33.3629 33.3345 30.2676 33.024 26.3567C32.925 26.3579 32.7857 26.4346 32.693 26.4716L31.9078 26.7744C30.1625 27.4007 28.2902 27.4922 26.5782 26.6959C25.1893 26.0499 24.298 25.0011 22.5732 25.1319Z" fill="url(#paint7_linear_2061_13004)"/>
<defs>
<linearGradient id="paint0_linear_2061_13004" x1="-5.3699" y1="90.3484" x2="56.8859" y2="81.3878" gradientUnits="userSpaceOnUse">
<stop stop-color="#108AEE"/>
<stop offset="0.610352" stop-color="#DC8CE1"/>
<stop offset="1" stop-color="#FF408E"/>
</linearGradient>
<linearGradient id="paint1_linear_2061_13004" x1="8.38745" y1="15.116" x2="14.7345" y2="14.2274" gradientUnits="userSpaceOnUse">
<stop stop-color="#108AEE"/>
<stop offset="0.610352" stop-color="#DC8CE1"/>
<stop offset="1" stop-color="#FF408E"/>
</linearGradient>
<linearGradient id="paint2_linear_2061_13004" x1="16.8356" y1="15.0803" x2="23.2181" y2="14.1783" gradientUnits="userSpaceOnUse">
<stop stop-color="#108AEE"/>
<stop offset="0.610352" stop-color="#DC8CE1"/>
<stop offset="1" stop-color="#FF408E"/>
</linearGradient>
<linearGradient id="paint3_linear_2061_13004" x1="33.042" y1="10.4175" x2="37.0385" y2="9.32508" gradientUnits="userSpaceOnUse">
<stop stop-color="#108AEE"/>
<stop offset="0.610352" stop-color="#DC8CE1"/>
<stop offset="1" stop-color="#FF408E"/>
</linearGradient>
<linearGradient id="paint4_linear_2061_13004" x1="28.7038" y1="10.4536" x2="32.5242" y2="9.47836" gradientUnits="userSpaceOnUse">
<stop stop-color="#108AEE"/>
<stop offset="0.610352" stop-color="#DC8CE1"/>
<stop offset="1" stop-color="#FF408E"/>
</linearGradient>
<linearGradient id="paint5_linear_2061_13004" x1="37.5739" y1="10.4228" x2="41.3679" y2="9.44259" gradientUnits="userSpaceOnUse">
<stop stop-color="#108AEE"/>
<stop offset="0.610352" stop-color="#DC8CE1"/>
<stop offset="1" stop-color="#FF408E"/>
</linearGradient>
<linearGradient id="paint6_linear_2061_13004" x1="7.15639" y1="65.8285" x2="43.7608" y2="60.5293" gradientUnits="userSpaceOnUse">
<stop stop-color="#108AEE"/>
<stop offset="0.610352" stop-color="#DC8CE1"/>
<stop offset="1" stop-color="#FF408E"/>
</linearGradient>
<linearGradient id="paint7_linear_2061_13004" x1="11.8638" y1="55.6461" x2="38.7843" y2="51.7446" gradientUnits="userSpaceOnUse">
<stop stop-color="#108AEE"/>
<stop offset="0.610352" stop-color="#DC8CE1"/>
<stop offset="1" stop-color="#FF408E"/>
</linearGradient>
</defs>
</svg>
