<svg width="50" height="50" viewBox="0 0 50 50" fill="none" xmlns="http://www.w3.org/2000/svg">
<path d="M45.8468 44.5582C44.1676 44.015 42.7348 43.0102 40.9555 42.5738C40.1156 42.368 39.2513 42.244 38.3946 42.1315L34.4236 41.7235L28.2508 41.3422C28.0366 41.3327 27.8243 41.2918 27.6106 41.2848L22.3043 41.2887C22.0871 41.2948 21.8741 41.3353 21.6588 41.3442L15.5255 41.7365C13.0006 41.9702 9.89125 42.109 7.52004 43.075L5.13074 44.1778C4.13877 44.609 2.90709 45.0592 1.96889 44.2562C0.976476 43.4067 1.44926 42.0933 1.84959 41.0713L2.7959 38.9238C3.35719 37.7285 4.0254 36.395 4.08434 35.0463L4.08952 22.8092C4.08659 19.9822 3.2075 18.8298 2.1182 16.3164C1.46877 14.818 0.581116 11.8624 3.13729 11.6797C3.8871 11.7129 4.54204 12.124 5.21175 12.4281C6.71722 13.1116 7.81552 13.394 9.42175 13.0694C10.8194 12.787 12.2138 12.6122 13.6415 12.5605L15.1521 12.5443C15.4064 12.5381 15.6524 12.4826 15.9062 12.4787L34.1223 12.4791C34.41 12.4859 34.6951 12.5363 34.9821 12.545C36.6298 12.5953 37.9633 12.6225 39.6355 12.8858L40.5683 13.0482C42.3553 13.4067 43.3728 13.1021 45.0403 12.3158C45.6708 12.0186 46.4376 11.5616 47.1613 11.7102C49.6956 12.2304 48.2765 15.5948 47.5898 17.0653L46.6463 19.0548C46.4498 19.5287 46.2741 20.0148 46.1466 20.512L45.9883 21.2705C45.9306 21.5197 45.933 21.7818 45.9301 22.0365L45.9376 34.9258C45.9801 35.9298 46.3088 36.9403 46.7015 37.8555L47.8625 40.3615C48.1983 41.1077 48.7391 42.2177 48.6455 43.0678L48.6395 43.1152C48.465 44.624 47.0801 44.8992 45.8468 44.5582ZM3.05604 13.1713C2.32094 13.7848 4.39882 17.5558 4.70304 18.2705C5.55567 20.2737 5.61895 21.2643 5.61977 23.3183L5.61997 33.3203C5.61907 36.2297 5.37289 37.123 4.06182 39.8812C3.91937 40.1808 2.32797 43.2035 3.16485 43.2152C3.57285 43.2208 3.98415 43.0315 4.3524 42.8745L6.09522 42.0665C9.08917 40.6888 12.1715 40.5242 15.4007 40.2317L20.9348 39.8528C21.1525 39.8435 21.37 39.7967 21.5918 39.789L28.0941 39.7858C28.3715 39.7943 28.6446 39.845 28.922 39.857L35.2728 40.2875C37.2496 40.4678 39.2888 40.6048 41.2211 41.0788C42.9048 41.4918 44.415 42.355 46.0141 42.996C46.5621 43.1858 47.3283 43.4848 47.077 42.5687C46.8881 41.8807 46.5766 41.1915 46.277 40.5448C45.1731 38.162 44.3966 36.8625 44.3933 34.1898L44.3921 23.6638C44.3923 22.9388 44.3356 22.1637 44.4533 21.4478L44.5996 20.544C44.7206 19.9697 44.898 19.4 45.0978 18.8485L45.6078 17.6078C46.1756 16.3691 46.8673 15.2002 47.0758 13.8305C47.2056 12.9785 46.7901 13.2042 46.252 13.4457L45.1071 13.9681C44.1758 14.3497 43.075 14.6521 42.0601 14.7095C41.0493 14.7667 40.0216 14.4384 39.0235 14.2993C37.7946 14.1281 36.5528 14.1835 35.3308 14.0167C35.1605 13.9935 34.9825 13.9973 34.8108 13.9963L14.945 13.9986C14.7214 14.0058 14.4992 14.0629 14.2736 14.0717C13.1189 14.1163 11.9902 14.1503 10.8434 14.3231L9.49489 14.5822C7.7964 14.9341 6.25522 14.5987 4.67937 13.8765C4.37389 13.7364 3.3216 13.1021 3.05604 13.1713Z" fill="url(#paint0_linear_2061_12983)"/>
<path d="M45.2388 16.3567L41.2327 17.8185C39.1012 18.4012 36.398 18.672 34.1672 18.7303L16.1873 18.7278L14.2738 18.6525L11.6272 18.3732C9.67853 18.102 7.80469 17.6025 5.97977 16.8675C5.62025 16.7228 4.21519 16.2331 4.13142 15.7964C4.03454 15.2912 4.44772 14.9051 4.90294 14.8005C5.31299 14.7846 5.69765 15.0566 6.06392 15.22C7.82797 16.007 9.64524 16.5985 11.5659 16.8415L14.7907 17.1525L16.2227 17.1735C16.4325 17.1817 16.6347 17.2368 16.8417 17.2452L33.3057 17.2397C33.5072 17.2307 33.7007 17.1787 33.8985 17.1693L35.4972 17.1482L37.87 16.9085C39.815 16.6552 41.566 16.2352 43.3832 15.4929C43.8444 15.3046 44.2915 15.0628 44.7673 14.9139C45.4477 14.7012 46.124 15.0841 45.8899 15.7801C45.7889 16.08 45.504 16.2268 45.2388 16.3567Z" fill="url(#paint1_linear_2061_12983)"/>
<path d="M15.9897 38.1894L14.217 38.1879C13.0911 38.0905 12.0317 37.1579 11.8759 36.0217C11.792 35.4092 11.8442 34.7317 11.844 34.1132V23.6587C11.8447 21.8807 12.0623 20.7789 14.0146 20.2935C14.29 20.2249 14.5686 20.2382 14.85 20.2377H34.1019L35.136 20.231C35.6988 20.2277 36.1623 20.2304 36.679 20.4892C37.5226 20.9119 38.1336 21.7769 38.1718 22.7297L38.1735 34.4912C38.1731 34.9629 38.2021 35.4592 38.1438 35.9272C37.9456 37.5169 36.6268 38.1982 35.1736 38.1932L15.9897 38.1894ZM14.6919 21.7395C13.5837 21.7905 13.358 22.252 13.3576 23.2964L13.3608 35.5939C13.3811 36.0659 13.8093 36.6377 14.309 36.682C14.5562 36.704 14.8285 36.6785 15.0777 36.6764L35.4235 36.6719C35.8274 36.6685 36.1253 36.544 36.3953 36.2379C36.7116 35.8792 36.6511 35.6042 36.6513 35.15L36.6548 23.6379C36.6561 22.046 36.6089 21.7385 34.7821 21.7384L14.6919 21.7395Z" fill="url(#paint2_linear_2061_12983)"/>
<path d="M27.2836 32.6277C26.8673 32.92 26.4423 33.1834 25.999 33.433C25.0406 33.972 24.7915 33.9019 23.904 33.3669L22.5686 32.4919C21.164 31.4697 19.8413 30.1114 19.5766 28.323C19.2816 26.3295 20.4446 24.5827 22.476 24.3015L22.5208 24.2952C23.346 24.2172 24.397 24.602 25.0026 25.1564C25.0356 25.139 25.0625 25.1194 25.0918 25.0967C27.7845 23.0024 30.9008 25.3339 30.424 28.4307C30.147 30.23 28.6723 31.5957 27.2836 32.6277ZM22.6251 25.8157C21.4373 25.9252 20.9508 27.013 21.0766 28.101C21.2178 29.3205 22.3001 30.3759 23.2203 31.0917L25.0258 32.2762L26.9925 30.91C27.9201 30.129 28.8158 29.2534 28.9223 27.9745C29.0645 26.2662 27.6063 25.2369 26.2093 26.1452C25.7795 26.4247 25.5383 26.8315 24.9621 26.8267C24.2225 26.8204 24.0111 25.8552 22.6251 25.8157Z" fill="url(#paint3_linear_2061_12983)"/>
<path d="M34.849 45.0668L14.662 45.066C14.4774 45.0656 14.223 45.0913 14.0484 45.0295L13.9929 45.0093C13.1263 44.693 13.4182 43.58 14.545 43.5718L15.1635 43.5703L35.1622 43.5718C35.7395 43.573 36.7017 43.5901 36.4872 44.4753C36.4384 44.6763 36.2855 44.8276 36.1165 44.9343L36.0824 44.9555C35.928 45.0581 35.6807 45.0598 35.5002 45.0623L34.849 45.0668Z" fill="url(#paint4_linear_2061_12983)"/>
<defs>
<linearGradient id="paint0_linear_2061_12983" x1="-7.30905" y1="77.7197" x2="57.6586" y2="64.5599" gradientUnits="userSpaceOnUse">
<stop stop-color="#108AEE"/>
<stop offset="0.610352" stop-color="#DC8CE1"/>
<stop offset="1" stop-color="#FF408E"/>
</linearGradient>
<linearGradient id="paint1_linear_2061_12983" x1="-3.56791" y1="22.6609" x2="14.7511" y2="-4.91398" gradientUnits="userSpaceOnUse">
<stop stop-color="#108AEE"/>
<stop offset="0.610352" stop-color="#DC8CE1"/>
<stop offset="1" stop-color="#FF408E"/>
</linearGradient>
<linearGradient id="paint2_linear_2061_12983" x1="6.98548" y1="56.156" x2="43.1272" y2="48.6548" gradientUnits="userSpaceOnUse">
<stop stop-color="#108AEE"/>
<stop offset="0.610352" stop-color="#DC8CE1"/>
<stop offset="1" stop-color="#FF408E"/>
</linearGradient>
<linearGradient id="paint3_linear_2061_12983" x1="17.5206" y1="43.3235" x2="32.7698" y2="40.8438" gradientUnits="userSpaceOnUse">
<stop stop-color="#108AEE"/>
<stop offset="0.610352" stop-color="#DC8CE1"/>
<stop offset="1" stop-color="#FF408E"/>
</linearGradient>
<linearGradient id="paint4_linear_2061_12983" x1="9.25623" y1="46.5717" x2="15.0223" y2="34.053" gradientUnits="userSpaceOnUse">
<stop stop-color="#108AEE"/>
<stop offset="0.610352" stop-color="#DC8CE1"/>
<stop offset="1" stop-color="#FF408E"/>
</linearGradient>
</defs>
</svg>
