<svg width="298" height="47" viewBox="0 0 298 47" fill="none" xmlns="http://www.w3.org/2000/svg">
<path d="M29.8737 26.3615C30.5235 25.8072 30.8322 25.905 30.7997 26.6549C30.7672 26.8832 30.7185 27.1603 30.6535 27.4863C30.5235 27.9754 30.3124 28.546 30.0199 29.1981C29.76 29.8501 29.2727 30.649 28.5579 31.5945C27.8432 32.54 26.9985 33.404 26.0238 34.1865C25.0816 34.9364 23.8145 35.5885 22.2226 36.1428C20.6306 36.7297 18.8924 37.0394 17.0081 37.072C12.2646 37.1698 8.23599 35.3603 4.9221 31.6434C1.6407 27.9265 0 23.5086 0 18.3897C0 13.3687 1.59197 9.06491 4.7759 5.47845C7.99232 1.85937 12.086 0.0335266 17.0568 0.000922739C20.858 -0.0316811 23.977 0.799728 26.4137 2.49515C28.8503 4.15797 30.0687 6.30985 30.0687 8.9508C30.0687 10.3854 29.5813 11.6733 28.6067 12.8144C27.632 13.9556 26.3162 14.5261 24.6592 14.5261C23.5871 14.5261 22.6774 14.3631 21.9302 14.0371C21.2154 13.6784 20.8743 13.2546 20.9067 12.7655C21.1667 10.9723 21.0042 9.42356 20.4194 8.11939C19.8671 6.81522 18.8274 6.16314 17.3005 6.16314C15.9034 6.16314 14.6851 6.88043 13.6454 8.31502C12.6058 9.74961 11.8748 11.4287 11.4524 13.3524C11.0625 15.276 10.9813 17.0856 11.2087 18.781C11.5661 21.7806 12.4596 24.1933 13.8891 26.0191C15.3511 27.845 17.0081 28.9698 18.8599 29.3937C20.7118 29.7849 22.6287 29.7197 24.6105 29.1981C26.5923 28.6764 28.3468 27.7309 29.8737 26.3615Z" fill="url(#paint0_linear_2059_4406)"/>
<path d="M56.956 11.445C56.956 11.5428 57.0047 11.6081 57.1022 11.6407V35.7515C57.1022 35.8819 57.0372 35.9635 56.9072 35.9961H47.5016C47.3717 35.9961 47.3067 35.9145 47.3067 35.7515V15.9444H41.8485V35.7515C41.816 35.8819 41.7348 35.9635 41.6049 35.9961H32.1993C32.0693 35.9961 32.0043 35.9145 32.0043 35.7515V11.6407C32.0368 11.5428 32.1018 11.4776 32.1993 11.445C35.8055 10.7277 39.9154 10.3691 44.5289 10.3691C49.1748 10.3365 53.3172 10.6951 56.956 11.445Z" fill="url(#paint1_linear_2059_4406)"/>
<path d="M70.0748 28.4645C70.7246 29.7034 71.6181 30.3229 72.7552 30.3229C73.8923 30.3229 74.7858 29.7034 75.4356 28.4645C76.0853 27.2255 76.4102 25.6442 76.4102 23.7205C76.4102 21.7969 76.0853 20.2156 75.4356 18.9766C74.7858 17.7051 73.8923 17.0693 72.7552 17.0693C71.6181 17.0693 70.7246 17.7051 70.0748 18.9766C69.4251 20.2156 69.1002 21.7969 69.1002 23.7205C69.1002 25.6442 69.4251 27.2255 70.0748 28.4645ZM114.471 11.6896V35.8004C114.471 35.9308 114.406 36.0124 114.276 36.045H104.871C104.741 36.045 104.676 35.9635 104.676 35.8004V15.9933H101.216C101.346 18.6995 101.264 21.1448 100.972 23.3293C100.68 25.5138 100.273 27.3233 99.7537 28.7579C99.2663 30.1599 98.6003 31.3989 97.7556 32.4748C96.9109 33.5181 96.0986 34.3169 95.3189 34.8712C94.5716 35.4255 93.6782 35.8819 92.6385 36.2406C91.5989 36.5992 90.7542 36.8112 90.1044 36.8764C89.4871 36.9742 88.7398 37.0557 87.8626 37.1209C85.2635 37.2839 82.8268 36.8601 80.5526 35.8493C78.3108 34.806 76.8976 33.3877 76.3128 31.5945C74.3959 35.2788 71.8293 37.1209 68.6128 37.1209C66.6635 37.1209 64.9416 36.4525 63.4471 35.1157C61.9526 33.779 60.8479 32.1161 60.1332 30.1273C59.4184 28.1384 59.061 26.0191 59.061 23.7694C59.061 20.183 59.9382 17.0856 61.6927 14.4772C63.4471 11.8363 65.835 10.5158 68.8565 10.5158C71.9755 10.5158 74.3959 12.0645 76.1178 15.1619V11.7874C76.1178 11.6244 76.199 11.5265 76.3615 11.4939H86.1082C86.2382 11.5265 86.3032 11.608 86.3032 11.7385L86.1082 29.0513C86.1407 31.2684 86.6118 32.4096 87.5215 32.4748C88.3662 32.54 89.2272 31.6434 90.1044 29.7849C90.5917 28.7416 91.0141 27.47 91.3715 25.9702C91.7613 24.2748 92.07 22.237 92.2974 19.8569C92.5573 17.4768 92.7198 15.5369 92.7847 14.0371L92.8335 11.7385C92.8335 11.5754 92.8985 11.4939 93.0284 11.4939C99.7212 9.99414 106.82 9.99414 114.325 11.4939C114.423 11.4939 114.471 11.5591 114.471 11.6896Z" fill="url(#paint2_linear_2059_4406)"/>
<path d="M141.214 28.4645C141.442 28.6275 141.49 28.8883 141.36 29.247C141.198 29.8338 140.824 30.5348 140.24 31.3499C139.687 32.1651 138.94 33.0291 137.998 33.942C137.088 34.8223 135.886 35.5559 134.391 36.1428C132.897 36.7623 131.321 37.072 129.664 37.072C125.993 37.072 122.858 35.7678 120.259 33.1595C117.692 30.5511 116.409 27.4048 116.409 23.7205C116.409 20.0363 117.692 16.9062 120.259 14.3305C122.858 11.7222 126.204 10.418 130.298 10.418C133.937 10.418 136.747 11.3309 138.729 13.1568C140.743 14.95 141.75 16.8736 141.75 18.9277C141.75 20.7536 141.247 22.286 140.24 23.5249C139.265 24.7313 138.014 25.5464 136.487 25.9702C134.993 26.3941 133.336 26.6712 131.516 26.8016C129.729 26.9321 128.04 26.8179 126.448 26.4593C127.293 28.8394 129.112 30.2088 131.906 30.5674C134.733 30.9261 137.624 30.2414 140.581 28.5134C140.808 28.3503 141.019 28.334 141.214 28.4645ZM128.592 16.4335C127.13 17.3138 126.285 19.2211 126.058 22.1555C128.17 22.3512 129.778 22.1066 130.883 21.4219C131.987 20.7046 132.54 19.6613 132.54 18.2919C132.54 17.6072 132.296 17.0367 131.809 16.5802C131.321 16.1237 130.704 15.9118 129.957 15.9444C129.957 15.977 129.941 15.9933 129.908 15.9933H129.762C129.372 16.0585 128.982 16.2053 128.592 16.4335Z" fill="url(#paint3_linear_2059_4406)"/>
<path d="M169.098 26.1659C169.098 27.6005 169.211 28.8068 169.439 29.7849C169.666 30.7305 169.926 31.3988 170.218 31.7901C170.543 32.1488 170.852 32.4259 171.144 32.6215C171.469 32.8171 171.713 32.9802 171.875 33.1106C172.038 33.241 172.07 33.4203 171.973 33.6485C171.713 34.4637 170.998 35.2299 169.829 35.9472C168.659 36.6318 167.424 36.9742 166.125 36.9742C164.11 36.9742 162.47 36.3221 161.203 35.0179C159.936 33.6812 159.302 31.8879 159.302 29.6382V26.3615H154.526V35.7515C154.526 35.9145 154.445 36.0124 154.282 36.045H144.536C144.536 36.045 144.471 35.9961 144.341 35.8982C144.341 35.8656 144.341 35.833 144.341 35.8004C144.568 28.3667 144.682 23.5249 144.682 21.2752C144.682 19.5146 144.503 18.1126 144.146 17.0693C143.821 15.9933 143.464 15.3412 143.074 15.113C142.684 14.8848 142.343 14.6892 142.05 14.5261C141.79 14.3305 141.709 14.1023 141.807 13.8414C142.099 12.9937 142.83 12.2112 144 11.4939C145.169 10.744 146.404 10.3691 147.703 10.3691C149.718 10.3691 151.358 11.0538 152.626 12.4232C153.893 13.7599 154.526 15.5532 154.526 17.8029V20.6394H159.302V11.6896C159.335 11.5591 159.416 11.4776 159.546 11.445H168.903C169.033 11.445 169.098 11.5265 169.098 11.6896V26.1659Z" fill="url(#paint4_linear_2059_4406)"/>
<path d="M200.409 32.8171C200.798 33.0128 200.993 33.2084 200.993 33.404C201.026 33.5996 200.847 33.942 200.457 34.431C199.807 35.1483 198.93 35.7678 197.826 36.2895C196.721 36.8438 195.535 37.1209 194.268 37.1209C192.416 37.1209 190.889 36.746 189.687 35.9961C188.485 35.2136 187.64 34.268 187.153 33.1595C186.666 32.0183 186.292 30.8935 186.032 29.7849C185.772 28.6764 185.496 27.7146 185.204 26.8995C184.911 26.0844 184.489 25.6442 183.937 25.579V35.7515L183.742 36.045H173.946C173.816 36.0124 173.751 35.9308 173.751 35.8004C174.011 28.3667 174.141 23.5249 174.141 21.2752C174.141 19.5146 173.962 18.1126 173.605 17.0693C173.28 15.9933 172.923 15.3412 172.533 15.113C172.143 14.8848 171.802 14.6892 171.509 14.5261C171.25 14.3305 171.168 14.1023 171.266 13.8414C171.558 12.9937 172.289 12.2112 173.459 11.4939C174.628 10.744 175.863 10.3691 177.163 10.3691C179.144 10.3691 180.769 11.0538 182.036 12.4232C183.303 13.7599 183.937 15.5532 183.937 17.8029V21.911C183.969 21.8784 184.034 21.8458 184.131 21.8132C184.229 21.7806 184.294 21.7643 184.326 21.7643C184.424 20.9492 184.619 20.0852 184.911 19.1722C185.204 18.2267 185.626 17.2323 186.178 16.189C186.731 15.113 187.364 14.1512 188.079 13.3035C188.794 12.4558 189.687 11.7548 190.759 11.2005C191.831 10.6462 192.985 10.3691 194.219 10.3691C196.006 10.3691 197.452 10.8908 198.557 11.9341C199.694 12.9448 200.262 14.249 200.262 15.8466C200.262 17.4442 199.759 18.7158 198.752 19.6613C197.777 20.5742 196.51 21.0307 194.95 21.0307C194.301 21.0307 193.716 20.9329 193.196 20.7372C192.709 20.5416 192.465 20.2645 192.465 19.9058C192.465 19.8732 192.465 19.7102 192.465 19.4168C192.497 19.0907 192.497 18.8462 192.465 18.6832C192.465 18.4876 192.432 18.2756 192.367 18.0474C192.302 17.7866 192.173 17.5909 191.978 17.4605C191.783 17.2975 191.539 17.1997 191.247 17.1671C190.402 17.0693 189.736 17.4605 189.248 18.3408C188.761 19.2211 188.485 20.1993 188.42 21.2752C190.337 21.0144 191.896 21.6502 193.098 23.1826C193.488 23.7042 193.959 24.6661 194.512 26.0681C195.097 27.47 195.828 28.7579 196.705 29.9317C197.614 31.0728 198.849 32.0346 200.409 32.8171Z" fill="url(#paint5_linear_2059_4406)"/>
<path d="M227.832 26.2148C227.832 27.9754 227.995 29.3937 228.32 30.4696C228.677 31.513 229.051 32.1488 229.44 32.377C229.83 32.6052 230.155 32.8171 230.415 33.0128C230.675 33.1758 230.756 33.3877 230.659 33.6485C230.399 34.4963 229.684 35.2951 228.515 36.045C227.345 36.7623 226.11 37.1209 224.811 37.1209C223.121 37.1209 221.676 36.6318 220.473 35.6537C219.271 34.643 218.508 33.2736 218.183 31.5456C216.266 35.2299 213.699 37.072 210.483 37.072C208.534 37.072 206.812 36.4036 205.317 35.0668C203.823 33.7301 202.718 32.0672 202.003 30.0784C201.289 28.0895 200.931 25.9702 200.931 23.7205C200.931 20.1341 201.808 17.0367 203.563 14.4283C205.317 11.7874 207.705 10.4669 210.727 10.4669C213.846 10.4669 216.266 12.0156 217.988 15.113V11.7385C217.988 11.5754 218.069 11.4776 218.232 11.445H227.978C228.108 11.4776 228.173 11.5591 228.173 11.6896C227.946 19.1233 227.832 23.9651 227.832 26.2148ZM211.945 28.4645C212.595 29.7034 213.488 30.3229 214.625 30.3229C215.763 30.3229 216.656 29.7034 217.306 28.4645C217.956 27.2255 218.28 25.6442 218.28 23.7205C218.28 21.7969 217.956 20.2156 217.306 18.9766C216.656 17.7051 215.763 17.0693 214.625 17.0693C213.488 17.0693 212.595 17.7051 211.945 18.9766C211.295 20.2156 210.97 21.7969 210.97 23.7205C210.97 25.6442 211.295 27.2255 211.945 28.4645Z" fill="url(#paint6_linear_2059_4406)"/>
<path d="M239.391 28.7579C240.333 29.7034 240.805 30.8283 240.805 32.1324C240.805 33.4366 240.333 34.5615 239.391 35.507C238.482 36.4525 237.361 36.9253 236.029 36.9253C234.697 36.9253 233.559 36.4525 232.617 35.507C231.708 34.5615 231.253 33.4366 231.253 32.1324C231.253 30.8283 231.708 29.7034 232.617 28.7579C233.559 27.8124 234.697 27.3396 236.029 27.3396C237.361 27.3396 238.482 27.8124 239.391 28.7579Z" fill="url(#paint7_linear_2059_4406)"/>
<path d="M261.545 10.3691C264.436 10.3691 266.743 11.7222 268.465 14.4283C270.187 17.1019 271.048 20.1993 271.048 23.7205C271.048 27.307 270.171 30.4207 268.416 33.0617C266.694 35.67 264.323 36.9742 261.301 36.9742C258.182 36.9742 255.762 35.4255 254.04 32.3281V46.5109C254.04 46.674 253.959 46.7718 253.796 46.8044H244.05C244.05 46.8044 243.985 46.7555 243.855 46.6577C243.855 46.6251 243.855 46.5924 243.855 46.5598C243.822 31.9531 243.806 23.5249 243.806 21.2752C243.806 19.5146 243.66 18.1126 243.367 17.0693C243.075 15.9933 242.75 15.3412 242.393 15.113C242.035 14.8848 241.743 14.6892 241.515 14.5261C241.288 14.3305 241.223 14.1023 241.32 13.8414C241.613 12.9937 242.344 12.2112 243.513 11.4939C244.683 10.744 245.918 10.3691 247.217 10.3691C248.907 10.3691 250.352 10.8745 251.555 11.8852C252.757 12.8633 253.52 14.2164 253.845 15.9444C255.762 12.2275 258.328 10.3691 261.545 10.3691ZM254.722 28.5134C255.372 29.7523 256.265 30.3718 257.403 30.3718C258.54 30.3718 259.433 29.7523 260.083 28.5134C260.733 27.2418 261.058 25.6442 261.058 23.7205C261.058 21.7969 260.733 20.2156 260.083 18.9766C259.433 17.7377 258.54 17.1182 257.403 17.1182C256.265 17.1182 255.372 17.7377 254.722 18.9766C254.072 20.2156 253.748 21.7969 253.748 23.7205C253.748 25.6442 254.072 27.2418 254.722 28.5134Z" fill="url(#paint8_linear_2059_4406)"/>
<path d="M297.984 32.4748C298.147 36.8112 297.042 40.3161 294.67 42.9897C292.331 45.6632 288.952 47 284.534 47C282.357 47 280.408 46.5435 278.686 45.6306C276.996 44.7503 275.778 43.8374 275.031 42.8919C274.316 41.9789 273.829 41.1312 273.569 40.3487C273.341 39.5988 273.211 38.9956 273.179 38.5392C273.146 38.1153 273.195 37.8382 273.325 37.7078C273.455 37.61 273.618 37.5774 273.812 37.61C274.04 37.6426 274.365 37.8545 274.787 38.2458C275.242 38.6696 275.713 39.1098 276.2 39.5662C276.72 40.0553 277.484 40.4791 278.491 40.8378C279.498 41.229 280.619 41.4247 281.854 41.4247C283.705 41.4247 285.2 40.8052 286.337 39.5662C287.474 38.3599 288.075 36.9579 288.14 35.3603V30.4696C287.23 32.4259 286.045 33.8605 284.583 34.7734C283.153 35.6863 281.707 36.1428 280.245 36.1428C278.393 36.1428 276.818 35.3929 275.518 33.8931C274.219 32.3933 273.569 30.4533 273.569 28.0732V21.4219C273.569 19.9874 273.439 18.7973 273.179 17.8518C272.919 16.8736 272.61 16.2053 272.253 15.8466C271.928 15.4554 271.587 15.1619 271.23 14.9663C270.905 14.7707 270.661 14.6239 270.499 14.5261C270.304 14.3957 270.239 14.2164 270.304 13.9882C270.596 13.1405 271.327 12.3579 272.497 11.6407C273.666 10.8908 274.901 10.5158 276.2 10.5158C278.247 10.5158 279.953 11.2005 281.317 12.5699C282.682 13.9067 283.364 15.6999 283.364 17.9496V26.4593C283.364 28.2199 283.852 29.1655 284.826 29.2959C285.703 29.4263 286.483 28.8557 287.165 27.5841C287.718 26.5734 288.01 25.3508 288.043 23.9162V11.7385C288.043 11.608 288.108 11.5265 288.238 11.4939H297.643C297.773 11.4939 297.838 11.5754 297.838 11.7385C297.936 21.2263 297.984 28.1384 297.984 32.4748Z" fill="url(#paint9_linear_2059_4406)"/>
<defs>
<linearGradient id="paint0_linear_2059_4406" x1="348.373" y1="-43.8603" x2="30.7157" y2="91.8066" gradientUnits="userSpaceOnUse">
<stop stop-color="#FF9F00"/>
<stop offset="0.44719" stop-color="#DC8CE1"/>
<stop offset="1" stop-color="#FF408E"/>
</linearGradient>
<linearGradient id="paint1_linear_2059_4406" x1="348.373" y1="-43.8603" x2="30.7157" y2="91.8066" gradientUnits="userSpaceOnUse">
<stop stop-color="#FF9F00"/>
<stop offset="0.44719" stop-color="#DC8CE1"/>
<stop offset="1" stop-color="#FF408E"/>
</linearGradient>
<linearGradient id="paint2_linear_2059_4406" x1="348.373" y1="-43.8603" x2="30.7157" y2="91.8066" gradientUnits="userSpaceOnUse">
<stop stop-color="#FF9F00"/>
<stop offset="0.44719" stop-color="#DC8CE1"/>
<stop offset="1" stop-color="#FF408E"/>
</linearGradient>
<linearGradient id="paint3_linear_2059_4406" x1="348.373" y1="-43.8603" x2="30.7157" y2="91.8066" gradientUnits="userSpaceOnUse">
<stop stop-color="#FF9F00"/>
<stop offset="0.44719" stop-color="#DC8CE1"/>
<stop offset="1" stop-color="#FF408E"/>
</linearGradient>
<linearGradient id="paint4_linear_2059_4406" x1="348.373" y1="-43.8603" x2="30.7157" y2="91.8066" gradientUnits="userSpaceOnUse">
<stop stop-color="#FF9F00"/>
<stop offset="0.44719" stop-color="#DC8CE1"/>
<stop offset="1" stop-color="#FF408E"/>
</linearGradient>
<linearGradient id="paint5_linear_2059_4406" x1="348.373" y1="-43.8603" x2="30.7157" y2="91.8066" gradientUnits="userSpaceOnUse">
<stop stop-color="#FF9F00"/>
<stop offset="0.44719" stop-color="#DC8CE1"/>
<stop offset="1" stop-color="#FF408E"/>
</linearGradient>
<linearGradient id="paint6_linear_2059_4406" x1="348.373" y1="-43.8603" x2="30.7157" y2="91.8066" gradientUnits="userSpaceOnUse">
<stop stop-color="#FF9F00"/>
<stop offset="0.44719" stop-color="#DC8CE1"/>
<stop offset="1" stop-color="#FF408E"/>
</linearGradient>
<linearGradient id="paint7_linear_2059_4406" x1="348.373" y1="-43.8603" x2="30.7157" y2="91.8066" gradientUnits="userSpaceOnUse">
<stop stop-color="#FF9F00"/>
<stop offset="0.44719" stop-color="#DC8CE1"/>
<stop offset="1" stop-color="#FF408E"/>
</linearGradient>
<linearGradient id="paint8_linear_2059_4406" x1="348.373" y1="-43.8603" x2="30.7157" y2="91.8066" gradientUnits="userSpaceOnUse">
<stop stop-color="#FF9F00"/>
<stop offset="0.44719" stop-color="#DC8CE1"/>
<stop offset="1" stop-color="#FF408E"/>
</linearGradient>
<linearGradient id="paint9_linear_2059_4406" x1="348.373" y1="-43.8603" x2="30.7157" y2="91.8066" gradientUnits="userSpaceOnUse">
<stop stop-color="#FF9F00"/>
<stop offset="0.44719" stop-color="#DC8CE1"/>
<stop offset="1" stop-color="#FF408E"/>
</linearGradient>
</defs>
</svg>
