<svg width="182" height="29" viewBox="0 0 182 29" fill="none" xmlns="http://www.w3.org/2000/svg">
<path d="M18.1968 16.0296C18.5926 15.6932 18.7807 15.7525 18.7609 16.2077C18.7411 16.3462 18.7114 16.5145 18.6718 16.7124C18.5926 17.0092 18.464 17.3555 18.2859 17.7513C18.1276 18.1471 17.8307 18.632 17.3954 19.2059C16.96 19.7798 16.4454 20.3042 15.8517 20.7792C15.2778 21.2344 14.506 21.6302 13.5363 21.9666C12.5666 22.3228 11.5078 22.5108 10.36 22.5306C7.47069 22.59 5.01673 21.4916 2.99815 19.2356C0.999368 16.9795 -2.54802e-05 14.298 -2.54802e-05 11.191C-2.54802e-05 8.1433 0.969683 5.53103 2.9091 3.35413C4.86831 1.15745 7.36184 0.0492068 10.3897 0.0294171C12.7051 0.00962736 14.605 0.514272 16.0892 1.54335C17.5735 2.55264 18.3156 3.85878 18.3156 5.46176C18.3156 6.33252 18.0187 7.11423 17.425 7.80687C16.8313 8.49952 16.0298 8.84585 15.0206 8.84585C14.3675 8.84585 13.8134 8.7469 13.3582 8.549C12.9228 8.33131 12.715 8.07404 12.7348 7.77719C12.8931 6.68874 12.7942 5.74872 12.438 4.95712C12.1015 4.16552 11.4683 3.76972 10.5381 3.76972C9.68716 3.76972 8.94504 4.2051 8.31176 5.07586C7.67848 5.94662 7.23321 6.9658 6.97594 8.13341C6.73846 9.30102 6.68898 10.3994 6.82751 11.4284C7.0452 13.2491 7.58943 14.7136 8.46019 15.8218C9.35073 16.93 10.36 17.6128 11.4881 17.8701C12.6161 18.1076 13.7837 18.068 14.9909 17.7513C16.1981 17.4347 17.2667 16.8608 18.1968 16.0296ZM34.6933 6.9757C34.6933 7.03507 34.723 7.07465 34.7824 7.09444V21.7291C34.7824 21.8083 34.7428 21.8578 34.6636 21.8775H28.9345C28.8553 21.8775 28.8157 21.8281 28.8157 21.7291V9.70671H25.491V21.7291C25.4712 21.8083 25.4217 21.8578 25.3426 21.8775H19.6134C19.5342 21.8775 19.4946 21.8281 19.4946 21.7291V7.09444C19.5144 7.03507 19.554 6.99549 19.6134 6.9757C21.8101 6.54032 24.3135 6.32263 27.1237 6.32263C29.9536 6.30284 32.4769 6.52053 34.6933 6.9757ZM42.6844 17.3061C43.0802 18.0581 43.6244 18.4341 44.3171 18.4341C45.0097 18.4341 45.5539 18.0581 45.9497 17.3061C46.3455 16.554 46.5434 15.5942 46.5434 14.4266C46.5434 13.259 46.3455 12.2992 45.9497 11.5472C45.5539 10.7754 45.0097 10.3895 44.3171 10.3895C43.6244 10.3895 43.0802 10.7754 42.6844 11.5472C42.2886 12.2992 42.0907 13.259 42.0907 14.4266C42.0907 15.5942 42.2886 16.554 42.6844 17.3061ZM69.7274 7.12412V21.7588C69.7274 21.838 69.6878 21.8874 69.6086 21.9072H63.8794C63.8003 21.9072 63.7607 21.8578 63.7607 21.7588V9.7364H61.6531C61.7322 11.379 61.6828 12.8632 61.5046 14.1891C61.3265 15.5151 61.0792 16.6134 60.7625 17.4842C60.4657 18.3351 60.06 19.0872 59.5454 19.7402C59.0309 20.3735 58.5361 20.8584 58.0612 21.1948C57.606 21.5312 57.0618 21.8083 56.4285 22.026C55.7952 22.2437 55.2807 22.3723 54.8849 22.4119C54.5089 22.4712 54.0537 22.5207 53.5194 22.5603C51.9362 22.6592 50.4519 22.402 49.0666 21.7885C47.7011 21.1552 46.8403 20.2943 46.4841 19.2059C45.3164 21.4422 43.753 22.5603 41.7938 22.5603C40.6064 22.5603 39.5576 22.1546 38.6472 21.3432C37.7369 20.5318 37.064 19.5225 36.6287 18.3153C36.1933 17.1082 35.9756 15.8218 35.9756 14.4563C35.9756 12.2794 36.5099 10.3994 37.5786 8.81616C38.6472 7.21318 40.1018 6.41168 41.9423 6.41168C43.8421 6.41168 45.3164 7.35171 46.3653 9.23175V7.18349C46.3653 7.08454 46.4148 7.02517 46.5137 7.00538H52.4507C52.5299 7.02517 52.5695 7.07465 52.5695 7.15381L52.4507 17.6623C52.4705 19.008 52.7575 19.7006 53.3116 19.7402C53.8261 19.7798 54.3506 19.2356 54.8849 18.1076C55.1817 17.4743 55.439 16.7025 55.6567 15.7921C55.8942 14.763 56.0822 13.5262 56.2207 12.0815C56.379 10.6368 56.478 9.45934 56.5176 8.549L56.5473 7.15381C56.5473 7.05486 56.5868 7.00538 56.666 7.00538C60.7427 6.09504 65.0668 6.09504 69.6383 7.00538C69.6977 7.00538 69.7274 7.04496 69.7274 7.12412ZM86.0172 17.3061C86.1558 17.405 86.1854 17.5633 86.1063 17.781C86.0073 18.1372 85.7797 18.5627 85.4235 19.0575C85.0871 19.5522 84.6319 20.0767 84.058 20.6308C83.5039 21.1651 82.7717 21.6104 81.8613 21.9666C80.951 22.3426 79.9912 22.5306 78.9819 22.5306C76.7456 22.5306 74.8359 21.739 73.2527 20.1558C71.6893 18.5726 70.9076 16.6629 70.9076 14.4266C70.9076 12.1904 71.6893 10.2905 73.2527 8.72711C74.8359 7.14391 76.8743 6.35231 79.3678 6.35231C81.5843 6.35231 83.2961 6.90643 84.5033 8.01467C85.7303 9.10312 86.3438 10.2707 86.3438 11.5175C86.3438 12.6257 86.037 13.5559 85.4235 14.3079C84.8298 15.0401 84.0679 15.5349 83.1378 15.7921C82.2274 16.0494 81.2182 16.2176 80.1099 16.2968C79.0215 16.3759 77.9924 16.3067 77.0227 16.089C77.5372 17.5336 78.6455 18.3648 80.3474 18.5825C82.0691 18.8002 83.8304 18.3846 85.6313 17.3357C85.7698 17.2368 85.8985 17.2269 86.0172 17.3061ZM78.3288 10.0036C77.4383 10.5379 76.9237 11.6956 76.7852 13.4767C78.0716 13.5954 79.0512 13.447 79.724 13.0314C80.3969 12.596 80.7333 11.9628 80.7333 11.1316C80.7333 10.716 80.5849 10.3697 80.288 10.0926C79.9912 9.81556 79.6152 9.68692 79.16 9.70671C79.16 9.7265 79.1501 9.7364 79.1303 9.7364H79.0413C78.8038 9.77598 78.5663 9.86503 78.3288 10.0036ZM103.002 15.9109C103.002 16.7816 103.071 17.5139 103.209 18.1076C103.348 18.6815 103.506 19.0872 103.684 19.3246C103.882 19.5423 104.07 19.7105 104.248 19.8293C104.446 19.948 104.595 20.047 104.694 20.1261C104.793 20.2053 104.812 20.3141 104.753 20.4527C104.595 20.9474 104.159 21.4125 103.447 21.8479C102.734 22.2634 101.982 22.4712 101.191 22.4712C99.9639 22.4712 98.9645 22.0754 98.1927 21.2838C97.4209 20.4725 97.035 19.384 97.035 18.0185V16.0296H94.1259V21.7291C94.1259 21.8281 94.0764 21.8874 93.9774 21.9072H88.0404C88.0404 21.9072 88.0009 21.8775 87.9217 21.8182C87.9217 21.7984 87.9217 21.7786 87.9217 21.7588C88.0602 17.2467 88.1295 14.3079 88.1295 12.9424C88.1295 11.8737 88.0206 11.0227 87.803 10.3895C87.6051 9.7364 87.3874 9.3406 87.1499 9.20207C86.9124 9.06354 86.7046 8.9448 86.5265 8.84585C86.3682 8.72711 86.3187 8.58858 86.3781 8.43026C86.5562 7.91572 87.0015 7.44076 87.7139 7.00538C88.4263 6.55021 89.1784 6.32263 89.97 6.32263C91.1969 6.32263 92.1963 6.73822 92.9681 7.5694C93.7399 8.38078 94.1259 9.46923 94.1259 10.8347V12.5565H97.035V7.12412C97.0548 7.04496 97.1042 6.99549 97.1834 6.9757H102.883C102.962 6.9757 103.002 7.02517 103.002 7.12412V15.9109ZM122.074 19.948C122.311 20.0668 122.43 20.1855 122.43 20.3042C122.45 20.423 122.341 20.6308 122.104 20.9276C121.708 21.363 121.174 21.739 120.501 22.0557C119.828 22.3921 119.106 22.5603 118.334 22.5603C117.206 22.5603 116.276 22.3327 115.543 21.8775C114.811 21.4026 114.297 20.8287 114 20.1558C113.703 19.4632 113.475 18.7804 113.317 18.1076C113.159 17.4347 112.99 16.8509 112.812 16.3561C112.634 15.8614 112.377 15.5942 112.04 15.5546V21.7291L111.922 21.9072H105.955C105.876 21.8874 105.836 21.838 105.836 21.7588C105.995 17.2467 106.074 14.3079 106.074 12.9424C106.074 11.8737 105.965 11.0227 105.747 10.3895C105.549 9.7364 105.332 9.3406 105.094 9.20207C104.857 9.06354 104.649 8.9448 104.471 8.84585C104.313 8.72711 104.263 8.58858 104.322 8.43026C104.501 7.91572 104.946 7.44076 105.658 7.00538C106.371 6.55021 107.123 6.32263 107.914 6.32263C109.121 6.32263 110.111 6.73822 110.883 7.5694C111.655 8.38078 112.04 9.46923 112.04 10.8347V13.3283C112.06 13.3085 112.1 13.2887 112.159 13.2689C112.219 13.2491 112.258 13.2392 112.278 13.2392C112.337 12.7445 112.456 12.22 112.634 11.6659C112.812 11.092 113.07 10.4884 113.406 9.85514C113.742 9.20207 114.128 8.61826 114.564 8.10372C114.999 7.58918 115.543 7.1637 116.196 6.82727C116.849 6.49084 117.552 6.32263 118.304 6.32263C119.392 6.32263 120.273 6.63927 120.946 7.27255C121.639 7.88603 121.985 8.67763 121.985 9.64734C121.985 10.6171 121.678 11.3889 121.065 11.9628C120.471 12.5169 119.699 12.7939 118.749 12.7939C118.353 12.7939 117.997 12.7346 117.681 12.6158C117.384 12.4971 117.235 12.3289 117.235 12.1112C117.235 12.0914 117.235 11.9925 117.235 11.8143C117.255 11.6164 117.255 11.468 117.235 11.3691C117.235 11.2503 117.216 11.1217 117.176 10.9832C117.136 10.8248 117.057 10.7061 116.939 10.6269C116.82 10.528 116.671 10.4686 116.493 10.4488C115.979 10.3895 115.573 10.6269 115.276 11.1613C114.979 11.6956 114.811 12.2893 114.772 12.9424C115.939 12.7841 116.889 13.17 117.621 14.1001C117.859 14.4167 118.146 15.0005 118.482 15.8515C118.838 16.7025 119.284 17.4842 119.818 18.1966C120.372 18.8893 121.124 19.4731 122.074 19.948ZM138.779 15.9406C138.779 17.0092 138.877 17.8701 139.075 18.5231C139.293 19.1564 139.521 19.5423 139.758 19.6809C139.996 19.8194 140.193 19.948 140.352 20.0668C140.51 20.1657 140.56 20.2943 140.5 20.4527C140.342 20.9672 139.907 21.4521 139.194 21.9072C138.482 22.3426 137.73 22.5603 136.938 22.5603C135.909 22.5603 135.028 22.2634 134.296 21.6697C133.564 21.0563 133.099 20.2251 132.901 19.1762C131.733 21.4125 130.17 22.5306 128.211 22.5306C127.023 22.5306 125.974 22.1249 125.064 21.3135C124.154 20.5021 123.481 19.4929 123.045 18.2857C122.61 17.0785 122.392 15.7921 122.392 14.4266C122.392 12.2497 122.927 10.3697 123.995 8.78648C125.064 7.18349 126.519 6.382 128.359 6.382C130.259 6.382 131.733 7.32202 132.782 9.20207V7.15381C132.782 7.05486 132.832 6.99549 132.931 6.9757H138.868C138.947 6.99549 138.986 7.04496 138.986 7.12412C138.848 11.6362 138.779 14.575 138.779 15.9406ZM129.101 17.3061C129.497 18.0581 130.041 18.4341 130.734 18.4341C131.427 18.4341 131.971 18.0581 132.367 17.3061C132.762 16.554 132.96 15.5942 132.96 14.4266C132.96 13.259 132.762 12.2992 132.367 11.5472C131.971 10.7754 131.427 10.3895 130.734 10.3895C130.041 10.3895 129.497 10.7754 129.101 11.5472C128.705 12.2992 128.508 13.259 128.508 14.4266C128.508 15.5942 128.705 16.554 129.101 17.3061ZM145.819 17.4842C146.393 18.0581 146.68 18.7408 146.68 19.5324C146.68 20.324 146.393 21.0068 145.819 21.5807C145.265 22.1546 144.583 22.4416 143.771 22.4416C142.96 22.4416 142.267 22.1546 141.693 21.5807C141.139 21.0068 140.862 20.324 140.862 19.5324C140.862 18.7408 141.139 18.0581 141.693 17.4842C142.267 16.9103 142.96 16.6233 143.771 16.6233C144.583 16.6233 145.265 16.9103 145.819 17.4842ZM159.314 6.32263C161.075 6.32263 162.48 7.14391 163.529 8.78648C164.578 10.4093 165.102 12.2893 165.102 14.4266C165.102 16.6035 164.568 18.4935 163.499 20.0964C162.45 21.6796 161.006 22.4712 159.165 22.4712C157.266 22.4712 155.791 21.5312 154.742 19.6512V28.2598C154.742 28.3588 154.693 28.4181 154.594 28.4379H148.657C148.657 28.4379 148.617 28.4082 148.538 28.3489C148.538 28.3291 148.538 28.3093 148.538 28.2895C148.518 19.4236 148.508 14.3079 148.508 12.9424C148.508 11.8737 148.419 11.0227 148.241 10.3895C148.063 9.7364 147.865 9.3406 147.648 9.20207C147.43 9.06354 147.252 8.9448 147.113 8.84585C146.975 8.72711 146.935 8.58858 146.995 8.43026C147.173 7.91572 147.618 7.44076 148.33 7.00538C149.043 6.55021 149.795 6.32263 150.586 6.32263C151.615 6.32263 152.496 6.62937 153.228 7.24286C153.961 7.83656 154.426 8.65784 154.624 9.70671C155.791 7.45066 157.355 6.32263 159.314 6.32263ZM155.158 17.3357C155.554 18.0878 156.098 18.4638 156.791 18.4638C157.483 18.4638 158.027 18.0878 158.423 17.3357C158.819 16.5639 159.017 15.5942 159.017 14.4266C159.017 13.259 158.819 12.2992 158.423 11.5472C158.027 10.7952 157.483 10.4192 156.791 10.4192C156.098 10.4192 155.554 10.7952 155.158 11.5472C154.762 12.2992 154.564 13.259 154.564 14.4266C154.564 15.5942 154.762 16.5639 155.158 17.3357ZM181.51 19.7402C181.609 22.3723 180.936 24.4997 179.491 26.1225C178.067 27.7453 176.008 28.5567 173.317 28.5567C171.991 28.5567 170.804 28.2796 169.755 27.7255C168.726 27.1911 167.984 26.637 167.528 26.0631C167.093 25.509 166.796 24.9945 166.638 24.5195C166.499 24.0643 166.42 23.6982 166.4 23.4212C166.381 23.1639 166.41 22.9957 166.489 22.9165C166.569 22.8571 166.668 22.8374 166.786 22.8571C166.925 22.8769 167.123 23.0056 167.38 23.243C167.657 23.5003 167.944 23.7675 168.241 24.0445C168.557 24.3414 169.023 24.5987 169.636 24.8164C170.25 25.0538 170.932 25.1726 171.684 25.1726C172.812 25.1726 173.723 24.7966 174.415 24.0445C175.108 23.3123 175.474 22.4613 175.514 21.4916V18.5231C174.96 19.7105 174.237 20.5813 173.347 21.1354C172.476 21.6895 171.595 21.9666 170.705 21.9666C169.577 21.9666 168.617 21.5114 167.825 20.6011C167.034 19.6908 166.638 18.5132 166.638 17.0686V13.0314C166.638 12.1607 166.559 11.4383 166.4 10.8644C166.242 10.2707 166.054 9.86503 165.836 9.64734C165.638 9.40986 165.431 9.23175 165.213 9.11301C165.015 8.99427 164.867 8.90522 164.768 8.84585C164.649 8.76669 164.609 8.65784 164.649 8.51931C164.827 8.00477 165.272 7.52982 165.985 7.09444C166.697 6.63927 167.449 6.41168 168.241 6.41168C169.488 6.41168 170.527 6.82727 171.358 7.65845C172.189 8.46984 172.605 9.55829 172.605 10.9238V16.089C172.605 17.1576 172.901 17.7315 173.495 17.8107C174.029 17.8899 174.504 17.5435 174.92 16.7717C175.256 16.1582 175.434 15.4161 175.454 14.5454V7.15381C175.454 7.07465 175.494 7.02517 175.573 7.00538H181.302C181.381 7.00538 181.421 7.05486 181.421 7.15381C181.48 12.9127 181.51 17.1082 181.51 19.7402Z" fill="url(#paint0_linear_2038_858)"/>
<defs>
<linearGradient id="paint0_linear_2038_858" x1="-33.9261" y1="77.9072" x2="155.782" y2="-39.0336" gradientUnits="userSpaceOnUse">
<stop stop-color="#108AEE"/>
<stop offset="0.610352" stop-color="#DC8CE1"/>
<stop offset="1" stop-color="#FF408E"/>
</linearGradient>
</defs>
</svg>
