<svg width="16" height="16" viewBox="0 0 16 16" fill="none" xmlns="http://www.w3.org/2000/svg">
<path d="M8.66491 1.65408C8.30865 1.47749 7.89685 1.44959 7.52002 1.5765C7.14319 1.70341 6.83217 1.97475 6.65531 2.33088L5.34971 4.93648L2.45691 5.34928C2.17759 5.38823 1.91491 5.50513 1.699 5.68658C1.4831 5.86803 1.32272 6.10667 1.23627 6.37511C1.14982 6.64356 1.1408 6.93095 1.21025 7.20429C1.27971 7.47763 1.42481 7.72585 1.62891 7.92048L3.70651 9.91168L3.21371 12.7389C3.1649 13.0146 3.19426 13.2986 3.29847 13.5585C3.40268 13.8184 3.57757 14.044 3.80336 14.2097C4.02914 14.3754 4.2968 14.4745 4.57603 14.4959C4.85525 14.5174 5.1349 14.4602 5.38331 14.3309L7.99851 12.9805L10.6121 14.3309C10.8606 14.4606 11.1404 14.5182 11.4199 14.4969C11.6994 14.4757 11.9674 14.3767 12.1934 14.2109C12.4194 14.0452 12.5945 13.8194 12.6988 13.5592C12.8031 13.299 12.8323 13.0149 12.7833 12.7389L12.2897 9.91088L14.3665 7.91968H14.3673C14.5711 7.72512 14.7161 7.47709 14.7854 7.20398C14.8548 6.93088 14.8459 6.64375 14.7596 6.37549C14.6734 6.10724 14.5133 5.8687 14.2978 5.6872C14.0822 5.5057 13.8199 5.38859 13.5409 5.34928L10.6473 4.93568L9.34251 2.33168C9.19667 2.0381 8.95867 1.79958 8.66491 1.65408Z" fill="url(#paint0_linear_611_1667)"/>
<defs>
<linearGradient id="paint0_linear_611_1667" x1="-1.34757" y1="27.5044" x2="17.7818" y2="24.6599" gradientUnits="userSpaceOnUse">
<stop stop-color="#108AEE"/>
<stop offset="0.610352" stop-color="#DC8CE1"/>
<stop offset="1" stop-color="#FF408E"/>
</linearGradient>
</defs>
</svg>
